<svg
    viewBox="0 0 1024 1024"
    class="icon"
    version="1.1"
    xmlns="http://www.w3.org/2000/svg"
  >
    <path
      d="M776.806438 945.969699H267.069224c-20.342554 0-36.772841-16.430288-36.772841-36.772841V214.615579c0-20.342554 16.430288-36.772841 36.772841-36.772841h509.737214c20.342554 0 36.772841 16.430288 36.772841 36.772841v694.385717c0 20.342554-16.430288 36.968404-36.772841 36.968403z"
      fill="#E7D0A9"
    />
    <path
      d="M282.717264 945.969699h-17.408099c-20.342554 0-36.772841-16.430288-36.772841-36.772841V214.615579c0-20.342554 16.430288-36.772841 36.772841-36.772841h17.408099v768.126961z"
      fill="#FFFFFF"
    />
    <path
      d="M728.884509 945.969699h-429.345833c-20.342554 0-36.772841-16.430288-36.772842-36.772841V214.615579c0-20.342554 16.430288-36.772841 36.772842-36.772841h429.344809c20.342554 0 36.772841 16.430288 36.772841 36.772841v694.385717c0.001024 20.342554-16.429264 36.968404-36.771817 36.968403z"
      fill="#FFE4B8"
    />
    <path
      d="M282.717264 225.373542h474.724431v667.00088h-474.724431z"
      fill="#FFFFFF"
    />
    <path
      d="M864.826787 684.254372c-11.149087 0-20.146992-8.997904-20.146991-20.146992s8.997904-20.146992 20.146991-20.146992 20.146992 8.997904 20.146992 20.146992c0 11.150111-8.99688 20.146992-20.146992 20.146992z m0-26.601565c-3.521142 0-6.454573 2.934455-6.454573 6.454573 0 3.521142 2.934455 6.454573 6.454573 6.454573s6.454573-2.934455 6.454573-6.454573c0.001024-3.520118-2.933431-6.454573-6.454573-6.454573z"
      fill="#F16723"
    />
    <path
      d="M813.579279 91.778009m-4.107828 0a4.107828 4.107828 0 1 0 8.215656 0 4.107828 4.107828 0 1 0-8.215656 0Z"
      fill=""
    />
    <path
      d="M909.42416 878.87859m-4.107827 0a4.107828 4.107828 0 1 0 8.215655 0 4.107828 4.107828 0 1 0-8.215655 0Z"
      fill=""
    />
    <path
      d="M855.634345 480.633273m-4.107828 0a4.107828 4.107828 0 1 0 8.215656 0 4.107828 4.107828 0 1 0-8.215656 0Z"
      fill=""
    />
    <path
      d="M111.370055 576.673717m-4.107828 0a4.107828 4.107828 0 1 0 8.215655 0 4.107828 4.107828 0 1 0-8.215655 0Z"
      fill=""
    />
    <path
      d="M262.765834 124.051898m-4.107828 0a4.107828 4.107828 0 1 0 8.215656 0 4.107828 4.107828 0 1 0-8.215656 0Z"
      fill=""
    />
    <path
      d="M176.896668 807.875214h-6.845698v-6.845697c0-3.716704-3.130017-6.845697-6.845697-6.845698-3.716704 0-6.845697 3.130017-6.845697 6.845698v6.845697h-6.845698c-3.716704 0-6.845697 3.130017-6.845697 6.845697s3.130017 6.845697 6.845697 6.845698h6.845698v6.845697c0 3.716704 3.130017 6.845697 6.845697 6.845697 3.716704 0 6.845697-3.130017 6.845697-6.845697v-6.845697h6.845698c3.716704 0 6.845697-3.130017 6.845697-6.845698s-3.128994-6.845697-6.845697-6.845697z"
      fill="#F16723"
    />
    <path
      d="M765.65735 128.159726m-6.063449 0a6.063449 6.063449 0 1 0 12.126898 0 6.063449 6.063449 0 1 0-12.126898 0Z"
      fill=""
    />
    <path
      d="M164.574208 538.923065m-6.063449 0a6.063449 6.063449 0 1 0 12.126898 0 6.063449 6.063449 0 1 0-12.126898 0Z"
      fill=""
    />
    <path
      d="M887.51711 449.728318m-6.063449 0a6.063449 6.063449 0 1 0 12.126898 0 6.063449 6.063449 0 1 0-12.126898 0Z"
      fill=""
    />
    <path
      d="M851.526517 759.952261m-6.063449 0a6.063449 6.063449 0 1 0 12.126898 0 6.063449 6.063449 0 1 0-12.126898 0Z"
      fill=""
    />
    <path
      d="M154.207369 224.591294a23.207385 23.207385 0 0 1-23.277009-23.277009c0-12.91017 10.366839-23.277009 23.277009-23.277009s23.277009 10.366839 23.277009 23.277009-10.367863 23.277009-23.277009 23.277009z m0-32.860576c-5.281201 0-9.584591 4.30339-9.584591 9.584591s4.30339 9.584591 9.584591 9.58459 9.584591-4.30339 9.58459-9.58459c0-5.282224-4.30339-9.584591-9.58459-9.584591z"
      fill="#FBD20A"
    />
    <path
      d="M228.5353 696.186731c-6.454573 0-11.735774-5.281201-11.735774-11.735774V533.446302c0-6.454573 5.281201-11.735774 11.735774-11.735774s11.735774 5.281201 11.735774 11.735774v151.004655c0.001024 6.454573-5.280177 11.735774-11.735774 11.735774zM775.046379 957.705473H265.309165c-26.797127 0-48.509639-21.711488-48.509639-48.509639V713.985954c0-6.454573 5.281201-11.735774 11.735774-11.735774s11.735774 5.281201 11.735774 11.735774v195.20988a24.960276 24.960276 0 0 0 25.037067 25.037068h509.737214a24.960276 24.960276 0 0 0 25.037068-25.037068V473.396452c0-6.454573 5.281201-11.735774 11.735773-11.735774 6.454573 0 11.735774 5.281201 11.735774 11.735774v435.800406c0.001024 26.797127-21.710464 48.508615-48.507591 48.508615zM811.81922 455.596205c-6.454573 0-11.735774-5.281201-11.735773-11.735773v-32.860576c0-6.454573 5.281201-11.735774 11.735773-11.735774 6.454573 0 11.735774 5.281201 11.735774 11.735774v32.860576c0 6.454573-5.281201 11.735774-11.735774 11.735773zM228.5353 517.211576c-6.454573 0-11.735774-5.281201-11.735774-11.735773V214.615579c0-26.797127 21.711488-48.509639 48.509639-48.509639h509.737214c26.797127 0 48.509639 21.711488 48.509639 48.509639V381.072712c0 6.454573-5.281201 11.735774-11.735774 11.735773-6.454573 0-11.735774-5.281201-11.735773-11.735773V214.615579a24.960276 24.960276 0 0 0-25.037068-25.037068H265.309165a24.960276 24.960276 0 0 0-25.037067 25.037068V505.474779c0 6.455597-5.281201 11.736797-11.736798 11.736797z"
      fill=""
    />
    <path
      d="M757.441695 904.11122h-474.724431c-6.454573 0-11.735774-5.281201-11.735774-11.735774V225.373542c0-6.454573 5.281201-11.735774 11.735774-11.735773h474.724431c6.454573 0 11.735774 5.281201 11.735773 11.735773v667.00088c0.001024 6.455597-5.280177 11.736797-11.735773 11.736798z m-462.988658-23.472572h451.252884V237.109316H294.453037v643.529332z"
      fill=""
    />
    <path
      d="M688.394964 439.557042H351.96058c-6.454573 0-11.735774-5.281201-11.735773-11.735774 0-6.454573 5.281201-11.735774 11.735773-11.735774h336.434384c6.454573 0 11.735774 5.281201 11.735773 11.735774 0 6.454573-5.281201 11.735774-11.735773 11.735774zM579.44435 353.687875H351.96058c-6.454573 0-11.735774-5.281201-11.735773-11.735774 0-6.454573 5.281201-11.735774 11.735773-11.735773h227.484794c6.454573 0 11.735774 5.281201 11.735774 11.735773 0 6.454573-5.281201 11.735774-11.736798 11.735774zM688.394964 492.370071H351.96058c-6.454573 0-11.735774-5.281201-11.735773-11.735774 0-6.454573 5.281201-11.735774 11.735773-11.735774h336.434384c6.454573 0 11.735774 5.281201 11.735773 11.735774 0 6.454573-5.281201 11.735774-11.735773 11.735774zM688.394964 545.182076H351.96058c-6.454573 0-11.735774-5.281201-11.735773-11.735774s5.281201-11.735774 11.735773-11.735774h336.434384c6.454573 0 11.735774 5.281201 11.735773 11.735774s-5.281201 11.735774-11.735773 11.735774zM688.394964 597.994081H351.96058c-6.454573 0-11.735774-5.281201-11.735773-11.735774s5.281201-11.735774 11.735773-11.735774h336.434384c6.454573 0 11.735774 5.281201 11.735773 11.735774s-5.281201 11.735774-11.735773 11.735774zM688.394964 650.80711H351.96058c-6.454573 0-11.735774-5.281201-11.735773-11.735774s5.281201-11.735774 11.735773-11.735774h336.434384c6.454573 0 11.735774 5.281201 11.735773 11.735774s-5.281201 11.735774-11.735773 11.735774zM688.394964 703.619115H351.96058c-6.454573 0-11.735774-5.281201-11.735773-11.735774 0-6.454573 5.281201-11.735774 11.735773-11.735774h336.434384c6.454573 0 11.735774 5.281201 11.735773 11.735774 0 6.454573-5.281201 11.735774-11.735773 11.735774zM688.394964 756.627706H351.96058c-6.454573 0-11.735774-5.281201-11.735773-11.735774 0-6.454573 5.281201-11.735774 11.735773-11.735773h336.434384c6.454573 0 11.735774 5.281201 11.735773 11.735773 0 6.454573-5.281201 11.735774-11.735773 11.735774zM579.44435 809.439711H351.96058c-6.454573 0-11.735774-5.281201-11.735773-11.735774 0-6.454573 5.281201-11.735774 11.735773-11.735773h227.484794c6.454573 0 11.735774 5.281201 11.735774 11.735773 0 6.454573-5.281201 11.735774-11.736798 11.735774z"
      fill=""
    />
    <path
      d="M620.716144 136.570944h-55.550899V119.357384c0-24.841506-20.146992-44.988497-44.988497-44.988497S475.188251 94.515878 475.188251 119.357384v17.212536h-55.550898c-35.208345 0-63.766554 28.558209-63.766555 63.766554v15.64804a24.960276 24.960276 0 0 0 25.037068 25.037068h278.53674a24.960276 24.960276 0 0 0 25.037068-25.037068V200.336474c0.001024-35.208345-28.557186-63.76553-63.76553-63.76553z"
      fill="#4EA33E"
    />
    <path
      d="M580.031037 136.570944h-46.944119V119.357384c0-24.841506-17.016974-44.988497-38.1428-44.988497-21.124802 0-38.1428 20.146992-38.1428 44.988497v17.212536h-46.944118c-29.927144 0-53.986402 28.558209-53.986402 63.766554v15.64804c0 13.887981 9.389028 25.037068 21.124802 25.037068H612.890588c11.735774 0 21.124802-11.149087 21.124802-25.037068V200.336474c0.002048-35.208345-24.252772-63.76553-53.984353-63.76553z"
      fill="#FFFFFF"
    />
    <path
      d="M590.397875 135.984258h-21.515926V118.770698c0-24.841506-29.927144-44.988497-48.705201-44.988498-18.778057 0-44.988497 20.146992-44.988497 44.988498v17.212536h-36.772842c-26.601565 0-48.314077 28.558209-48.314076 63.766554v15.648039c0 13.887981 8.411218 25.037068 18.973619 25.037068h210.466795c10.366839 0 18.973619-11.149087 18.973619-25.037068v-15.648039c0.001024-35.208345-21.514902-63.76553-48.117491-63.76553z"
      fill="#7FC344"
    />
    <path
      d="M659.44563 252.758379H380.90889c-20.342554 0-36.772841-16.430288-36.772841-36.772841V200.336474c0-41.662918 33.83941-75.502328 75.502328-75.502327h43.815124v-5.476763c0-31.296079 25.428192-56.724271 56.724271-56.724271s56.724271 25.428192 56.724271 56.724271v5.476763h43.815125c41.662918 0 75.502328 33.83941 75.502327 75.502327v15.64804c-0.001024 20.342554-16.431312 36.773865-36.773865 36.773865zM419.638377 148.306718c-28.753772 0-52.029757 23.277009-52.029757 52.029756v15.64804c0 7.432384 5.867887 13.301294 13.301294 13.301294H659.446654c7.432384 0 13.301294-5.867887 13.301294-13.301294V200.336474c0-28.753772-23.277009-52.029757-52.029756-52.029756H565.167293c-6.454573 0-11.735774-5.281201-11.735773-11.735774V119.357384c0-18.386933-14.865791-33.252724-33.252724-33.252724s-33.252724 14.865791-33.252724 33.252724v17.212536c0 6.454573-5.281201 11.735774-11.735773 11.735774h-55.551922z"
      fill=""
    />
    <path
      d="M400.078071 218.723407c-3.716704 0-6.845697-3.130017-6.845697-6.845697 0-30.318268 24.645944-54.964212 54.964212-54.964212 3.716704 0 6.845697 3.130017 6.845697 6.845697 0 3.716704-3.130017 6.845697-6.845697 6.845697-22.689299 0-41.271794 18.582495-41.271794 41.271794-0.001024 3.716704-3.130017 6.846721-6.846721 6.846721z"
      fill="#FFFFFF"
    />
    <path
      d="M437.829747 84.932312h-6.845697v-6.845698c0-3.716704-3.130017-6.845697-6.845697-6.845697s-6.845697 3.130017-6.845698 6.845697v6.845698h-6.845697c-3.716704 0-6.845697 3.130017-6.845697 6.845697 0 3.716704 3.130017 6.845697 6.845697 6.845697h6.845697v6.845697c0 3.716704 3.130017 6.845697 6.845698 6.845698s6.845697-3.130017 6.845697-6.845698V98.623706h6.845697c3.716704 0 6.845697-3.130017 6.845697-6.845697 0-3.716704-3.130017-6.845697-6.845697-6.845697z"
      fill="#FBD20A"
    />
  </svg>