<svg version="1.1" id="Layer_1" xmlns="http://www.w3.org/2000/svg" xmlns:xlink="http://www.w3.org/1999/xlink" 
	 viewBox="0 0 436.1 436.1" xml:space="preserve">
<ellipse style="opacity:0.5;fill:#B8CBCD;enable-background:new    ;" cx="221.338" cy="388.8" rx="190.7" ry="47.3"/>
<path style="fill:#F7BB83;" d="M16.038,96v264c0,8.8,7.2,16,16,16h372c8.8,0,16-7.2,16-16V92"/>
<g>
	<path style="fill:#6E4123;" d="M404.038,388h-372c-15.4,0-28-12.6-28-28V96c0-6.6,5.4-12,12-12s12,5.4,12,12v264c0,2.2,1.8,4,4,4
		h372c2.2,0,4-1.8,4-4V92c0-6.6,5.4-12,12-12s12,5.4,12,12v268C432.038,375.4,419.438,388,404.038,388z"/>
	<path style="fill:#6E4123;" d="M368.038,300h-52c-4.4,0-8-3.6-8-8s3.6-8,8-8h52c4.4,0,8,3.6,8,8S372.438,300,368.038,300z"/>
	<path style="fill:#6E4123;" d="M368.038,268h-52c-4.4,0-8-3.6-8-8s3.6-8,8-8h52c4.4,0,8,3.6,8,8S372.438,268,368.038,268z"/>
	<path style="fill:#6E4123;" d="M284.038,268h-32c-4.4,0-8-3.6-8-8s3.6-8,8-8h32c4.4,0,8,3.6,8,8S288.438,268,284.038,268z"/>
	<path style="fill:#6E4123;" d="M368.038,332h-92c-4.4,0-8-3.6-8-8s3.6-8,8-8h92c4.4,0,8,3.6,8,8S372.438,332,368.038,332z"/>
</g>
<rect x="68.038" y="260" style="fill:#FFFFFF;" width="108" height="64"/>
<path style="fill:#6E4123;" d="M176.038,332h-108c-4.4,0-8-3.6-8-8v-64c0-4.4,3.6-8,8-8h108c4.4,0,8,3.6,8,8v64
	C184.038,328.4,180.438,332,176.038,332z M76.038,316h92v-48h-92V316z"/>
<path style="fill:#F7BB83;" d="M420.038,92l-27.1-72.5c-1.5-4.1-6.4-7.5-10.8-7.5h-327.9c-4.4,0-9.2,3.4-10.7,7.5L16.038,96"/>
<g>
	<path style="fill:#6E4123;" d="M16.038,108c-1.3,0-2.7-0.2-4.1-0.7c-6.2-2.2-9.5-9.1-7.2-15.4l27.5-76.5c3.3-9,12.5-15.4,22-15.4
		h327.9c9.4,0,18.9,6.6,22.1,15.4l27.1,72.4c2.3,6.2-0.8,13.1-7,15.4c-6.2,2.3-13.1-0.8-15.4-7l-26.9-72.1c-0.1,0-0.1-0.1-0.2-0.1
		h-327.1c0,0-0.1,0-0.1,0.1l-27.3,76C25.538,105,20.938,108,16.038,108z"/>
	<rect x="12.038" y="88" style="fill:#6E4123;" width="404" height="16"/>
</g>
<path style="fill:#FFFFFF;" d="M204.038,184c-8.8,0-16-7.2-16-16V24c0-4.4,3.6-8,8-8h40c4.4,0,8,3.6,8,8v144c0,8.8-7.2,16-16,16
	H204.038z"/>
<path style="fill:#6E4123;" d="M236.038,24v144c0,4.4-3.6,8-8,8h-24c-4.4,0-8-3.6-8-8V24H236.038 M236.038,8h-40
	c-8.8,0-16,7.2-16,16v144c0,13.2,10.8,24,24,24h24c13.2,0,24-10.8,24-24V24C252.038,15.2,244.838,8,236.038,8L236.038,8z"/>
</svg>