<svg version="1.1" id="Layer_1" xmlns="http://www.w3.org/2000/svg" xmlns:xlink="http://www.w3.org/1999/xlink" 
	 viewBox="0 0 512 512" xml:space="preserve">
<g>
	<path style="fill:#E5563C;" d="M419.006,439.315H290.739V182.781h94.063c18.891,0,34.205,15.314,34.205,34.205V439.315z"/>
	<path style="fill:#E5563C;" d="M504.518,439.315H290.739V319.599h179.574c18.891,0,34.205,15.314,34.205,34.205V439.315z"/>
	<rect x="8.551" y="319.599" style="fill:#E5563C;" width="282.188" height="119.716"/>
</g>
<rect x="8.551" y="319.599" style="fill:#CF442B;" width="25.653" height="119.716"/>
<circle style="fill:#74757B;" cx="419.006" cy="422.213" r="51.307"/>
<circle style="fill:#D7D8D9;" cx="419.006" cy="422.213" r="25.653"/>
<circle style="fill:#74757B;" cx="94.063" cy="422.213" r="51.307"/>
<g>
	<circle style="fill:#D7D8D9;" cx="94.063" cy="422.213" r="25.653"/>
	<circle style="fill:#D7D8D9;" cx="94.063" cy="422.213" r="25.653"/>
	<path style="fill:#D7D8D9;" d="M393.353,293.946h-76.96v-85.511h59.858c9.446,0,17.102,7.656,17.102,17.102V293.946z"/>
</g>
<g>
	<path style="fill:#9B9DA1;" d="M384.241,210.42l-67.848,67.848v15.677h14.252l62.709-62.709v-5.7
		C393.353,218.979,389.658,213.29,384.241,210.42z"/>
	<polygon style="fill:#9B9DA1;" points="316.392,208.434 316.392,264.73 372.688,208.434 	"/>
	<polygon style="fill:#9B9DA1;" points="393.353,293.946 393.353,263.661 363.068,293.946 	"/>
</g>
<rect x="8.551" y="37.411" style="fill:#FDDD85;" width="282.188" height="282.188"/>
<rect x="8.551" y="37.411" style="fill:#FDD042;" width="25.653" height="282.188"/>
<polygon style="fill:#F2C127;" points="196.676,148.576 153.921,122.923 111.165,148.576 111.165,37.411 196.676,37.411 "/>
<polygon style="fill:#E1A527;" points="136.818,37.411 111.165,37.411 111.165,148.576 136.818,133.184 "/>
<rect x="59.858" y="182.781" style="fill:#EBEBEC;" width="188.125" height="34.205"/>
<rect x="59.858" y="182.781" style="fill:#D7D8D9;" width="25.653" height="34.205"/>
<path d="M470.313,312.117h-43.825v-95.132c0-23.281-18.406-41.687-41.687-41.687h-86.58v-52.376c0-4.427-3.588-8.017-8.017-8.017
	s-8.017,3.589-8.017,8.017v189.194H16.033V45.962h86.58v102.614c0,6.11,7.158,10.023,12.409,6.874l38.764-23.179l38.431,23.179
	c5.255,3.152,11.941-0.771,11.941-6.874V45.962h78.029v42.756c0,4.427,3.588,8.017,8.017,8.017s8.017-3.589,8.017-8.017V37.411
	c0-4.427-3.054-7.482-7.482-7.482H8.551C4.124,29.929,0,32.984,0,37.411v401.904c0,4.427,4.124,8.551,8.551,8.551h31.786
	c9.476,19.24,29.99,34.205,53.726,34.205s44.25-14.965,53.726-34.205h217.491c9.476,19.24,29.99,34.205,53.726,34.205
	s44.25-14.965,53.726-34.205h31.787c4.428,0,7.482-4.124,7.482-8.551v-85.511C512,330.523,493.594,312.117,470.313,312.117z
	 M188.125,45.962v88.454l-30.347-18.369c-2.514-1.508-5.869-1.508-8.383,0l-30.748,18.369V45.962H188.125z M384.802,191.332
	c14.441,0,25.653,11.214,25.653,25.653v95.132H298.221V191.332H384.802z M94.063,465.503c-23.871,0-43.29-19.42-43.29-43.29
	s19.42-43.29,43.29-43.29s43.29,19.42,43.29,43.29S117.933,465.503,94.063,465.503z M94.063,362.889
	c-32.711,0-59.324,26.879-59.324,59.591c0,3.089,0.238,6.146,0.696,9.353H16.033V328.15h266.154v103.683H152.69
	c0.457-3.207,0.696-6.264,0.696-9.353C153.386,389.769,126.774,362.889,94.063,362.889z M419.006,465.503
	c-23.871,0-43.29-19.42-43.29-43.29s19.42-43.29,43.29-43.29c23.871,0,43.29,19.42,43.29,43.29S442.877,465.503,419.006,465.503z
	 M495.967,431.833h-18.333c0.458-3.207,0.696-6.264,0.696-9.353c0-32.711-26.612-59.457-59.324-59.457s-59.324,26.812-59.324,59.525
	c0,3.089,0.238,6.08,0.696,9.287h-62.157V328.151h172.092c14.441,0,25.653,11.214,25.653,25.653V431.833z"/>
<path d="M419.006,388.543c-18.566,0-33.67,15.105-33.67,33.67s15.105,33.67,33.67,33.67c18.566,0,33.67-15.105,33.67-33.67
	S437.572,388.543,419.006,388.543z M419.006,439.85c-9.725,0-17.637-7.912-17.637-17.637s7.912-17.637,17.637-17.637
	c9.725,0,17.637,7.912,17.637,17.637S428.731,439.85,419.006,439.85z"/>
<path d="M94.063,388.543c-18.566,0-33.67,15.105-33.67,33.67s15.105,33.67,33.67,33.67s33.67-15.105,33.67-33.67
	S112.628,388.543,94.063,388.543z M94.063,439.85c-9.725,0-17.637-7.912-17.637-17.637s7.912-17.637,17.637-17.637
	s17.637,7.912,17.637,17.637S103.787,439.85,94.063,439.85z"/>
<path d="M333.495,337.77h-17.102c-4.428,0-8.017,3.589-8.017,8.017c0,4.427,3.588,8.017,8.017,8.017h17.102
	c4.428,0,8.017-3.589,8.017-8.017C341.511,341.36,337.923,337.77,333.495,337.77z"/>
<path d="M316.392,302.497h76.96c4.428,0,7.482-4.124,7.482-8.551v-68.409c0-13.851-10.734-24.585-24.585-24.585h-59.858
	c-4.428,0-8.551,3.055-8.551,7.482v85.511C307.841,298.373,311.964,302.497,316.392,302.497z M323.875,216.985h52.376
	c5.01,0,8.551,3.541,8.551,8.551v60.927h-60.927V216.985z"/>
<path d="M34.205,268.292v25.653c0,4.427,3.589,8.017,8.017,8.017s8.017-3.589,8.017-8.017v-25.653c0-4.427-3.589-8.017-8.017-8.017
	S34.205,263.865,34.205,268.292z"/>
<path d="M59.858,268.292v25.653c0,4.427,3.589,8.017,8.017,8.017s8.017-3.589,8.017-8.017v-25.653c0-4.427-3.589-8.017-8.017-8.017
	S59.858,263.865,59.858,268.292z"/>
<path d="M222.33,268.292v25.653c0,4.427,3.589,8.017,8.017,8.017s8.017-3.589,8.017-8.017v-25.653c0-4.427-3.589-8.017-8.017-8.017
	S222.33,263.865,222.33,268.292z"/>
<path d="M256,301.962c4.428,0,8.017-3.589,8.017-8.017v-25.653c0-4.427-3.588-8.017-8.017-8.017c-4.427,0-8.017,3.589-8.017,8.017
	v25.653C247.983,298.373,251.573,301.962,256,301.962z"/>
<path d="M102.614,268.292v25.653c0,4.427,3.589,8.017,8.017,8.017c4.427,0,8.017-3.589,8.017-8.017v-25.653
	c0-4.427-3.589-8.017-8.017-8.017C106.203,260.276,102.614,263.865,102.614,268.292z"/>
<path d="M128.267,268.292v25.653c0,4.427,3.589,8.017,8.017,8.017c4.427,0,8.017-3.589,8.017-8.017v-25.653
	c0-4.427-3.589-8.017-8.017-8.017C131.857,260.276,128.267,263.865,128.267,268.292z"/>
<path d="M153.921,268.292v25.653c0,4.427,3.589,8.017,8.017,8.017s8.017-3.589,8.017-8.017v-25.653c0-4.427-3.589-8.017-8.017-8.017
	S153.921,263.865,153.921,268.292z"/>
<path d="M179.574,268.292v25.653c0,4.427,3.589,8.017,8.017,8.017s8.017-3.589,8.017-8.017v-25.653c0-4.427-3.589-8.017-8.017-8.017
	S179.574,263.865,179.574,268.292z"/>
<path d="M255.466,183.315c0-4.427-3.589-8.017-8.017-8.017H59.324c-4.427,0-8.017,3.589-8.017,8.017v34.205
	c0,4.427,3.589,8.017,8.017,8.017h188.125c4.427,0,8.017-3.589,8.017-8.017V183.315z M239.432,209.503H67.34v-18.171h172.092
	V209.503z"/>
</svg>