<svg width="123px" height="38px" viewBox="0 0 123 38" version="1.1" xmlns="http://www.w3.org/2000/svg" xmlns:xlink="http://www.w3.org/1999/xlink">
    <!-- Generator: Sketch 52.5 (67469) - http://www.bohemiancoding.com/sketch -->
    <title>Disponível na App Store</title>
    <desc>Created with Sketch.</desc>
    <g id="symbols" stroke="none" stroke-width="1" fill="none" fill-rule="evenodd">
        <g id="footer" transform="translate(-1087.000000, -308.000000)" fill="#757D8C">
            <g transform="translate(17.000000, 0.000000)" id="btns">
                <g transform="translate(1009.000000, 221.000000)">
                    <g id="btn-iOS" transform="translate(0.000000, 77.000000)">
                        <g id="app-store" transform="translate(61.000000, 5.000000)">
                            <g id="ico-appstore" transform="translate(0.000000, 10.000000)">
                                <path d="M18.7381154,13.5470443 C18.7079234,10.3288346 21.4855898,8.76316514 21.6126045,8.69027364 C20.0394959,6.49054795 17.6012295,6.18999533 16.7444006,6.166031 C14.6965484,5.95933866 12.7101214,7.34128163 11.6669348,7.34128163 C10.6029262,7.34128163 8.9965022,6.18600127 7.2651457,6.21995074 C5.03718242,6.25290169 2.95289155,7.49006017 1.80975899,9.41120053 C-0.549383426,13.3283698 1.2100829,19.0848013 3.4703204,22.2510882 C4.60095971,23.8027785 5.92212111,25.5332027 7.6513954,25.4722934 C9.34318994,25.4063915 9.97514027,24.4378332 12.0167459,24.4378332 C14.0396116,24.4378332 14.6330411,25.4722934 16.3966718,25.4323529 C18.2123578,25.4063915 19.3554903,23.87567 20.4465677,22.3100005 C21.7531536,20.5346432 22.2778702,18.7822516 22.2986923,18.6923854 C22.2570481,18.6794047 18.773513,17.4043027 18.7381154,13.5470443" id="Fill-2"></path>
                                <path d="M15.4065816,4.08313142 C16.3165068,2.99175595 16.9390872,1.50696607 16.7662638,0.000208896908 C15.4492669,0.0561256642 13.8022398,0.873908385 12.8537938,1.94131953 C12.0146637,2.88191944 11.2650685,4.42362459 11.4587139,5.87346649 C12.9381232,5.97930894 14.4570944,5.15753216 15.4065816,4.08313142" id="Fill-3"></path>
                            </g>
                            <path d="M42.376065,38.2413485 L40.0117171,38.2413485 L38.7165833,34.3381584 L34.2148482,34.3381584 L32.9811395,38.2413485 L30.6792578,38.2413485 L35.1403899,24.9531281 L37.895152,24.9531281 L42.376065,38.2413485 L42.376065,38.2413485 Z M38.3261692,32.7005959 L37.1549268,29.2317593 C37.0310354,28.8762885 36.797828,28.041531 36.4563458,26.727487 L36.4147016,26.727487 C36.2772758,27.2926457 36.0576028,28.1274032 35.7567237,29.2317593 L34.6052623,32.7005959 L38.3261692,32.7005959 L38.3261692,32.7005959 Z" id="Fill-4"></path>
                            <path d="M53.8261305,33.3326551 C53.8261305,34.9622295 53.3649213,36.2503121 52.4414617,37.1959046 C51.6148249,38.0376517 50.5872549,38.4580259 49.3618751,38.4580259 C48.0386315,38.4580259 47.0870621,38.0056992 46.5092492,37.0980503 L46.5092492,42.1255668 L44.2896148,42.1255668 L44.2896148,31.8089232 C44.2896148,30.7854467 44.261505,29.7360088 44.2073675,28.659611 L46.1594382,28.659611 L46.2833296,30.1793488 L46.3249738,30.1793488 C47.0651989,29.0340536 48.1885505,28.4619053 49.6960696,28.4619053 C50.8745997,28.4619053 51.8584433,28.9082409 52.6455182,29.8019107 C53.4315519,30.6975775 53.8261305,31.8738266 53.8261305,33.3326551 L53.8261305,33.3326551 Z M51.5648519,33.4105392 C51.5648519,32.4779274 51.34622,31.7090718 50.9068739,31.1039725 C50.4269248,30.4739104 49.7824812,30.1573815 48.9745843,30.1573815 C48.4269634,30.1573815 47.9293155,30.33312 47.484764,30.6806027 C47.0391713,31.029084 46.7476621,31.4854048 46.6112774,32.051562 C46.5425646,32.3141711 46.5082081,32.5288516 46.5082081,32.6985989 L46.5082081,34.2982179 C46.5082081,34.9931834 46.7310044,35.581308 47.1765971,36.0625916 C47.6221898,36.5418781 48.2010438,36.7825199 48.9131591,36.7825199 C49.7491659,36.7825199 50.3998561,36.4719822 50.8652298,35.8558992 C51.3316445,35.2378193 51.5648519,34.4230321 51.5648519,33.4105392 L51.5648519,33.4105392 Z" id="Fill-5"></path>
                            <path d="M65.316799,33.3326551 C65.316799,34.9622295 64.8555898,36.2503121 63.9321302,37.1959046 C63.1044523,38.0376517 62.0779234,38.4580259 60.8515025,38.4580259 C59.5293,38.4580259 58.5777306,38.0056992 57.9988766,37.0980503 L57.9988766,42.1255668 L55.7792422,42.1255668 L55.7792422,31.8089232 C55.7792422,30.7854467 55.7511324,29.7360088 55.696995,28.659611 L57.6490656,28.659611 L57.772957,30.1793488 L57.8146012,30.1793488 C58.5537853,29.0340536 59.6771368,28.4619053 61.185697,28.4619053 C62.363186,28.4619053 63.3480707,28.9082409 64.1361867,29.8019107 C64.9211793,30.6975775 65.316799,31.8738266 65.316799,33.3326551 L65.316799,33.3326551 Z M63.0544793,33.4105392 C63.0544793,32.4779274 62.8348063,31.7090718 62.3954602,31.1039725 C61.9165522,30.4739104 61.2731498,30.1573815 60.4652528,30.1573815 C59.9176319,30.1573815 59.4199841,30.33312 58.9733503,30.6806027 C58.5287987,31.029084 58.2372895,31.4854048 58.1009049,32.051562 C58.0332331,32.3141711 57.9967944,32.5288516 57.9967944,32.6985989 L57.9967944,34.2982179 C57.9967944,34.9931834 58.2206319,35.581308 58.6641423,36.0625916 C59.109735,36.5408796 59.688589,36.7825199 60.4027865,36.7825199 C61.2398344,36.7825199 61.8905246,36.4719822 62.3548572,35.8558992 C62.8212719,35.2378193 63.0544793,34.4230321 63.0544793,33.4105392 L63.0544793,33.4105392 Z" id="Fill-6"></path>
                            <path d="M83.1811126,34.9896984 C83.1811126,36.1417528 82.7270392,37.0790691 81.8211917,37.8026651 C80.8256791,38.5924126 79.4358699,38.9883041 77.6540632,38.9883041 C76.0079037,38.9883041 74.6882172,38.7074145 73.6927046,38.1446176 L74.259434,36.3361365 C75.3342658,36.8989334 76.5148564,37.1808407 77.8000564,37.1808407 C78.7242967,37.1808407 79.4427672,36.9956164 79.9554677,36.628221 C80.4704673,36.2587901 80.7291166,35.7672333 80.7291166,35.1525329 C80.7291166,34.6019486 80.5152998,34.1399056 80.0922644,33.7643685 C79.6680795,33.3908667 78.9668524,33.0407725 77.9828352,32.7212097 C75.3043774,31.8368146 73.963999,30.54228 73.963999,28.8416767 C73.963999,27.730331 74.4376147,26.820493 75.3813975,26.1091095 C76.3263298,25.3987439 77.5793422,25.043561 79.1381357,25.043561 C80.530244,25.043561 81.6901427,25.2582991 82.6109344,25.6867575 L81.9959237,27.4555477 C81.129161,27.0403196 80.1508916,26.8327055 79.0565175,26.8327055 C78.1920538,26.8327055 77.5126682,27.020983 77.0287065,27.3955024 C76.6206153,27.730331 76.4125463,28.138435 76.4125463,28.6228678 C76.4125463,29.1571686 76.6482046,29.6008928 77.1183716,29.9479339 C77.5253133,30.2695321 78.2679243,30.6186086 79.3416065,30.9931281 C80.6589939,31.4633128 81.6257677,32.010844 82.2465262,32.6397924 C82.8707333,33.2687408 83.1811126,34.0533998 83.1811126,34.9896984" id="Fill-7"></path>
                            <path d="M91.3050015,30.6501578 L88.6035526,30.6501578 L88.6035526,35.3916962 C88.6035526,36.5976895 89.0794675,37.1991596 90.0335962,37.1991596 C90.4715758,37.1991596 90.8348344,37.1665927 91.1222226,37.0984057 L91.1900462,38.7460877 C90.7072341,38.9058691 90.0715314,38.9862687 89.2852374,38.9862687 C88.3161645,38.9862687 87.5609083,38.723698 87.0137213,38.2016097 C86.4688333,37.6785038 86.1963893,36.8022504 86.1963893,35.5687787 L86.1963893,30.646087 L84.5881651,30.646087 L84.5881651,29.0177416 L86.1963893,29.0177416 L86.1963893,27.2296147 L88.6035526,26.5864183 L88.6035526,29.0177416 L91.3050015,29.0177416 L91.3050015,30.6501578" id="Fill-8"></path>
                            <path d="M103.469568,33.8244137 C103.469568,35.3255446 102.985606,36.5579986 102.016534,37.5217755 C101.003778,38.5130308 99.6565019,39.0086584 97.9770054,39.0086584 C96.3561361,39.0086584 95.0674875,38.5333851 94.1064614,37.5828385 C93.1454354,36.6322918 92.6649223,35.4334225 92.6649223,33.9872482 C92.6649223,32.4739047 93.1626787,31.2343268 94.151294,30.2705498 C95.1422084,29.3067729 96.4779886,28.8233578 98.1574851,28.8233578 C99.7772049,28.8233578 101.076199,29.3006666 102.061366,30.2501955 C103.0017,31.1732638 103.469568,32.3629737 103.469568,33.8244137 L103.469568,33.8244137 Z M100.929057,33.8742818 C100.929057,32.9797095 100.710642,32.2123517 100.272662,31.570173 C99.7588121,30.7946735 99.0219488,30.4079415 98.0701191,30.4079415 C97.0895507,30.4079415 96.3342946,30.7946735 95.8227436,31.570173 C95.3824649,32.2123517 95.1651995,32.9929398 95.1651995,33.9149904 C95.1651995,34.8105804 95.3824649,35.5799736 95.8227436,36.2190992 C96.3526874,36.9956164 97.0918498,37.3833662 98.0505767,37.3833662 C98.9863126,37.3833662 99.7208768,36.986457 100.25312,36.2007803 C100.702595,35.5433358 100.929057,34.7708895 100.929057,33.8742818 L100.929057,33.8742818 Z" id="Fill-9"></path>
                            <path d="M111.439417,30.9300297 C111.196861,30.8903388 110.937063,30.8710022 110.666918,30.8710022 C109.804753,30.8710022 109.138013,31.1569804 108.668995,31.735043 C108.260904,32.2439009 108.057433,32.8870974 108.057433,33.6636146 L108.057433,38.7878141 L105.606587,38.7878141 L105.606587,32.0973498 C105.606587,30.9727738 105.582446,29.9458984 105.535314,29.0228301 L107.670034,29.0228301 L107.759699,30.8913565 L107.827522,30.8913565 C108.087321,30.2491778 108.494263,29.7311604 109.052946,29.3444284 C109.600133,28.9943341 110.188704,28.8203047 110.824406,28.8203047 C111.050868,28.8203047 111.255489,28.8355704 111.437118,28.8599956 L111.439417,30.9300297" id="Fill-10"></path>
                            <path d="M122.400402,33.4427702 C122.400402,33.8315377 122.371663,34.1592422 122.310737,34.4269015 L114.959347,34.4269015 C114.985787,35.3916962 115.343298,36.1305579 116.024983,36.6394158 C116.644592,37.0933171 117.446979,37.3212855 118.429847,37.3212855 C119.518473,37.3212855 120.511687,37.1686281 121.404889,36.8592425 L121.78884,38.365462 C120.745046,38.7674598 119.511576,38.9689675 118.090729,38.9689675 C116.380195,38.9689675 115.037517,38.5232079 114.060397,37.6337243 C113.086726,36.7432229 112.597017,35.5453713 112.597017,34.0472935 C112.597017,32.5756763 113.04994,31.3493287 113.960386,30.3713037 C114.912216,29.3271272 116.198565,28.8050389 117.817135,28.8050389 C119.406967,28.8050389 120.610548,29.3271272 121.426731,30.3713037 C122.075079,31.1987067 122.400402,32.2245643 122.400402,33.4427702 L122.400402,33.4427702 Z M120.063361,32.8799733 C120.080605,32.2357592 119.919667,31.6821217 119.587447,31.211937 C119.163262,30.6074138 118.510316,30.3061699 117.635506,30.3061699 C116.833118,30.3061699 116.181322,30.6002898 115.684715,31.190565 C115.276624,31.659732 115.034068,32.2245643 114.959347,32.8779379 L120.063361,32.8799733 L120.063361,32.8799733 Z" id="Fill-11"></path>
                            <text id="Disponível-na" font-family="OpenSans-Regular, Open Sans" font-size="14" font-weight="normal" line-spacing="22">
                                <tspan x="29" y="16">Disponível na</tspan>
                            </text>
                        </g>
                    </g>
                </g>
            </g>
        </g>
    </g>
</svg>