<svg xmlns="http://www.w3.org/2000/svg" width="139" height="38" viewBox="0 0 139 38">
  <g fill="#757D8C" fill-rule="evenodd" transform="translate(0 -4)">
    <path fill-rule="nonzero" d="M4.86996205,8.49007374 L18.992852,16.6988088 L14.9751333,20.7419172 L2.31323197,8.12251843 C2.55673008,8.12251843 2.92197723,8 3.16547533,8 C3.77422059,8 4.38296585,8.12251843 4.86996205,8.49007374 Z M0,31.7685763 L0,11.1854793 C0,10.2053318 0.486996205,9.34770278 1.21749051,8.73511061 L14.0011409,21.5995462 L1.33923956,34.3414634 C0.486996205,33.7288712 5.406744e-16,32.7487238 0,31.7685763 Z M4.86996205,34.5865003 C4.13946774,34.9540556 3.28722438,35.076574 2.55673008,34.9540556 L14.9751333,22.5796937 L18.8711029,26.5002836 L4.86996205,34.5865003 Z M22.5235745,24.2949518 L19.9668444,25.765173 L15.7056276,21.5995462 L19.9668444,17.311401 L22.4018254,18.7816222 C23.3758178,19.3942144 23.9845631,20.3743619 23.9845631,21.5995462 C24.1063122,22.5796937 23.4975669,23.6823596 22.5235745,24.2949518 Z"></path>
    <g transform="translate(29)">
      <text font-family="OpenSans-Regular, Open Sans" font-size="14" font-weight="normal" line-spacing="22">
        <tspan x="0" y="15">Disponível na</tspan>
      </text>
      <path d="M44.4020932,40.6390533 C43.721617,40.0946746 43.177236,39.1420118 42.9050456,38.5976331 L45.0825694,37.6449704 C45.2186647,37.9171598 45.4908552,38.3254438 45.7630457,38.7337278 C46.3074266,39.2781065 47.1239981,39.8224852 47.9405695,39.8224852 C48.757141,39.8224852 49.7098077,39.4142012 50.2541886,38.7337278 C50.6624744,38.0532544 50.9346649,37.3727811 50.9346649,36.4201183 L50.9346649,35.6035503 C49.301522,37.6449704 45.8991409,37.3727811 43.9938075,35.1952663 C41.9523789,33.0177515 41.9523789,29.3431953 43.9938075,27.1656805 C46.0352361,25.1242604 49.0293315,24.852071 50.7985696,26.7573964 C50.7985696,26.7573964 50.7985696,26.7573964 50.7985696,26.7573964 L50.7985696,25.8047337 L53.1121887,25.8047337 L53.1121887,36.0118343 C53.1121887,38.5976331 52.159522,40.0946746 50.9346649,41.0473373 C50.1180934,41.7278107 48.8932362,42 47.8044743,42 C46.5796171,41.8639053 45.3547599,41.4556213 44.4020932,40.6390533 Z M101.426,41.183432 L103.739619,35.739645 L99.6567616,26.3491124 L101.970381,26.3491124 L104.828381,33.0177515 L107.686381,26.3491124 L110,26.3491124 L103.739619,41.183432 L101.426,41.183432 Z M90.4022851,36.0118343 C89.7218089,35.3313609 89.4496184,34.3786982 89.4496184,33.4260355 C89.4496184,32.6094675 89.7218089,31.7928994 90.2661899,31.2485207 C91.2188566,30.295858 92.579809,29.887574 94.0768567,29.887574 C95.0295234,29.887574 95.8460948,30.0236686 96.526571,30.4319527 C96.526571,28.7988166 95.1656186,28.1183432 94.0768567,28.1183432 C93.12419,28.1183432 92.1715233,28.6627219 91.7632375,29.6153846 L89.7218089,28.7988166 C90.1300946,27.8461538 91.2188566,26.0769231 93.9407614,26.0769231 C95.3017138,26.0769231 96.6626663,26.4852071 97.4792377,27.4378698 C98.2958092,28.3905325 98.5679997,29.4792899 98.5679997,30.9763314 L98.5679997,36.6923077 L96.2543805,36.6923077 L96.2543805,35.739645 C95.98219,36.147929 95.4378091,36.4201183 95.0295234,36.6923077 C94.4851424,36.964497 93.8046662,37.1005917 93.12419,37.1005917 C92.3076185,36.964497 91.0827613,36.6923077 90.4022851,36.0118343 Z M17.863521,31.112426 C17.863521,28.3905325 19.9049496,25.3964497 23.5795212,25.3964497 C27.1179975,25.3964497 29.2955213,28.3905325 29.2955213,31.112426 C29.2955213,33.8343195 27.2540927,36.8284024 23.5795212,36.8284024 C19.9049496,36.8284024 17.863521,33.8343195 17.863521,31.112426 Z M30.1120928,31.112426 C30.1120928,28.3905325 32.1535214,25.3964497 35.828093,25.3964497 C39.3665693,25.3964497 41.5440931,28.3905325 41.5440931,31.112426 C41.5440931,33.8343195 39.5026645,36.8284024 35.828093,36.8284024 C32.2896167,36.8284024 30.1120928,33.8343195 30.1120928,31.112426 Z M2.48475861,34.1065089 C-0.917622443,30.704142 -0.781527201,25.1242604 2.62085386,21.5857988 C4.39009201,19.816568 6.56761588,19 8.881235,19 C11.0587589,19 13.2362828,19.816568 14.8694257,21.4497041 L13.2362828,23.2189349 C10.7865684,20.7692308 6.83980637,20.9053254 4.52618725,23.3550296 C2.07647289,25.9408284 2.07647289,29.887574 4.52618725,32.4733728 C6.97590161,35.0591716 11.0587589,35.1952663 13.5084732,32.6094675 C14.3250447,31.7928994 14.5972352,30.704142 14.7333304,29.6153846 L9.01733024,29.6153846 L9.01733024,27.1656805 L17.0469495,27.1656805 C17.1830448,27.7100592 17.1830448,28.3905325 17.1830448,29.0710059 C17.1830448,31.112426 16.3664733,33.1538462 15.0055209,34.5147929 C13.5084732,36.0118343 11.3309494,36.8284024 9.15342548,36.8284024 C6.70371112,36.6923077 4.25399676,35.8757396 2.48475861,34.1065089 Z M60.0530461,35.0591716 C58.0116175,32.8816568 58.0116175,29.2071006 60.0530461,26.8934911 C62.0944747,24.7159763 65.4968558,24.7159763 67.4021892,26.8934911 C68.0826654,27.5739645 68.4909511,28.5266272 68.8992368,29.4792899 L61.4139985,32.6094675 C61.8222842,33.5621302 62.7749509,34.3786982 64.1359034,34.3786982 C65.3607605,34.3786982 66.177332,33.9704142 66.9939034,32.7455621 L69.0353321,34.1065089 C68.7631416,34.3786982 68.4909511,34.6508876 68.3548559,34.9230769 C66.0412367,37.2366864 62.0944747,37.2366864 60.0530461,35.0591716 Z M74.2069513,36.6923077 L74.2069513,21.5857988 L79.10638,21.5857988 C81.9643801,21.5857988 84.2779992,23.6272189 84.2779992,26.0769231 C84.2779992,28.5266272 82.2365706,30.5680473 79.650761,30.5680473 L76.6566656,30.5680473 L76.6566656,36.556213 L74.2069513,36.556213 L74.2069513,36.6923077 Z M85.6389516,36.6923077 L85.6389516,21.5857988 L87.9525708,21.5857988 L87.9525708,36.6923077 L85.6389516,36.6923077 Z M54.8814269,36.4201183 L54.8814269,19.5443787 L57.3311412,19.5443787 L57.3311412,36.4201183 L54.8814269,36.4201183 Z M96.3904758,32.2011834 C95.8460948,31.7928994 95.0295234,31.6568047 94.2129519,31.6568047 C92.579809,31.6568047 91.6271423,32.4733728 91.6271423,33.4260355 C91.6271423,34.3786982 92.579809,34.9230769 93.5324757,34.9230769 C94.8934281,34.9230769 96.3904758,33.8343195 96.3904758,32.2011834 Z M26.7097117,31.112426 C26.7097117,29.4792899 25.6209498,27.7100592 23.5795212,27.7100592 C21.5380925,27.7100592 20.4493306,29.4792899 20.4493306,31.112426 C20.4493306,32.7455621 21.5380925,34.5147929 23.5795212,34.5147929 C25.4848546,34.5147929 26.7097117,32.7455621 26.7097117,31.112426 Z M38.9582835,31.112426 C38.9582835,29.4792899 37.8695216,27.7100592 35.828093,27.7100592 C33.7866643,27.7100592 32.6979024,29.4792899 32.6979024,31.112426 C32.6979024,32.7455621 33.7866643,34.5147929 35.828093,34.5147929 C37.8695216,34.5147929 38.9582835,32.7455621 38.9582835,31.112426 Z M51.0707601,32.0650888 C51.0707601,31.9289941 51.0707601,31.7928994 51.2068553,31.6568047 C51.2068553,31.6568047 51.2068553,31.6568047 51.2068553,31.6568047 C51.2068553,31.5207101 51.2068553,31.2485207 51.2068553,31.112426 C51.2068553,30.9763314 51.2068553,30.704142 51.2068553,30.5680473 C51.2068553,30.5680473 51.2068553,30.4319527 51.2068553,30.4319527 C51.2068553,30.295858 51.0707601,30.0236686 51.0707601,29.887574 C50.6624744,28.5266272 49.4376172,27.5739645 48.21276,27.5739645 C46.5796171,27.5739645 45.2186647,29.2071006 45.2186647,30.9763314 C45.2186647,32.8816568 46.5796171,34.3786982 48.3488553,34.3786982 C49.4376172,34.5147929 50.5263791,33.5621302 51.0707601,32.0650888 Z M61.0057128,30.8402367 L66.0412367,28.6627219 C65.4968558,27.7100592 64.6802843,27.4378698 63.9998081,27.4378698 C61.9583795,27.5739645 60.7335223,29.7514793 61.0057128,30.8402367 Z M81.8282849,26.2130178 C81.8282849,24.852071 80.7395229,23.8994083 79.2424752,23.8994083 L76.5205704,23.8994083 L76.5205704,28.6627219 L79.3785705,28.6627219 C80.7395229,28.6627219 81.8282849,27.5739645 81.8282849,26.2130178 Z"></path>
    </g>
  </g>
</svg>