<svg width="146" height="150" viewBox="0 0 146 150" fill="none" xmlns="http://www.w3.org/2000/svg">
<path d="M82 74.46C82 74.46 89.66 72.2701 90.91 71.6401C92.16 71.0101 98.25 64.45 98.25 63.52C98.25 62.59 96.06 63.0501 94.35 63.9801C92.64 64.9101 87.35 70.7001 87.35 70.7001L82 74.46Z" fill="white" stroke="#263238" stroke-linecap="round" stroke-linejoin="round"/>
<path d="M77.1501 76.33C77.1501 76.33 87.3101 71.8 88.4101 71.02C89.5101 70.24 94.0301 65.55 94.3501 64.02C94.6701 62.49 91.2201 62.93 90.2801 63.4C89.3401 63.87 83.7201 69.49 83.0901 70.12C82.4601 70.75 76.0901 76.06 76.0901 76.06C76.0901 76.06 74.0001 77.11 77.1501 76.33Z" fill="white" stroke="#263238" stroke-linecap="round" stroke-linejoin="round"/>
<path d="M40.43 78.73C40.43 78.73 50.43 68.33 52.32 67.21C54.21 66.09 76.47 66.1 76.47 66.1C76.47 66.1 87.24 63.1 89.1 62.75C90.96 62.4 90.59 66.1 87.99 67.59C85.39 69.08 77.58 76.13 74.61 77.99C71.64 79.85 52.69 82.45 52.69 82.45L43.4 93.59L33.74 87.65L40.43 78.73Z" fill="white" stroke="#263238" stroke-linecap="round" stroke-linejoin="round"/>
<path d="M76.4701 66.1001C76.4701 66.1001 81.2201 65.5501 80.7501 66.9501C80.2801 68.3501 78.5601 71.3301 75.2801 71.4901L61.8401 72.1101" fill="white"/>
<path d="M76.4701 66.1001C76.4701 66.1001 81.2201 65.5501 80.7501 66.9501C80.2801 68.3501 78.5601 71.3301 75.2801 71.4901L61.8401 72.1101" stroke="#263238" stroke-linecap="round" stroke-linejoin="round"/>
<path d="M33.74 87.65C33.74 87.65 25.33 87 23.67 88C22.01 89 1 112.67 1 112.67L8.58 149.07C8.24 150.54 42.75 114.5 47.67 103.67C49.79 98.9901 44.67 93.33 44.67 93.33L33.74 87.65Z" fill="#407BFF" stroke="#263238" stroke-linecap="round" stroke-linejoin="round"/>
<path d="M36.2501 78.1099L52.9501 89.7299L45.8701 98.1899L29.8501 87.2999L36.2501 78.1099Z" fill="#407BFF" stroke="#263238" stroke-linecap="round" stroke-linejoin="round"/>
<path d="M117.891 19.339L29.9983 23.6838L32.146 67.1308L120.039 62.786L117.891 19.339Z" fill="white" stroke="#263238" stroke-linecap="round" stroke-linejoin="round"/>
<path d="M49.7701 25.2053L32.6409 26.0491L33.0718 34.7985L50.2011 33.9547L49.7701 25.2053Z" fill="#407BFF" stroke="#263238" stroke-linecap="round" stroke-linejoin="round"/>
<path d="M117.896 19.333L99.9175 20.2217L102.065 63.6686L120.043 62.7799L117.896 19.333Z" fill="#DBDBDB" stroke="#263238" stroke-linecap="round" stroke-linejoin="round"/>
<path d="M117.87 19.3601C117.87 19.3601 124.87 24.2101 127.65 29.1901" stroke="#263238" stroke-linecap="round" stroke-linejoin="round"/>
<path d="M125.16 25.8701L124.89 36.6501L133.18 46.6001L144.79 36.3801L136.5 26.1501L125.16 25.8701Z" fill="#407BFF" stroke="#263238" stroke-linecap="round" stroke-linejoin="round"/>
<path d="M75 1V10.5" stroke="#263238" stroke-linecap="round" stroke-linejoin="round"/>
<path d="M75 84.5V94" stroke="#263238" stroke-linecap="round" stroke-linejoin="round"/>
<path d="M18.5 15.5L25 20.5" stroke="#263238" stroke-linecap="round" stroke-linejoin="round"/>
<path d="M25.5 49L15 49.5" stroke="#263238" stroke-linecap="round" stroke-linejoin="round"/>
<path d="M32 74L25.5 80.5" stroke="#263238" stroke-linecap="round" stroke-linejoin="round"/>
<path d="M123.5 67L131.5 74.5" stroke="#263238" stroke-linecap="round" stroke-linejoin="round"/>
<path d="M121.5 15L128 7.5" stroke="#263238" stroke-linecap="round" stroke-linejoin="round"/>
</svg>
