<svg xmlns="http://www.w3.org/2000/svg" xmlns:xlink="http://www.w3.org/1999/xlink" viewBox="0 0 500 500"><defs><clipPath id="freepik--clip-path--inject-1--inject-2"><path d="M244.27,198.85s6.08,50.15,6.08,52.38-5.57,3.34-5.57,6.12a25,25,0,0,1-1.39,6.68s-1.11,1.12-1.11,2,1.95.56,3.62-.27,2.22-3.9,2.22-3.9a49.53,49.53,0,0,0-.83,5.57l-1.11,1.11s-3.34,3.06-1.12,3.34,12.53-3.62,13.09-6.12-1.4-14.48-1.4-14.48,8.08-56.51,8.08-61.8a7.42,7.42,0,0,0-4.46-7" style="fill:#fff;stroke:#263238;stroke-linecap:round;stroke-linejoin:round;stroke-width:0.8350869999999999px"></path></clipPath><clipPath id="freepik--clip-path-2--inject-1--inject-2"><path d="M127.75,173.22s-3.67,8.66-2,10,2.66,2,2.66,2,1,11.65,2.66,13.65,12.32-1.33,12.32-1.33S165,219.17,165.7,215.17s-2-19-2-20.64-4.66-6-4.66-6" style="fill:none;stroke:#263238;stroke-linecap:round;stroke-linejoin:round;stroke-width:0.8350869999999999px"></path></clipPath><clipPath id="freepik--clip-path-3--inject-1--inject-2"><path d="M230.21,174.85l1.87.72,26.68,4.88s4.35,2.29,5.88,4.73.15,11.34.15,11.34L262,217.46,266.47,255l-7.8,5.85.3,3.71c.21.06-.05,4.95-11.62,7,0,0-2.4,1.2-3.1.67-1.77-1.33-.35-1.22-.35-1.22l-4.68,3a16.85,16.85,0,0,1-.74,7c-1.22,4-2.06,4.78-2.06,4.78L238.55,323l5.13,7.31,67,40.67H434.2V98.5H228.7v75.78Z" style="fill:none"></path></clipPath><clipPath id="freepik--clip-path-4--inject-1--inject-2"><path d="M152.37,211.7s-11.69,9.47-11.69,12-.84,49.55-.28,50.66S163,260.14,163,260.14l-2.23-20.32" style="fill:none;stroke:#263238;stroke-linecap:round;stroke-linejoin:round;stroke-width:0.8350869999999999px"></path></clipPath><clipPath id="freepik--clip-path-5--inject-1--inject-2"><path d="M170.62,192s22.95-21.81,25.73-21.81,48.71,9.18,52.05,9.74,8.91,1.67,8.91,1.67-9.74,12.25-13.08,16.42-5,6.68-5,6.68l-37.58-17.25" style="fill:none;stroke:#263238;stroke-linecap:round;stroke-linejoin:round;stroke-width:0.8350869999999999px"></path></clipPath><clipPath id="freepik--clip-path-6--inject-1--inject-2"><path d="M161.83,261.81l33.41-15.59,2.78-9.74L209.43,234s2.23-2.23,1.95,0-3.34,3.06-4.45,5.29-1.12,6.68-2.51,8.63-6.4,4.18-6.4,4.18-37.58,31.45-40.36,33.12-8.35-14.2-8.35-14.2" style="fill:#fff;stroke:#263238;stroke-linecap:round;stroke-linejoin:round;stroke-width:0.8350869999999999px"></path></clipPath></defs><g id="freepik--background-simple--inject-1--inject-2"><path d="M44.9,375.51H464.2s-10.12-20.23-23.27-26.81-20.23,6.58-36.42-2.53-12.64-30.34-30.85-43-37.43,1.52-54.12.51-21.75-23.27-40-25.8-17.71,18.53-34.4,24.79-28.2-3.93-39.95-3.54-9.61,7.58-20.74,12.64-13.15,2.53-34.39,4.55-26.3,23.77-33.89,29.84-17.7-3.54-33.38,0S44.9,375.51,44.9,375.51Z" style="fill:#92E3A9"></path><g style="opacity:0.8"><path d="M44.9,375.51H464.2s-10.12-20.23-23.27-26.81-20.23,6.58-36.42-2.53-12.64-30.34-30.85-43-37.43,1.52-54.12.51-21.75-23.27-40-25.8-17.71,18.53-34.4,24.79-28.2-3.93-39.95-3.54-9.61,7.58-20.74,12.64-13.15,2.53-34.39,4.55-26.3,23.77-33.89,29.84-17.7-3.54-33.38,0S44.9,375.51,44.9,375.51Z" style="fill:#fff"></path></g></g><g id="freepik--Character--inject-1--inject-2"><line x1="227.53" y1="281.85" x2="246.18" y2="268.49" style="fill:none;stroke:#263238;stroke-linecap:round;stroke-linejoin:round;stroke-width:0.8350869999999999px"></line><path d="M286.48,374.66l-1.05,11.85s-5.31,2.33-5.3,3.11,1,1.85,5.33,1.85,5.74-1.64,5.74-2.87,9.22-11.48,9.22-11.48a3.79,3.79,0,0,0-.61-3.69c-1.44-1.64-6.36-1.84-6.36-1.84Z" style="fill:#92E3A9"></path><path d="M280.14,390.41s7.21-.47,9.14-1.57,8.8-11.56,9.35-12.39a4.71,4.71,0,0,0,.55-2.2" style="fill:none;stroke:#263238;stroke-linecap:round;stroke-linejoin:round;stroke-width:0.417543px"></path><path d="M295.72,371.76s5.85,1.11,5.29,3.62-9.74,13.64-11.13,15-10,1.39-9.74,0,5.29-3.9,5.29-3.9l1.67-10" style="fill:none;stroke:#263238;stroke-linecap:round;stroke-linejoin:round;stroke-width:0.8350869999999999px"></path><path d="M172.52,384.29,155.3,392.7s-2.25,1.64,2.26,1.64,28.28.2,28.28.2,2.67.62,3.28-.61c1-2,1.44-3.28.82-3.9S172.52,384.29,172.52,384.29Z" style="fill:#92E3A9"></path><path d="M156.92,392.41h30.55" style="fill:none;stroke:#263238;stroke-linecap:round;stroke-linejoin:round;stroke-width:0.417543px"></path><path d="M171.36,385.36s-17.54,7.52-17.26,8.35,17.81.84,24.49.84,11.42.28,11.42-1.39" style="fill:none;stroke:#263238;stroke-linecap:round;stroke-linejoin:round;stroke-width:0.8350869999999999px"></path><path d="M295.72,371.76l-57.89-42.31-2-42.59a27.93,27.93,0,0,1-7.14,4.57c-3.58,1.37-24.32,11.85-24.32,11.85s9.19,32.57,10.86,35.36,71.82,37.85,71.82,37.85Z" style="fill:#263238"></path><path d="M190,391.49s-2.23-.56-4.73-1.12-13.92-5-13.92-5a9.77,9.77,0,0,1-.28-2.78,4,4,0,0,1,1.67-3.06s-43.43-57.9-44.54-59.57-.28-4.46,7.24-10.3,56.72-35.87,56.72-35.87c-1.89-2.24,1.67-3.62,1.67-3.62l4.46,1.39,29.23,10.3,11.69-7.79s1.95,7.23-5.29,12.8-73.43,35-73.43,35l-1.1.07L189.17,387S191.17,390.56,190,391.49Z" style="fill:#263238"></path><polyline points="153.07 314.54 158.57 321.42 156.37 312.34" style="fill:none;stroke:#fff;stroke-linecap:round;stroke-linejoin:round;stroke-width:0.8350869999999999px"></polyline><path d="M207.28,303.81s11.28,17.61,15.41,21.19" style="fill:none;stroke:#fff;stroke-linecap:round;stroke-linejoin:round;stroke-width:0.8350869999999999px"></path><path d="M208.93,303.26a82.58,82.58,0,0,0,9.9,7.43" style="fill:none;stroke:#fff;stroke-linecap:round;stroke-linejoin:round;stroke-width:0.8350869999999999px"></path><polygon points="228.71 210.03 189.65 236.65 198.19 271.85 227.18 281.57 265.86 254.01 261.19 218.6 228.71 210.03" style="fill:#92E3A9;mix-blend-mode:multiply"></polygon><line x1="189.86" y1="236.65" x2="192.34" y2="247.65" style="fill:none;stroke:#263238;stroke-linecap:round;stroke-linejoin:round;stroke-width:0.8350869999999999px"></line><polyline points="194.4 255.68 198.3 271.55 227.53 281.85 223.91 255.68" style="fill:none;stroke:#263238;stroke-linecap:round;stroke-linejoin:round;stroke-width:0.8350869999999999px"></polyline><line x1="223.63" y1="253.46" x2="222.52" y2="246.78" style="fill:none;stroke:#263238;stroke-linecap:round;stroke-linejoin:round;stroke-width:0.8350869999999999px"></line><polyline points="258.15 260.14 265.94 254.29 262.04 221.17" style="fill:none;stroke:#263238;stroke-linecap:round;stroke-linejoin:round;stroke-width:0.8350869999999999px"></polyline><line x1="226.41" y1="244.83" x2="247.57" y2="228.96" style="fill:none;stroke:#263238;stroke-linecap:round;stroke-linejoin:round;stroke-width:0.8350869999999999px"></line><polyline points="246.46 214.76 228.92 210.03 190.5 236.2" style="fill:none;stroke:#263238;stroke-linecap:round;stroke-linejoin:round;stroke-width:0.8350869999999999px"></polyline><line x1="190.78" y1="237.31" x2="196.63" y2="238.98" style="fill:none;stroke:#263238;stroke-linecap:round;stroke-linejoin:round;stroke-width:0.8350869999999999px"></line><line x1="206.65" y1="241.21" x2="222.52" y2="245.66" style="fill:none;stroke:#263238;stroke-linecap:round;stroke-linejoin:round;stroke-width:0.8350869999999999px"></line><line x1="243.67" y1="214.21" x2="219.73" y2="232.58" style="fill:none;stroke:#263238;stroke-linecap:round;stroke-linejoin:round;stroke-width:0.417543px"></line><line x1="217.78" y1="234.25" x2="209.15" y2="240.93" style="fill:none;stroke:#263238;stroke-linecap:round;stroke-linejoin:round;stroke-width:0.417543px"></line><path d="M244.27,198.85s6.08,50.15,6.08,52.38-5.57,3.34-5.57,6.12a25,25,0,0,1-1.39,6.68s-1.11,1.12-1.11,2,1.95.56,3.62-.27,2.22-3.9,2.22-3.9a49.53,49.53,0,0,0-.83,5.57l-1.11,1.11s-3.34,3.06-1.12,3.34,12.53-3.62,13.09-6.12-1.4-14.48-1.4-14.48,8.08-56.51,8.08-61.8a7.42,7.42,0,0,0-4.46-7" style="fill:#fff"></path><g style="clip-path:url(#freepik--clip-path--inject-1--inject-2)"><path d="M264.79,196.52c-1.17-4.45-2.44-12.53-2.44-12.53l-5.3-1.61-7,8.41,5.53-3.4v66.73c0,3.4-4.25,16.57-4.25,16.57s8.79-1.85,7.37-9.85-3.12-6.72-.57-22.87S266,201,264.79,196.52Z" style="fill:#92E3A9;opacity:0.30000000000000004;mix-blend-mode:multiply"></path></g><path d="M244.27,198.85s6.08,50.15,6.08,52.38-5.57,3.34-5.57,6.12a25,25,0,0,1-1.39,6.68s-1.11,1.12-1.11,2,1.95.56,3.62-.27,2.22-3.9,2.22-3.9a49.53,49.53,0,0,0-.83,5.57l-1.11,1.11s-3.34,3.06-1.12,3.34,12.53-3.62,13.09-6.12-1.4-14.48-1.4-14.48,8.08-56.51,8.08-61.8a7.42,7.42,0,0,0-4.46-7" style="fill:none;stroke:#263238;stroke-linecap:round;stroke-linejoin:round;stroke-width:0.8350869999999999px"></path><path d="M251,265.29a5.56,5.56,0,0,1-.28,3.57,14.32,14.32,0,0,1-1.92,2.48" style="fill:none;stroke:#263238;stroke-linecap:round;stroke-linejoin:round;stroke-width:0.417543px"></path><path d="M254.33,265.29a16.77,16.77,0,0,1-.83,3.3" style="fill:none;stroke:#263238;stroke-linecap:round;stroke-linejoin:round;stroke-width:0.417543px"></path><path d="M256.81,264.46a17.41,17.41,0,0,1-.83,3.3" style="fill:none;stroke:#263238;stroke-linecap:round;stroke-linejoin:round;stroke-width:0.417543px"></path><path d="M166.88,160.24c-.32-2.88-6.08-8.32-14.08-9.92s-16.65-1.6-19.85,1c-1.2.95-2,3.16-2.52,5.54.57-1.22,1.72-3.69,2.91-4.68,5.89-4.91,7.53-2,8.51,2.29s-.33,16-.33,16-13.42,3.93-11.46-2.95a17.38,17.38,0,0,1-.6-3c0,.51,0,.82,0,.82l-.64,4.16-5.44,1-18.9-.6s9.62,6,15.06,6a15.93,15.93,0,0,0,9.58-3.71l35,2.67S167.2,163.12,166.88,160.24Z" style="fill:#92E3A9"></path><path d="M126.08,170.22l-21.64-.33s6,5.66,14,5.66,10.66-3.33,10.66-3.33l35,2.67s4.57-8.71,2.24-16.36-23.33-10.22-29.17-8.81c-7.22,1.75-7.7,7.85-7.7,11.18a52.85,52.85,0,0,1-.67,7.33" style="fill:none;stroke:#263238;stroke-linecap:round;stroke-linejoin:round;stroke-width:0.8350869999999999px"></path><g style="clip-path:url(#freepik--clip-path-2--inject-1--inject-2)"><path d="M146.31,173.71l-14.13.25s-4,5.95-3,7.69a10,10,0,0,0,3,3s-1,7.94.25,10.67,11.16,1.48,11.16,1.48a16.37,16.37,0,0,1-7.2,2.24c-4.71.49-6.19-.5-6.94-3.23s-1-10.57-1-10.57L125,181.65l2.48-6.7,2.73-2.72Z" style="fill:#92E3A9;opacity:0.30000000000000004;mix-blend-mode:multiply"></path></g><path d="M127.75,173.22s-3.67,8.66-2,10,2.66,2,2.66,2,1,11.65,2.66,13.65,12.32-1.33,12.32-1.33S165,219.17,165.7,215.17s-2-19-2-20.64-4.66-6-4.66-6" style="fill:none;stroke:#263238;stroke-linecap:round;stroke-linejoin:round;stroke-width:0.8350869999999999px"></path><path d="M147.06,173.55s.66,3,2.66,3.33,3.66-3,3.66-3Z" style="fill:#263238"></path><path d="M164,174.89s2,6-.34,9.32-3.32,3.33-3.32,3.33c-2,3.33-7.33-4-7.33-4s4-.18,5-2.84-.4-6.55-.4-6.55Z" style="fill:#263238"></path><path d="M158,174.89s1,4.66,0,7-5,1.66-5,1.66l-2,5" style="fill:none;stroke:#263238;stroke-linecap:round;stroke-linejoin:round;stroke-width:0.8350869999999999px"></path><path d="M130.78,187.14s3.86.83,6.33-3.58" style="fill:none;stroke:#263238;stroke-linecap:round;stroke-linejoin:round;stroke-width:0.626315px"></path><rect x="193.19" y="209.88" width="8.72" height="13.37" transform="translate(-62.69 81.64) rotate(-20.22)" style="fill:#263238"></rect><rect x="194.92" y="212.12" width="4.17" height="6.2" transform="translate(-62.25 81.37) rotate(-20.22)" style="fill:#fff"></rect><rect x="193.93" y="207.06" width="1.84" height="4.07" transform="translate(-60.27 80.25) rotate(-20.22)" style="fill:#fff;stroke:#263238;stroke-linecap:round;stroke-linejoin:round;stroke-width:0.417543px"></rect><line x1="186.43" y1="261.71" x2="193.84" y2="270.16" style="fill:none;stroke:#263238;stroke-linecap:round;stroke-linejoin:round;stroke-width:0.8350869999999999px"></line><g style="clip-path:url(#freepik--clip-path-3--inject-1--inject-2)"><polygon points="262.55 157.45 255.2 161.69 251.05 154.44 258.39 150.21 262.55 157.45" style="fill:none;stroke:#263238;stroke-linecap:round;stroke-linejoin:round;stroke-width:0.8350869999999999px"></polygon><polygon points="260.07 149.2 248.5 155.88 241.61 143.12 253.18 136.44 260.07 149.2" style="fill:none;stroke:#263238;stroke-linecap:round;stroke-linejoin:round;stroke-width:0.8350869999999999px"></polygon><circle cx="308.56" cy="248.43" r="88.96" transform="translate(-85.29 290.94) rotate(-45)" style="fill:#fff"></circle><path d="M309.34,144.2A102.69,102.69,0,1,0,412,246.89,102.69,102.69,0,0,0,309.34,144.2Zm0,191.65a89,89,0,1,1,89-89A89,89,0,0,1,309.34,335.85Z" style="fill:#263238;stroke:#263238;stroke-linecap:round;stroke-linejoin:round;stroke-width:0.8350869999999999px"></path><path d="M372.35,169.43a99.72,99.72,0,0,0-34.68-18.31" style="fill:none;stroke:#fff;stroke-linecap:round;stroke-linejoin:round;stroke-width:1.6701700000000002px"></path><path d="M328.2,148.82a101.56,101.56,0,0,0-11-1.47" style="fill:none;stroke:#fff;stroke-linecap:round;stroke-linejoin:round;stroke-width:1.6701700000000002px"></path><path d="M384.24,301.79a92.91,92.91,0,0,0-2-112.42" style="fill:none;stroke:#fff;stroke-linecap:round;stroke-linejoin:round;stroke-width:0.8350869999999999px"></path><path d="M371.26,316.08a91.26,91.26,0,0,0,8.22-8.35" style="fill:none;stroke:#fff;stroke-linecap:round;stroke-linejoin:round;stroke-width:0.8350869999999999px"></path><path d="M271.59,331.75a93,93,0,0,0,96-12.5" style="fill:none;stroke:#fff;stroke-linecap:round;stroke-linejoin:round;stroke-width:0.8350869999999999px"></path><path d="M258.34,324.5a92.07,92.07,0,0,0,8.61,5" style="fill:none;stroke:#fff;stroke-linecap:round;stroke-linejoin:round;stroke-width:0.8350869999999999px"></path><path d="M248.38,316.94a92.54,92.54,0,0,0,7.32,5.75" style="fill:none;stroke:#fff;stroke-linecap:round;stroke-linejoin:round;stroke-width:0.8350869999999999px"></path><path d="M283.66,157.63a92.88,92.88,0,0,0-37.74,157.09" style="fill:none;stroke:#fff;stroke-linecap:round;stroke-linejoin:round;stroke-width:0.8350869999999999px"></path><path d="M375,181.23a93,93,0,0,0-84.26-25.33" style="fill:none;stroke:#fff;stroke-linecap:round;stroke-linejoin:round;stroke-width:0.8350869999999999px"></path><rect x="295.93" y="279.78" width="26.72" height="7.24" style="fill:#92E3A9"></rect><path d="M316.8,246.89a7.45,7.45,0,0,0-6.12-7.33l-.79-48.87h-1.11L308,239.56a7.45,7.45,0,0,0-.23,14.62l-.28,17.34h3.7l-.28-17.34A7.47,7.47,0,0,0,316.8,246.89Zm-7.46,4a4,4,0,1,1,4-4A4,4,0,0,1,309.34,250.89Z" style="fill:#263238"></path><circle cx="309.34" cy="246.89" r="4.11" style="fill:#92E3A9"></circle><line x1="309.34" y1="162.92" x2="309.34" y2="177.73" style="fill:none;stroke:#263238;stroke-linecap:round;stroke-linejoin:round;stroke-width:3.3403500000000004px"></line><line x1="309.34" y1="316.56" x2="309.34" y2="331.37" style="fill:none;stroke:#263238;stroke-linecap:round;stroke-linejoin:round;stroke-width:3.3403500000000004px"></line><line x1="267.23" y1="174.21" x2="274.63" y2="187.03" style="fill:none;stroke:#263238;stroke-linecap:round;stroke-linejoin:round;stroke-width:3.3403500000000004px"></line><line x1="344.05" y1="307.26" x2="351.45" y2="320.09" style="fill:none;stroke:#263238;stroke-linecap:round;stroke-linejoin:round;stroke-width:3.3403500000000004px"></line><line x1="236.4" y1="205.03" x2="249.22" y2="212.44" style="fill:none;stroke:#263238;stroke-linecap:round;stroke-linejoin:round;stroke-width:3.3403500000000004px"></line><line x1="369.45" y1="281.85" x2="382.28" y2="289.26" style="fill:none;stroke:#263238;stroke-linecap:round;stroke-linejoin:round;stroke-width:3.3403500000000004px"></line><line x1="393.56" y1="247.15" x2="378.75" y2="247.15" style="fill:none;stroke:#263238;stroke-linecap:round;stroke-linejoin:round;stroke-width:3.3403500000000004px"></line><line x1="239.92" y1="247.15" x2="225.11" y2="247.15" style="fill:none;stroke:#263238;stroke-linecap:round;stroke-linejoin:round;stroke-width:3.3403500000000004px"></line><line x1="393.56" y1="247.15" x2="378.75" y2="247.15" style="fill:none;stroke:#263238;stroke-linecap:round;stroke-linejoin:round;stroke-width:3.3403500000000004px"></line><line x1="239.92" y1="247.15" x2="225.11" y2="247.15" style="fill:none;stroke:#263238;stroke-linecap:round;stroke-linejoin:round;stroke-width:3.3403500000000004px"></line><line x1="382.28" y1="205.03" x2="369.45" y2="212.44" style="fill:none;stroke:#263238;stroke-linecap:round;stroke-linejoin:round;stroke-width:3.3403500000000004px"></line><line x1="249.22" y1="281.85" x2="236.4" y2="289.26" style="fill:none;stroke:#263238;stroke-linecap:round;stroke-linejoin:round;stroke-width:3.3403500000000004px"></line><line x1="351.45" y1="174.21" x2="344.05" y2="187.03" style="fill:none;stroke:#263238;stroke-linecap:round;stroke-linejoin:round;stroke-width:3.3403500000000004px"></line><line x1="274.63" y1="307.26" x2="267.23" y2="320.09" style="fill:none;stroke:#263238;stroke-linecap:round;stroke-linejoin:round;stroke-width:3.3403500000000004px"></line><rect x="305.1" y="140.97" width="8.48" height="7.5" style="fill:none;stroke:#263238;stroke-linecap:round;stroke-linejoin:round;stroke-width:0.8350869999999999px"></rect><rect x="302.66" y="120.93" width="13.36" height="19.61" style="fill:none;stroke:#263238;stroke-linecap:round;stroke-linejoin:round;stroke-width:0.8350869999999999px"></rect><rect x="299.46" y="107.13" width="19.34" height="13.36" style="fill:#92E3A9"></rect><rect x="299.67" y="107.13" width="19.34" height="13.36" style="fill:none;stroke:#263238;stroke-linecap:round;stroke-linejoin:round;stroke-width:0.8350869999999999px"></rect><line x1="301.82" y1="115.44" x2="301.82" y2="107.43" style="fill:none;stroke:#263238;stroke-linecap:round;stroke-linejoin:round;stroke-width:0.8350869999999999px"></line><line x1="301.82" y1="120.74" x2="301.82" y2="117.29" style="fill:none;stroke:#263238;stroke-linecap:round;stroke-linejoin:round;stroke-width:0.8350869999999999px"></line><line x1="304.28" y1="120.74" x2="304.28" y2="107.43" style="fill:none;stroke:#263238;stroke-linecap:round;stroke-linejoin:round;stroke-width:0.8350869999999999px"></line><line x1="306.74" y1="110.76" x2="306.74" y2="107.43" style="fill:none;stroke:#263238;stroke-linecap:round;stroke-linejoin:round;stroke-width:0.8350869999999999px"></line><line x1="306.74" y1="120.74" x2="306.74" y2="112.36" style="fill:none;stroke:#263238;stroke-linecap:round;stroke-linejoin:round;stroke-width:0.8350869999999999px"></line><line x1="310.81" y1="120.74" x2="310.81" y2="107.43" style="fill:none;stroke:#263238;stroke-linecap:round;stroke-linejoin:round;stroke-width:0.8350869999999999px"></line></g><path d="M168.13,213.14l7.19.5-.24-2.73S168.63,210.41,168.13,213.14Z" style="fill:#92E3A9;opacity:0.30000000000000004;mix-blend-mode:multiply"></path><g style="clip-path:url(#freepik--clip-path-4--inject-1--inject-2)"><path d="M148.32,269.87,163,260.14l-18.75,7.15s-1.7-38.25-.42-41.22,9.35-8.5,9.35-8.5-.48-3.08,2.12-4.25a7.9,7.9,0,0,1,5.53,0l1.85.7c-2.13-1.2-5.57-3.63-10.86-8.57h-.12l1.28,1.23-.56,5-5.62,4.59c-1.27,1.28-6.07,7.38-6.07,7.38l-.28,50.66,7.63-4.91Z" style="fill:#92E3A9;opacity:0.30000000000000004;mix-blend-mode:multiply"></path></g><path d="M152.37,211.7s-11.69,9.47-11.69,12-.84,49.55-.28,50.66S163,260.14,163,260.14l-2.23-20.32" style="fill:none;stroke:#263238;stroke-linecap:round;stroke-linejoin:round;stroke-width:0.8350869999999999px"></path><line x1="154.6" y1="234.81" x2="178.26" y2="253.74" style="fill:none;stroke:#263238;stroke-linecap:round;stroke-linejoin:round;stroke-width:0.8350869999999999px"></line><g style="clip-path:url(#freepik--clip-path-5--inject-1--inject-2)"><path d="M257.05,182.38,242.8,178l-46.45-7.81-11.77,12.91s10.2-6.37,13.17-6.37,47.77,12.74,52,13.93Z" style="fill:#92E3A9;opacity:0.30000000000000004;mix-blend-mode:multiply"></path></g><path d="M170.62,192s22.95-21.81,25.73-21.81,48.71,9.18,52.05,9.74,8.91,1.67,8.91,1.67-9.74,12.25-13.08,16.42-5,6.68-5,6.68l-37.58-17.25" style="fill:none;stroke:#263238;stroke-linecap:round;stroke-linejoin:round;stroke-width:0.8350869999999999px"></path><line x1="208.04" y1="191.66" x2="217.51" y2="216.71" style="fill:none;stroke:#263238;stroke-linecap:round;stroke-linejoin:round;stroke-width:0.8350869999999999px"></line><polyline points="179.09 229.24 176.86 231.47 166.01 217.55" style="fill:none;stroke:#263238;stroke-linecap:round;stroke-linejoin:round;stroke-width:0.8350869999999999px"></polyline><polyline points="197.37 192.65 208.38 190.72 199.02 197.32" style="fill:none;stroke:#263238;stroke-linecap:round;stroke-linejoin:round;stroke-width:0.417543px"></polyline><line x1="160.72" y1="239.82" x2="146.74" y2="237.77" style="fill:none;stroke:#263238;stroke-linecap:round;stroke-linejoin:round;stroke-width:0.417543px"></line><path d="M152.93,206.69a11.44,11.44,0,0,0-.28,7.8c1.39,4.17,6.12,11.41,6.12,11.41l6.12-8.63" style="fill:none;stroke:#263238;stroke-linecap:round;stroke-linejoin:round;stroke-width:0.8350869999999999px"></path><path d="M166.84,213.93s3.07-2.78,5.85-2.78h4.73s-.83-10.86-4.73-16.71-9.19-2.78-9.19-2.78" style="fill:none;stroke:#263238;stroke-linecap:round;stroke-linejoin:round;stroke-width:0.8350869999999999px"></path><path d="M161.83,261.81l33.41-15.59,2.78-9.74L209.43,234s2.23-2.23,1.95,0-3.34,3.06-4.45,5.29-1.12,6.68-2.51,8.63-6.4,4.18-6.4,4.18-37.58,31.45-40.36,33.12-8.35-14.2-8.35-14.2" style="fill:#fff"></path><g style="clip-path:url(#freepik--clip-path-6--inject-1--inject-2)"><path d="M148.32,269.87c1.29,2.07,6.56,10.64,6.93,14,.43,3.83,3.83,0,3.83,0l30.6-25.49S159.5,277.49,157,276.64s-3-7.22-3-7.22l9-9.28Z" style="fill:#92E3A9;opacity:0.30000000000000004;mix-blend-mode:multiply"></path></g><path d="M161.83,261.81l33.41-15.59,2.78-9.74L209.43,234s2.23-2.23,1.95,0-3.34,3.06-4.45,5.29-1.12,6.68-2.51,8.63-6.4,4.18-6.4,4.18-37.58,31.45-40.36,33.12-8.35-14.2-8.35-14.2" style="fill:none;stroke:#263238;stroke-linecap:round;stroke-linejoin:round;stroke-width:0.8350869999999999px"></path><path d="M209.43,234s-5.45,3.25-4.9,4.35" style="fill:none;stroke:#263238;stroke-linecap:round;stroke-linejoin:round;stroke-width:0.417543px"></path><line x1="205.08" y1="235.02" x2="200.95" y2="237.22" style="fill:none;stroke:#263238;stroke-linecap:round;stroke-linejoin:round;stroke-width:0.417543px"></line></g></svg>