<svg width="49" height="38" viewBox="0 0 49 38" fill="none" xmlns="http://www.w3.org/2000/svg">
<path d="M40.5054 18.8335C31.607 14.8489 17.2264 14.8489 8.38488 18.8335C-0.456683 22.8182 -0.408663 29.2782 8.48974 33.2621C17.3881 37.2461 31.7696 37.2468 40.6102 33.2621C49.4508 29.2775 49.4047 22.8182 40.5054 18.8335Z" fill="#F5F5F5"/>
<path d="M15.3635 2.42745L15.8878 2.19489L15.9201 11.0823L15.9191 11.0831L11.6934 12.9542L11.6914 12.4891L11.66 4.06677L15.3635 2.42745Z" fill="#F0F0F0"/>
<path opacity="0.1" d="M15.3948 10.849L15.3635 2.42745L15.8878 2.19489L15.9201 11.0823L15.9191 11.0831L15.3929 10.8498L15.3948 10.849Z" fill="black"/>
<path opacity="0.2" d="M11.6914 12.4891L15.3929 10.8498L15.9191 11.0831L11.6934 12.9542L11.6914 12.4891Z" fill="black"/>
<path d="M9.5805 4.98787L10.1048 4.75531L10.1371 13.6427L10.1362 13.6435L5.9104 15.5146L5.90844 15.0495L5.87708 6.62719L9.5805 4.98787Z" fill="#F0F0F0"/>
<path opacity="0.1" d="M9.61187 13.4094L9.58051 4.98787L10.1048 4.75531L10.1371 13.6427L10.1362 13.6435L9.6099 13.4102L9.61187 13.4094Z" fill="black"/>
<path opacity="0.2" d="M5.90845 15.0495L9.60991 13.4102L10.1362 13.6435L5.91041 15.5147L5.90845 15.0495Z" fill="black"/>
<path d="M27.5821 7.41528C27.5498 7.38868 27.5184 7.36132 27.4841 7.3332L27.4635 7.31496C27.4116 7.2686 27.3655 7.22148 27.3126 7.17284L27.2969 7.15688C27.2577 7.11812 27.2205 7.08088 27.1832 7.03756L27.1666 7.02008C27.1313 6.98056 27.097 6.94408 27.0637 6.9C27.0549 6.89012 27.047 6.88024 27.0392 6.87036C27.0117 6.83692 26.9853 6.80348 26.9598 6.76928C26.9537 6.76246 26.9481 6.75536 26.9431 6.748C26.9137 6.70924 26.8853 6.672 26.8579 6.6302L26.8383 6.5998C26.8167 6.56864 26.7961 6.53672 26.7756 6.5048L26.756 6.47288C26.7305 6.4326 26.707 6.39232 26.6834 6.35128L26.6746 6.3338C26.654 6.29656 26.6344 6.2578 26.6158 6.22284L26.5992 6.1894C26.5776 6.14532 26.557 6.10124 26.5384 6.05716C26.5384 6.05716 26.5384 6.05032 26.5335 6.04652C26.5139 6.00092 26.4963 5.95532 26.4796 5.90972L26.4708 5.88388C26.4512 5.83068 26.4345 5.77748 26.4198 5.72504C26.4198 5.71288 26.4139 5.70148 26.41 5.69008L26.3953 5.62776C26.3953 5.61484 26.3885 5.60192 26.3865 5.58824C26.3865 5.56696 26.3777 5.54568 26.3738 5.5244C26.3698 5.50312 26.3689 5.49932 26.3669 5.4864C26.3591 5.4408 26.3542 5.3952 26.3493 5.35036C26.3493 5.34048 26.3493 5.3306 26.3493 5.32148C26.3493 5.27512 26.3434 5.22876 26.3434 5.18316C26.3434 5.152 26.3434 5.12084 26.3434 5.0912V5.057C26.3434 5.03876 26.3434 5.01976 26.3493 5.00228C26.3551 4.9848 26.3493 4.97948 26.3542 4.96808C26.3591 4.95668 26.3542 4.93312 26.362 4.9164C26.3698 4.89968 26.3679 4.89284 26.3698 4.88144C26.3718 4.87004 26.3767 4.85028 26.3806 4.83508C26.3845 4.81988 26.3875 4.81152 26.3904 4.79936C26.3934 4.7872 26.3992 4.77124 26.4032 4.7568C26.4071 4.74236 26.412 4.734 26.4159 4.7226C26.4198 4.7112 26.4257 4.696 26.4316 4.68308L26.4463 4.64964C26.4522 4.63748 26.4571 4.62456 26.4639 4.6124C26.4708 4.60024 26.4757 4.59188 26.4806 4.58124C26.4855 4.5706 26.4933 4.55768 26.5002 4.54628C26.507 4.53488 26.5129 4.52652 26.5198 4.51664C26.5266 4.50676 26.5335 4.4946 26.5413 4.48396L26.5629 4.4566L26.5864 4.42544L26.6099 4.3996C26.6188 4.39048 26.6266 4.3806 26.6364 4.37148C26.6462 4.36236 26.6531 4.35552 26.6619 4.34716C26.6707 4.3388 26.6795 4.32968 26.6893 4.32132C26.6991 4.31296 26.7079 4.30612 26.7168 4.29852L26.7462 4.27496L26.7756 4.25444L26.8069 4.23316L26.8383 4.21492L26.8716 4.19592L26.9039 4.1792C27.0048 4.13034 27.1159 4.09561 27.2322 4.0766C27.0117 4.26888 26.8824 4.56148 26.8804 4.93844C26.8804 4.98404 26.8804 5.0304 26.8863 5.07676C26.8863 5.08664 26.8863 5.09576 26.8863 5.10564C26.8863 5.15048 26.8961 5.19608 26.9039 5.24168C26.9039 5.2546 26.9088 5.26752 26.9108 5.27968C26.9128 5.29184 26.9186 5.32224 26.9235 5.34352C26.9284 5.3648 26.9294 5.3724 26.9333 5.38684L26.948 5.44916C26.948 5.46056 26.9549 5.47196 26.9578 5.48412C26.9725 5.53656 26.9892 5.58976 27.0078 5.64296C27.0117 5.65169 27.0149 5.66057 27.0176 5.66956C27.0343 5.7144 27.0519 5.76 27.0715 5.8056C27.0715 5.8056 27.0715 5.8132 27.0764 5.81624C27.095 5.86108 27.1156 5.90516 27.1372 5.94848C27.1431 5.95988 27.148 5.97128 27.1538 5.98192C27.1725 6.01916 27.1921 6.05792 27.2126 6.09288L27.2215 6.11036C27.245 6.1514 27.2685 6.19168 27.294 6.23196C27.2999 6.2426 27.3067 6.25324 27.3136 6.26388C27.3342 6.2958 27.3547 6.32772 27.3763 6.35964L27.3959 6.38928C27.4233 6.4288 27.4518 6.46528 27.4812 6.50708C27.4861 6.51468 27.4919 6.52152 27.4978 6.52912C27.5233 6.56256 27.5498 6.59676 27.5772 6.6302L27.6007 6.65908C27.635 6.69936 27.6693 6.73964 27.7046 6.77916L27.7213 6.79664C27.7585 6.83768 27.7957 6.8772 27.8349 6.91672L27.8506 6.93268C27.8996 6.98132 27.9486 7.02844 28.0015 7.0748L28.0211 7.09304L28.1191 7.17588L28.125 7.18044C28.1593 7.20856 28.1946 7.23668 28.2299 7.26328C28.2367 7.26936 28.2446 7.27468 28.2524 7.28076C28.2985 7.31496 28.3445 7.34916 28.3926 7.38184L28.4053 7.39096C28.4543 7.4244 28.5033 7.45556 28.5543 7.48672L28.5837 7.5042C28.6327 7.53384 28.6817 7.56196 28.7346 7.58932L28.761 7.603C28.8149 7.63036 28.8688 7.65696 28.9227 7.679C28.9766 7.70104 29.01 7.71624 29.0531 7.73372L29.0893 7.7474L29.1873 7.78236L29.2216 7.79376L29.3118 7.82036L29.3343 7.82644C29.3716 7.83632 29.4088 7.84544 29.4451 7.85304L29.5098 7.8652L29.5392 7.87128C29.5705 7.8766 29.6009 7.8804 29.6313 7.8842C29.6767 7.88993 29.7225 7.89348 29.7685 7.89484H29.7959C29.8361 7.89484 29.8753 7.89484 29.9145 7.89484H29.9341C29.9653 7.89327 29.9964 7.89048 30.0272 7.88648H30.0556L30.085 7.88116C30.0124 7.94529 29.9266 7.99972 29.8312 8.04228L29.8214 8.04608H29.8145C29.79 8.05672 29.7646 8.06584 29.7391 8.07496L29.7126 8.08332C29.6858 8.09193 29.6584 8.09953 29.6303 8.10612H29.6156C29.5833 8.11296 29.5499 8.11904 29.5176 8.1236H29.4911C29.4608 8.1236 29.4314 8.12968 29.4 8.13196H29.3765C29.3383 8.13196 29.2991 8.13196 29.2599 8.13196H29.2344H29.1697L29.0952 8.12512L29.0482 8.11828L29.0031 8.11144L28.9757 8.10612H28.9678L28.91 8.09548C28.8737 8.08712 28.8375 8.07876 28.8012 8.06888L28.7787 8.0628L28.6875 8.0362L28.6552 8.02556C28.6225 8.01492 28.5899 8.00352 28.5572 7.99136L28.5356 7.983C28.5301 7.98143 28.5249 7.97939 28.52 7.97692C28.4768 7.9602 28.4337 7.94272 28.3896 7.92296C28.3455 7.9032 28.2818 7.87204 28.2289 7.84696H28.2211L28.2015 7.83708C28.1505 7.80972 28.1035 7.7816 28.0505 7.75196L28.0319 7.74056L28.0211 7.73448C27.9712 7.70332 27.9231 7.6714 27.8722 7.63872C27.8693 7.63689 27.8667 7.63485 27.8643 7.63264H27.8594C27.8114 7.60072 27.7614 7.56652 27.7193 7.53232L27.6968 7.51484C27.6615 7.48824 27.6262 7.46012 27.5919 7.432L27.5821 7.41528Z" fill="#EBEBEB"/>
<path d="M30.0566 6.54816V6.6462L30.4123 6.80504V6.707L30.0566 6.54816Z" fill="white"/>
<path d="M27.1803 4.487L27.1254 4.54628L27.4331 4.84344L27.488 4.7834L27.1803 4.487Z" fill="white"/>
<path d="M30.7132 6.89093C30.7132 7.89945 29.7891 8.30605 28.6552 7.80293C27.5213 7.29981 26.6119 6.06481 26.6148 5.05629C26.6178 4.04777 27.539 3.64117 28.6728 4.14429C29.8067 4.64741 30.7171 5.88241 30.7132 6.89093ZM27.734 5.91737C27.7426 5.93871 27.7607 5.95701 27.785 5.96905C27.7915 5.97219 27.7989 5.97401 27.8065 5.97437L28.6768 6.02757C28.6828 6.02893 28.6893 6.0287 28.6951 6.02691C28.701 6.02512 28.7059 6.02188 28.7091 6.01769L29.2785 5.26909C29.2837 5.25589 29.2842 5.24184 29.2798 5.22845C29.2755 5.21506 29.2666 5.20284 29.254 5.19309C29.247 5.18676 29.2387 5.18137 29.2295 5.17713C29.2099 5.16877 29.1903 5.16953 29.1805 5.18245L28.6209 5.91889L27.7634 5.86645C27.736 5.86645 27.7222 5.88773 27.734 5.91813M29.4078 5.25693L29.5862 5.06237L29.4882 4.97117L29.3167 5.16801L29.4147 5.25921M29.4882 7.72009L29.5862 7.71401L29.4 7.35681L29.302 7.36289L29.4784 7.71705M27.1744 6.12941L27.4831 6.10889L27.4292 5.99945L27.1195 6.01997L27.1744 6.12941ZM30.1477 7.46093L30.2026 7.40089L29.8949 7.10373L29.84 7.16377L30.1477 7.46093ZM27.1803 4.48401L27.1254 4.54329L27.4331 4.84045L27.488 4.78041L27.1803 4.48401ZM29.8998 5.94777L30.2085 5.92725L30.1536 5.81857L29.8449 5.83833L29.8998 5.94777ZM27.8418 4.23017L27.7438 4.23625L27.9202 4.59041L28.0182 4.58433L27.8408 4.23017M27.832 6.97681L28.0113 6.78149L27.9133 6.69105L27.734 6.88561L27.832 6.97681ZM27.2714 5.39601V5.30101L26.9157 5.14217V5.23945L27.2714 5.39905M30.4123 6.70777L30.0566 6.54817V6.64621L30.4123 6.80505V6.70777ZM28.6042 7.50729L28.713 7.55593V7.23901L28.6042 7.18961V7.50729ZM28.7248 4.43993L28.616 4.39129V4.71201L28.7248 4.76141V4.44373" fill="#E0E0E0"/>
<path d="M28.615 4.39124L28.614 4.70816L28.7228 4.75756L28.7248 4.43988L28.615 4.39124Z" fill="white"/>
<path d="M29.4961 4.9704L29.3167 5.16496L29.4118 5.25616L29.5901 5.0616L29.4961 4.9704Z" fill="white"/>
<path d="M30.1536 5.81854L29.8449 5.8383L29.8998 5.94774L30.2085 5.92722L30.1536 5.81854Z" fill="white"/>
<path d="M29.8949 7.1037L29.84 7.16374L30.1477 7.4609L30.2026 7.40086L29.8949 7.1037Z" fill="white"/>
<path d="M29.4039 7.35675L29.3089 7.36283L29.4853 7.71699L29.5803 7.71091L29.4039 7.35675Z" fill="white"/>
<path d="M28.6052 7.18958L28.6042 7.50726L28.713 7.5559L28.714 7.23898L28.6052 7.18958Z" fill="white"/>
<path d="M27.9173 6.69104L27.7379 6.8856L27.832 6.9768L28.0113 6.78148L27.9173 6.69104Z" fill="white"/>
<path d="M27.4283 5.99945L27.1196 6.01997L27.1744 6.12941L27.4831 6.10889L27.4283 5.99945Z" fill="white"/>
<path d="M26.9157 5.14215V5.23943L27.2715 5.39903V5.30099L26.9157 5.14215Z" fill="white"/>
<path d="M27.8418 4.23016L27.7477 4.23624L27.9241 4.5904L28.0192 4.58432L27.8418 4.23016Z" fill="white"/>
<path d="M28.664 5.928C28.6575 5.92486 28.6501 5.92304 28.6425 5.92268H28.6248L27.7673 5.87024C27.7399 5.87024 27.7262 5.89152 27.7379 5.92192C27.7465 5.94326 27.7646 5.96156 27.7889 5.9736C27.7954 5.97674 27.8028 5.97856 27.8105 5.97892L28.6807 6.03212C28.7081 6.03212 28.7209 6.0116 28.7091 5.9812C28.7028 5.95984 28.6868 5.94096 28.664 5.928Z" fill="white"/>
<path d="M29.2334 5.17632C29.2138 5.16796 29.1942 5.16872 29.1844 5.18164L28.6248 5.91808H28.6425C28.6501 5.91844 28.6575 5.92027 28.664 5.9234C28.6883 5.93532 28.706 5.9537 28.714 5.97508C28.7258 6.00548 28.714 6.02828 28.6856 6.026C28.6916 6.02736 28.6981 6.02713 28.7039 6.02534C28.7098 6.02355 28.7147 6.02031 28.7179 6.01612L29.2873 5.26752C29.2925 5.25432 29.293 5.24027 29.2887 5.22688C29.2843 5.2135 29.2754 5.20127 29.2628 5.19152C29.2543 5.18511 29.2443 5.17996 29.2334 5.17632Z" fill="#F5F5F5"/>
<path d="M30.0674 8.13198L30.0997 8.11222C30.1118 8.10499 30.1233 8.09712 30.134 8.08866C30.1448 8.08182 30.1556 8.07498 30.1654 8.06738L30.1977 8.04154L30.2271 8.01722C30.238 8.00836 30.2482 7.99897 30.2575 7.9891C30.2663 7.98074 30.2761 7.97238 30.2849 7.96326C30.2938 7.95414 30.3036 7.94274 30.3124 7.93286C30.3212 7.92298 30.33 7.91462 30.3379 7.90474C30.3457 7.89486 30.3555 7.8827 30.3633 7.8713C30.3712 7.8599 30.38 7.85154 30.3869 7.84166C30.3937 7.83178 30.4025 7.8181 30.4104 7.80594L30.4319 7.77402L30.4525 7.73602C30.4584 7.72462 30.4653 7.71398 30.4711 7.70258C30.477 7.69118 30.4839 7.67522 30.4898 7.66154C30.4956 7.64786 30.5015 7.63798 30.5064 7.62658C30.5113 7.61518 30.5172 7.5977 30.5221 7.58326C30.527 7.56882 30.5319 7.55894 30.5358 7.54602C30.5397 7.5331 30.5456 7.51638 30.5495 7.50118L30.5613 7.46166C30.5613 7.4457 30.5682 7.42898 30.5721 7.41302L30.5809 7.3735L30.5897 7.31726L30.5956 7.28154L30.6015 7.21694V7.18578C30.6015 7.15335 30.6015 7.11991 30.6015 7.08546C30.6015 7.03606 30.6015 6.98666 30.5956 6.93346C30.5952 6.93018 30.5952 6.92686 30.5956 6.92358C30.5907 6.8681 30.5848 6.81186 30.575 6.75486V6.73586L30.5574 6.6439C30.5574 6.6287 30.5505 6.6135 30.5466 6.59754C30.5407 6.5755 30.5358 6.5527 30.5299 6.5299V6.51926C30.4955 6.39227 30.4516 6.26692 30.3986 6.14382C30.3278 5.97818 30.2427 5.81644 30.1438 5.6597L30.1379 5.64982C30.0811 5.5609 30.0213 5.47274 29.9566 5.38686L29.939 5.3633C29.9096 5.32454 29.8792 5.2873 29.8488 5.2493L29.8273 5.2227C29.743 5.12162 29.6548 5.02434 29.5607 4.93086C29.4686 4.83915 29.3706 4.75125 29.2667 4.66714C29.2285 4.63522 29.1893 4.60482 29.1501 4.57366L29.1305 4.55998C29.0795 4.52046 29.0276 4.48398 28.9737 4.44598H28.9678C28.9129 4.40798 28.8561 4.36998 28.7993 4.33654L28.7689 4.31754C28.715 4.28562 28.6611 4.25522 28.6052 4.22634L28.5993 4.22254C28.5641 4.2043 28.5288 4.18606 28.4935 4.16934C28.4582 4.15262 28.4327 4.1397 28.4014 4.12602C28.3543 4.10474 28.3034 4.08574 28.2612 4.0675C28.1274 4.01448 27.9873 3.97172 27.8428 3.93982L27.8046 3.93222L27.7438 3.92082L27.7017 3.91474L27.6448 3.90714H27.6399H27.5988L27.5262 3.90106H27.5204H27.4978C27.4453 3.89878 27.3926 3.89878 27.34 3.90106H27.3175C27.2842 3.90106 27.2509 3.90562 27.2195 3.90942C27.1732 3.9146 27.1273 3.92222 27.0823 3.93222H27.0745H27.0656C27.0353 3.93982 27.0059 3.94818 26.9765 3.9573L26.9627 3.96186C26.9226 3.97554 26.8824 3.98998 26.8442 4.0067L27.3871 3.76198L27.3988 3.75666L27.4135 3.75058C27.44 3.73994 27.4674 3.7293 27.4949 3.72018C27.4999 3.71785 27.5051 3.71582 27.5106 3.7141H27.5233C27.556 3.70397 27.5886 3.69485 27.6213 3.68674C27.6577 3.67863 27.6947 3.67204 27.732 3.66698H27.7448H27.7624C27.7948 3.6625 27.8276 3.65946 27.8604 3.65786H27.8771H27.882C27.9247 3.65596 27.9676 3.65596 28.0104 3.65786H28.0231H28.0652H28.0946C28.124 3.65786 28.1544 3.66242 28.1848 3.66622L28.2828 3.68066L28.3142 3.68674L28.3779 3.6989H28.3837C28.4229 3.70726 28.4631 3.71638 28.5033 3.72702L28.5278 3.73462C28.5601 3.74298 28.5925 3.75286 28.6258 3.7635L28.6395 3.7673L28.664 3.77566C28.6983 3.78706 28.7336 3.79998 28.7689 3.8129L28.8091 3.8281C28.8551 3.84634 28.9071 3.86534 28.9492 3.88662C28.9913 3.9079 29.0658 3.94134 29.1236 3.97174L29.153 3.98694C29.2079 4.01582 29.2628 4.04622 29.3167 4.07814L29.3471 4.09714C29.402 4.13058 29.4559 4.16478 29.5088 4.20126C29.5138 4.20415 29.5184 4.20746 29.5225 4.21114C29.5744 4.2461 29.6205 4.28258 29.6744 4.32058L29.6891 4.33122L29.6989 4.33882C29.7371 4.3677 29.7744 4.39734 29.8116 4.4285L29.8175 4.43306C29.8528 4.4627 29.8871 4.49234 29.9214 4.52274L29.9312 4.5311L29.9429 4.5425C29.9988 4.59266 30.0537 4.64358 30.1066 4.6945V4.69906C30.1108 4.70293 30.1147 4.70699 30.1183 4.71122C30.1608 4.75378 30.202 4.7971 30.2418 4.84118L30.2546 4.8541C30.2566 4.85621 30.2582 4.85851 30.2595 4.86094C30.2987 4.90274 30.3359 4.94606 30.3722 4.99014C30.3752 4.99448 30.3788 4.99856 30.3829 5.0023L30.3976 5.02206C30.427 5.05778 30.4555 5.09806 30.4839 5.13074L30.4966 5.14746C30.4969 5.14973 30.4969 5.15203 30.4966 5.1543C30.529 5.19686 30.5593 5.23942 30.5887 5.28198L30.5956 5.29262L30.6103 5.3139L30.6779 5.41726C30.6779 5.4241 30.6867 5.4317 30.6916 5.43854C30.6965 5.44538 30.6965 5.44766 30.6995 5.45146C30.7259 5.49554 30.7524 5.53962 30.7769 5.5837C30.7788 5.58838 30.7811 5.59295 30.7838 5.59738C30.8063 5.63766 30.8269 5.67794 30.8475 5.71822C30.8475 5.72506 30.8543 5.73114 30.8582 5.73798C30.8622 5.74482 30.8631 5.74862 30.8651 5.7547C30.8886 5.80182 30.9112 5.8497 30.9317 5.89758V5.90594C30.9533 5.95661 30.9729 6.00727 30.9905 6.05794L30.9974 6.07694C30.9978 6.08023 30.9978 6.08354 30.9974 6.08682C31.017 6.14458 31.0356 6.20158 31.0513 6.25858C31.0517 6.26364 31.0517 6.26872 31.0513 6.27378L31.0572 6.29658C31.0631 6.31862 31.068 6.34142 31.0738 6.36346C31.0797 6.3855 31.0807 6.39462 31.0846 6.41058C31.0885 6.42654 31.0934 6.45694 31.0974 6.47974C31.0974 6.49038 31.1023 6.50102 31.1042 6.51242C31.1038 6.5152 31.1038 6.518 31.1042 6.52078C31.1121 6.57018 31.1179 6.61958 31.1228 6.66822C31.1228 6.67886 31.1228 6.68874 31.1228 6.69938C31.1228 6.74954 31.1297 6.79894 31.1297 6.85138C31.1297 7.39326 30.8808 7.77402 30.4839 7.95338L29.941 8.1981L29.9753 8.18062C29.987 8.1753 29.9988 8.16998 30.0096 8.1639L30.0674 8.13198Z" fill="#EBEBEB"/>
<path d="M26.1778 5.10413C26.1778 6.19397 27.1578 7.52169 28.3857 8.06813C29.0188 8.35161 29.5911 8.37213 29.9958 8.17073C30.0076 8.16541 30.0194 8.16009 30.0301 8.15401L30.0674 8.13273L30.0997 8.11297C30.1118 8.10574 30.1233 8.09786 30.134 8.08941C30.1448 8.08257 30.1556 8.07573 30.1654 8.06813L30.1977 8.04229L30.2271 8.01797C30.238 8.0091 30.2482 7.99971 30.2575 7.98985C30.2663 7.98149 30.2761 7.97313 30.2849 7.96401C30.2938 7.95489 30.3036 7.94349 30.3124 7.93361C30.3212 7.92373 30.33 7.91537 30.3379 7.90549C30.3457 7.89561 30.3555 7.88345 30.3633 7.87205C30.3712 7.86065 30.38 7.85229 30.3869 7.84241C30.3937 7.83253 30.4025 7.81885 30.4104 7.80669L30.4319 7.77477L30.4525 7.73677C30.4584 7.72537 30.4653 7.71473 30.4711 7.70333C30.477 7.69193 30.4839 7.67597 30.4898 7.66229C30.4956 7.64861 30.5015 7.63873 30.5064 7.62733C30.5113 7.61593 30.5172 7.59845 30.5221 7.58401C30.527 7.56957 30.5319 7.55969 30.5358 7.54677C30.5397 7.53385 30.5456 7.51713 30.5495 7.50193L30.5613 7.46241C30.5613 7.44645 30.5682 7.42973 30.5721 7.41377L30.5809 7.37425L30.5897 7.31801L30.5956 7.28229L30.6015 7.21769V7.18653C30.6015 7.1541 30.6015 7.12066 30.6015 7.08621C30.6015 7.03681 30.6015 6.98741 30.5956 6.93421V6.92433C30.5907 6.86885 30.5848 6.81261 30.575 6.75561V6.73661L30.5574 6.64465C30.5574 6.62945 30.5505 6.61425 30.5466 6.59829C30.5427 6.58233 30.5358 6.55345 30.5299 6.53065V6.52001C30.4955 6.39302 30.4516 6.26766 30.3986 6.14457C30.3278 5.97893 30.2427 5.81719 30.1438 5.66045L30.1379 5.65057C30.0811 5.56165 30.0213 5.47349 29.9566 5.38761L29.939 5.36405C29.9096 5.32529 29.8792 5.28805 29.8488 5.25005L29.8273 5.22345C29.743 5.12237 29.6548 5.02509 29.5607 4.93161C29.4686 4.8399 29.3706 4.75199 29.2667 4.66789C29.2285 4.63597 29.1893 4.60557 29.1501 4.57441L29.1305 4.56073C29.0795 4.52121 29.0276 4.48473 28.9737 4.44673H28.9678C28.9129 4.40873 28.8561 4.37073 28.7993 4.33729C28.7884 4.33138 28.7779 4.32503 28.7679 4.31829C28.714 4.28637 28.6601 4.25597 28.6042 4.22709L28.5984 4.22329C28.5631 4.20505 28.5278 4.18681 28.4925 4.17009C28.4572 4.15337 28.4318 4.14045 28.4004 4.12677C28.3534 4.10549 28.3024 4.08649 28.2603 4.06825C28.1265 4.01522 27.9863 3.97246 27.8418 3.94057L27.8016 3.93297L27.7409 3.92157C27.7262 3.92157 27.7115 3.91701 27.6968 3.91473L27.6399 3.90713L27.5939 3.90257L27.5213 3.89649H27.4929C27.4404 3.89421 27.3877 3.89421 27.3351 3.89649H27.3097C27.2763 3.89649 27.243 3.90105 27.2117 3.90485C27.1653 3.91002 27.1195 3.91764 27.0745 3.92765H27.0578C27.0274 3.93525 26.998 3.94361 26.9686 3.95273L26.9529 3.95729C26.9128 3.97097 26.8726 3.98541 26.8344 4.00213C26.4277 4.17997 26.1797 4.55997 26.1778 5.10413ZM27.588 7.42061L27.5821 7.41529C27.5498 7.38869 27.5184 7.36133 27.4841 7.33321L27.4635 7.31497C27.4116 7.26861 27.3655 7.22149 27.3126 7.17285L27.2969 7.15689C27.2577 7.11737 27.2205 7.08089 27.1832 7.03681L27.1666 7.01933C27.1313 6.97981 27.097 6.94333 27.0637 6.89925C27.0549 6.88937 27.047 6.87949 27.0392 6.86961C27.0117 6.83693 26.9853 6.80273 26.9598 6.76853C26.9537 6.76171 26.9481 6.7546 26.9431 6.74725C26.9137 6.70849 26.8853 6.67125 26.8579 6.62945L26.8383 6.59905C26.8167 6.56789 26.7961 6.53597 26.7756 6.50405L26.756 6.47213C26.7305 6.43185 26.707 6.39157 26.6834 6.35053L26.6746 6.33305C26.654 6.29581 26.6344 6.25705 26.6158 6.22209L26.5992 6.18865C26.5776 6.14457 26.557 6.10049 26.5384 6.05641C26.5384 6.05641 26.5384 6.04957 26.5335 6.04577C26.5139 6.00017 26.4963 5.95457 26.4796 5.90897L26.4708 5.88313C26.4512 5.82993 26.4345 5.77673 26.4198 5.72429C26.4198 5.71213 26.4139 5.70073 26.41 5.68933L26.3953 5.62701C26.3953 5.61409 26.3885 5.60117 26.3865 5.58749C26.3845 5.57381 26.3767 5.54265 26.3728 5.51985C26.3689 5.49705 26.3679 5.49477 26.3659 5.48185C26.3581 5.43625 26.3532 5.39065 26.3483 5.34581C26.3483 5.33593 26.3483 5.32605 26.3483 5.31693C26.3483 5.27057 26.3424 5.22421 26.3424 5.17861C26.3424 5.14745 26.3424 5.11629 26.3424 5.08665V5.05245C26.3424 5.03421 26.3424 5.01521 26.3483 4.99773C26.3542 4.98025 26.3483 4.97493 26.3532 4.96353C26.3581 4.95213 26.3532 4.92857 26.361 4.91185C26.3689 4.89513 26.3669 4.88829 26.3689 4.87689C26.3708 4.86549 26.3757 4.84573 26.3796 4.83053C26.3836 4.81533 26.3865 4.80697 26.3894 4.79481C26.3924 4.78265 26.3983 4.76669 26.4022 4.75225C26.4061 4.73781 26.411 4.72945 26.4149 4.71805C26.4188 4.70665 26.4247 4.69145 26.4306 4.67853L26.4453 4.64509C26.4512 4.63293 26.4561 4.62001 26.4629 4.60785C26.4698 4.59569 26.4747 4.58733 26.4796 4.57669C26.4845 4.56605 26.4923 4.55313 26.4992 4.54173C26.5061 4.53033 26.5119 4.52197 26.5188 4.51209C26.5257 4.50221 26.5325 4.49005 26.5404 4.47941L26.5619 4.45205L26.5854 4.42089L26.609 4.39505C26.6178 4.38593 26.6256 4.37605 26.6354 4.36693C26.6452 4.35781 26.6521 4.35097 26.6609 4.34261C26.6697 4.33425 26.6785 4.32513 26.6883 4.31677C26.6981 4.30841 26.707 4.30157 26.7158 4.29397L26.7452 4.27041L26.7746 4.24989L26.8059 4.22861L26.8373 4.21037L26.8706 4.19137L26.903 4.17465C27.0038 4.12579 27.1149 4.09106 27.2313 4.07205C27.5615 4.01733 27.9614 4.07737 28.3926 4.27041C29.5235 4.77657 30.4388 6.00473 30.4349 7.01325C30.4349 7.39325 30.3045 7.68205 30.084 7.87433C30.0114 7.93845 29.9256 7.99289 29.8302 8.03545L29.8204 8.03925C29.793 8.05065 29.7646 8.06129 29.7361 8.07117L29.7097 8.07953C29.6829 8.08814 29.6555 8.09574 29.6274 8.10233H29.6127C29.5793 8.10917 29.545 8.11525 29.5147 8.12057H29.4882C29.4578 8.12057 29.4284 8.12665 29.3971 8.12893H29.3735C29.3353 8.12893 29.2951 8.12893 29.255 8.12893H29.2295H29.1648L29.0903 8.12209L29.0433 8.11525L28.9982 8.10841C28.9864 8.10841 28.9747 8.10385 28.9629 8.10157L28.9051 8.09093C28.8292 8.07419 28.7546 8.05415 28.6817 8.03089L28.6493 8.02025C28.6091 8.00657 28.5699 7.99289 28.5298 7.97693C28.5243 7.97536 28.519 7.97332 28.5141 7.97085C28.471 7.95413 28.4278 7.93665 28.3837 7.91689C28.3396 7.89713 28.2759 7.86597 28.223 7.84089H28.2152C28.1515 7.80745 28.0878 7.77173 28.026 7.73449L28.0153 7.72841C27.9623 7.69573 27.9094 7.66229 27.8585 7.62657H27.8536C27.8055 7.59465 27.7556 7.56045 27.7134 7.52625L27.6909 7.50877C27.6576 7.47685 27.6223 7.44797 27.588 7.42061Z" fill="white"/>
<path d="M41.7568 10.8938L41.7509 12.6692L41.4736 12.7946L41.4804 10.7707L41.7568 10.8938Z" fill="#F0F0F0"/>
<path d="M44.7458 14.0106L44.7448 14.2591L41.4736 12.7946L41.7509 12.6692L44.7458 14.0106Z" fill="#F5F5F5"/>
<path d="M41.1365 12.9428L45.08 14.7083L45.0898 12.087L41.1473 10.3215L41.1365 12.9428ZM41.4736 12.7908L41.4805 10.7661L41.7568 10.89L44.7527 12.236L44.7458 14.0113V14.2599L41.4736 12.7908Z" fill="#E0E0E0"/>
<path d="M41.1463 10.3215L41.4236 10.1969L45.3662 11.9624L45.0888 12.087L41.1463 10.3215Z" fill="#F5F5F5"/>
<path d="M45.3662 11.9624L45.3564 14.5829L45.079 14.7083L45.0888 12.087L45.3662 11.9624Z" fill="#F0F0F0"/>
<path d="M41.8744 7.29673L41.8685 9.07209L41.5902 9.19673L41.598 7.17285L41.8744 7.29673Z" fill="#F0F0F0"/>
<path d="M44.8634 10.4127L44.8624 10.662L41.5902 9.19672L41.8685 9.07208L44.8634 10.4127Z" fill="#F5F5F5"/>
<path d="M41.258 9.34801L45.2005 11.1135L45.2103 8.49225L41.2639 6.72449L41.258 9.34801ZM41.5941 9.19601L41.602 7.17213L41.8744 7.29601L44.8703 8.63741L44.8634 10.412V10.6613L41.5941 9.19601Z" fill="#E0E0E0"/>
<path d="M41.2639 6.72446L41.5412 6.59906L45.4837 8.36454L45.2064 8.48994L41.2639 6.72446Z" fill="#F5F5F5"/>
<path d="M45.4837 8.36456L45.4739 10.9858L45.1966 11.1104L45.2064 8.48996L45.4837 8.36456Z" fill="#F0F0F0"/>
<path d="M42.7094 11.5679L41.892 12.0673L41.8901 12.5544L44.6067 13.7704L44.6086 13.2833L44.0912 12.486L43.6267 12.7657L43.7903 13.1617L43.5522 12.8105L42.7094 11.5679Z" fill="#E0E0E0"/>
<path d="M43.6012 11.8134C43.4738 11.7564 43.3689 11.8028 43.3689 11.9168C43.3732 11.9789 43.3963 12.0393 43.4366 12.0931C43.4768 12.1468 43.5328 12.1924 43.6002 12.2261C43.7276 12.2839 43.8315 12.2375 43.8324 12.1235C43.8281 12.0614 43.8049 12.0009 43.7647 11.947C43.7245 11.8931 43.6685 11.8474 43.6012 11.8134Z" fill="#E0E0E0"/>
<path d="M42.826 7.97089L42.0097 8.46945L42.0077 8.95661L44.7243 10.1734L44.7262 9.68621L44.2088 8.88821L43.7433 9.16865L43.9079 9.56461L43.6698 9.21273L42.826 7.97089Z" fill="#E0E0E0"/>
<path d="M43.7188 8.21631C43.5904 8.15931 43.4865 8.20491 43.4865 8.31891C43.4906 8.38103 43.5136 8.44152 43.5536 8.49542C43.5936 8.54931 43.6496 8.59509 43.7168 8.62899C43.8452 8.68599 43.9491 8.64039 43.9491 8.52639C43.945 8.46427 43.922 8.40379 43.882 8.34989C43.8419 8.29599 43.786 8.25021 43.7188 8.21631Z" fill="#E0E0E0"/>
<path d="M18.9444 6.05264C18.8758 5.86492 18.3838 5.50772 17.8938 5.51532C17.8469 5.51646 17.8005 5.52365 17.7566 5.5366L8.25159 9.728C8.09263 9.79806 7.96509 9.90413 7.88606 10.032C7.82334 10.1279 7.78981 10.2338 7.78806 10.3413V26.2899C7.78806 26.6958 8.39174 27.0834 8.95916 26.8979C8.97204 26.8951 8.98452 26.8913 8.9964 26.8865L18.5024 22.6852C18.6416 22.6235 18.7574 22.5344 18.8379 22.4268C18.9185 22.3192 18.9609 22.1971 18.961 22.0727V6.1294C18.9632 6.10316 18.9575 6.07689 18.9444 6.05264Z" fill="#455A64"/>
<path d="M9.11398 12.0285C9.1143 11.9667 9.13567 11.906 9.17594 11.8526C9.21621 11.7992 9.27394 11.755 9.3433 11.7245L18.1741 7.828C18.2086 7.81274 18.2476 7.80475 18.2873 7.80481C18.327 7.80487 18.3659 7.813 18.4003 7.82837C18.4347 7.84374 18.4633 7.86582 18.4833 7.89242C18.5032 7.91903 18.5139 7.94922 18.5141 7.98V20.8392C18.5133 20.901 18.4918 20.9615 18.4515 21.0148C18.4113 21.0681 18.3539 21.1124 18.2848 21.1432L9.45796 25.0466C9.42349 25.0618 9.38447 25.0698 9.34478 25.0697C9.30509 25.0697 9.26611 25.0616 9.23172 25.0462C9.19734 25.0308 9.16874 25.0087 9.14877 24.9821C9.1288 24.9555 9.11816 24.9253 9.1179 24.8946L9.11398 12.0285Z" fill="#407BFF"/>
<path opacity="0.2" d="M9.11398 12.0285C9.1143 11.9667 9.13567 11.906 9.17594 11.8526C9.21621 11.7992 9.27394 11.755 9.3433 11.7245L18.1741 7.828C18.2086 7.81274 18.2476 7.80475 18.2873 7.80481C18.327 7.80487 18.3659 7.813 18.4003 7.82837C18.4347 7.84374 18.4633 7.86582 18.4833 7.89242C18.5032 7.91903 18.5139 7.94922 18.5141 7.98V20.8392C18.5133 20.901 18.4918 20.9615 18.4515 21.0148C18.4113 21.0681 18.3539 21.1124 18.2848 21.1432L9.45796 25.0466C9.42349 25.0618 9.38447 25.0698 9.34478 25.0697C9.30509 25.0697 9.26611 25.0616 9.23172 25.0462C9.19734 25.0308 9.16874 25.0087 9.14877 24.9821C9.1288 24.9555 9.11816 24.9253 9.1179 24.8946L9.11398 12.0285Z" fill="black"/>
<path opacity="0.1" d="M9.11398 12.0285C9.1143 11.9667 9.13567 11.906 9.17594 11.8526C9.21621 11.7992 9.27394 11.755 9.3433 11.7245L18.1741 7.828C18.2086 7.81274 18.2476 7.80475 18.2873 7.80481C18.327 7.80487 18.3659 7.813 18.4003 7.82837C18.4347 7.84374 18.4633 7.86582 18.4833 7.89242C18.5032 7.91903 18.5139 7.94922 18.5141 7.98V20.8392C18.5133 20.901 18.4918 20.9615 18.4515 21.0148C18.4113 21.0681 18.3539 21.1124 18.2848 21.1432L9.45796 25.0466C9.42349 25.0618 9.38447 25.0698 9.34478 25.0697C9.30509 25.0697 9.26611 25.0616 9.23172 25.0462C9.19734 25.0308 9.16874 25.0087 9.14877 24.9821C9.1288 24.9555 9.11816 24.9253 9.1179 24.8946L9.11398 12.0285Z" fill="white"/>
<path opacity="0.3" d="M7.79196 10.3429V26.29C7.79196 26.6958 8.39564 27.0834 8.96306 26.898C8.929 26.9076 8.89244 26.9108 8.85648 26.9071C8.82052 26.9035 8.78623 26.8932 8.7565 26.8771C8.72678 26.861 8.70251 26.8395 8.68575 26.8146C8.66899 26.7896 8.66024 26.7619 8.66024 26.7338V10.7837C8.66267 10.6446 8.71826 10.5092 8.81998 10.3946L7.88604 10.032C7.82439 10.1287 7.7922 10.235 7.79196 10.3429Z" fill="black"/>
<path opacity="0.1" d="M17.8948 5.51458C17.8478 5.51573 17.8015 5.52292 17.7576 5.53586L8.25159 9.72802C8.09262 9.79809 7.96508 9.90416 7.88605 10.032L8.81999 10.3945C8.89744 10.3007 9.00259 10.2226 9.12673 10.1665L18.6327 5.97286C18.6596 5.96088 18.6894 5.95333 18.7202 5.95068C18.7511 5.94804 18.7823 5.95035 18.8119 5.95749C18.8415 5.96462 18.8689 5.97642 18.8924 5.99214C18.9158 6.00786 18.9349 6.02718 18.9483 6.04886C18.8767 5.86418 18.3848 5.50698 17.8948 5.51458Z" fill="white"/>
<path d="M14.9871 8.60929C15.0547 8.57965 15.1096 8.60321 15.1096 8.66249C15.1071 8.69516 15.0948 8.72693 15.0737 8.75529C15.0526 8.78365 15.0233 8.80781 14.9881 8.82589L13.1261 9.66189C13.0595 9.69229 13.0056 9.66721 13.0056 9.60717C13.0078 9.57492 13.0198 9.54354 13.0406 9.51555C13.0613 9.48756 13.0903 9.46376 13.1251 9.44605L14.9871 8.60929Z" fill="#263238"/>
<path d="M12.642 9.65889C12.7086 9.62925 12.7625 9.65281 12.7625 9.71285C12.7602 9.74537 12.748 9.77701 12.7271 9.80525C12.7062 9.83349 12.677 9.85754 12.642 9.87549C12.5754 9.90513 12.5205 9.88081 12.5205 9.82153C12.5226 9.78887 12.5347 9.75708 12.5558 9.72879C12.5769 9.7005 12.6065 9.67653 12.642 9.65889Z" fill="#263238"/>
<path d="M13.8376 8.48844C13.9709 8.4284 14.0787 8.47628 14.0787 8.59484C14.0745 8.65979 14.0506 8.72306 14.0089 8.77946C13.9671 8.83587 13.9088 8.88381 13.8386 8.91936C13.7053 8.9794 13.5946 8.93076 13.5946 8.81144C13.5995 8.74658 13.6241 8.68353 13.6663 8.62741C13.7085 8.57129 13.7672 8.52368 13.8376 8.48844Z" fill="#263238"/>
<path d="M13.8376 23.5008C14.11 23.3792 14.3276 23.4764 14.3276 23.7181C14.3189 23.8506 14.27 23.9796 14.1849 24.0946C14.0997 24.2097 13.9807 24.3075 13.8376 24.3801C13.5661 24.5017 13.3407 24.4021 13.3398 24.1597C13.3499 24.0272 13.4003 23.8984 13.4868 23.7839C13.5733 23.6694 13.6935 23.5724 13.8376 23.5008Z" fill="#263238"/>
<path d="M18.4848 7.62585L21.6952 9.69229L20.5251 10.2167L17.3156 8.15025L18.4848 7.62585Z" fill="#407BFF"/>
<path d="M16.1455 8.67468L19.355 10.7404L18.1849 11.2648L14.9763 9.19908L16.1455 8.67468Z" fill="#407BFF"/>
<path d="M14.9763 9.19904L18.1849 11.2647L17.0147 11.7891L13.8062 9.72344L14.9763 9.19904Z" fill="white"/>
<path d="M17.3156 8.15027L20.5251 10.2167L19.355 10.7403L16.1455 8.67467L17.3156 8.15027Z" fill="white"/>
<path d="M11.467 10.7715L14.6745 12.8372L13.5044 13.3616L10.2969 11.2959L11.467 10.7715Z" fill="#407BFF"/>
<path d="M13.8062 9.72345L17.0147 11.7891L15.8446 12.3128L12.6361 10.2471L13.8062 9.72345Z" fill="#407BFF"/>
<path d="M9.10516 11.8302L10.2968 11.2959L13.5044 13.3616L12.3098 13.8966L9.10516 11.8302Z" fill="white"/>
<path d="M12.6361 10.2471L15.8446 12.3128L14.6745 12.8372L11.467 10.7715L12.6361 10.2471Z" fill="white"/>
<path d="M21.6952 9.69232L20.5251 10.2167C20.525 10.2782 20.5458 10.3386 20.5854 10.3919C20.625 10.4452 20.6819 10.4895 20.7506 10.5203C20.8192 10.5511 20.8971 10.5674 20.9764 10.5674C21.0557 10.5675 21.1336 10.5514 21.2023 10.5207C21.3515 10.4531 21.4753 10.3563 21.5613 10.2401C21.6473 10.1238 21.6924 9.99204 21.6923 9.858L21.6952 9.69232Z" fill="#407BFF"/>
<path d="M20.5251 10.2167L19.355 10.7411C19.3549 10.8026 19.3757 10.863 19.4153 10.9163C19.4549 10.9696 19.5118 11.0138 19.5804 11.0447C19.6491 11.0755 19.7269 11.0917 19.8062 11.0918C19.8855 11.0919 19.9635 11.0758 20.0322 11.0451C20.1815 10.9776 20.3054 10.8808 20.3914 10.7645C20.4774 10.6482 20.5225 10.5164 20.5222 10.3824L20.5251 10.2167Z" fill="#E0E0E0"/>
<path d="M19.355 10.7411L18.1849 11.2647C18.1848 11.3262 18.2056 11.3867 18.2452 11.4399C18.2847 11.4932 18.3417 11.5375 18.4103 11.5683C18.4789 11.5991 18.5568 11.6154 18.6361 11.6154C18.7154 11.6155 18.7933 11.5994 18.8621 11.5687C19.0114 11.5012 19.1353 11.4045 19.2213 11.2882C19.3073 11.1719 19.3524 11.0401 19.3521 10.906L19.355 10.7411Z" fill="#407BFF"/>
<path d="M18.1849 11.2648L17.0148 11.7892C17.0144 11.8508 17.035 11.9113 17.0745 11.9647C17.114 12.0182 17.171 12.0626 17.2397 12.0934C17.3084 12.1243 17.3865 12.1405 17.4659 12.1404C17.5453 12.1404 17.6233 12.1241 17.6919 12.0932C17.8412 12.0258 17.9651 11.9292 18.0511 11.813C18.1371 11.6968 18.1822 11.5652 18.1819 11.4312L18.1849 11.2648Z" fill="#E0E0E0"/>
<path d="M17.0148 11.7891L15.8446 12.312C15.8446 12.3735 15.8653 12.4339 15.9049 12.4872C15.9445 12.5405 16.0015 12.5848 16.0701 12.6156C16.1387 12.6464 16.2166 12.6626 16.2959 12.6627C16.3752 12.6628 16.4531 12.6467 16.5218 12.616C16.6712 12.5485 16.7951 12.4518 16.8811 12.3354C16.9671 12.2191 17.0121 12.0874 17.0118 11.9533L17.0148 11.7891Z" fill="#407BFF"/>
<path d="M15.8446 12.312L14.6745 12.8357C14.6744 12.8971 14.6952 12.9576 14.7348 13.0109C14.7744 13.0642 14.8313 13.1084 14.9 13.1392C14.9686 13.17 15.0465 13.1863 15.1258 13.1864C15.205 13.1864 15.283 13.1703 15.3517 13.1397C15.5009 13.072 15.6247 12.9753 15.7107 12.859C15.7967 12.7427 15.8418 12.611 15.8417 12.4769L15.8446 12.312Z" fill="#E0E0E0"/>
<path d="M14.6745 12.8372L13.5044 13.3616C13.504 13.4231 13.5246 13.4837 13.5641 13.5371C13.6036 13.5906 13.6606 13.6349 13.7293 13.6658C13.7981 13.6967 13.8761 13.7129 13.9555 13.7128C14.0349 13.7128 14.1129 13.6965 14.1816 13.6656C14.3314 13.5985 14.4557 13.5018 14.5418 13.3854C14.6278 13.269 14.6726 13.137 14.6716 13.0028L14.6745 12.8372Z" fill="#407BFF"/>
<path opacity="0.2" d="M21.6952 9.69232L20.5251 10.2167C20.525 10.2782 20.5458 10.3386 20.5854 10.3919C20.625 10.4452 20.6819 10.4895 20.7506 10.5203C20.8192 10.5511 20.8971 10.5674 20.9764 10.5674C21.0557 10.5675 21.1336 10.5514 21.2023 10.5207C21.3515 10.4531 21.4753 10.3563 21.5613 10.2401C21.6473 10.1238 21.6924 9.99204 21.6923 9.858L21.6952 9.69232Z" fill="black"/>
<path opacity="0.2" d="M19.355 10.7411L18.1849 11.2647C18.1848 11.3262 18.2056 11.3867 18.2452 11.4399C18.2847 11.4932 18.3417 11.5375 18.4103 11.5683C18.4789 11.5991 18.5568 11.6154 18.6361 11.6154C18.7154 11.6155 18.7933 11.5994 18.8621 11.5687C19.0114 11.5012 19.1353 11.4045 19.2213 11.2882C19.3073 11.1719 19.3524 11.0401 19.3521 10.906L19.355 10.7411Z" fill="black"/>
<path opacity="0.2" d="M17.0148 11.7891L15.8446 12.312C15.8446 12.3735 15.8653 12.4339 15.9049 12.4872C15.9445 12.5405 16.0015 12.5848 16.0701 12.6156C16.1387 12.6464 16.2166 12.6626 16.2959 12.6627C16.3752 12.6628 16.4531 12.6467 16.5218 12.616C16.6712 12.5485 16.7951 12.4518 16.8811 12.3354C16.9671 12.2191 17.0121 12.0874 17.0118 11.9533L17.0148 11.7891Z" fill="black"/>
<path opacity="0.2" d="M14.6745 12.8372L13.5044 13.3616C13.504 13.4231 13.5246 13.4837 13.5641 13.5371C13.6036 13.5906 13.6606 13.6349 13.7293 13.6658C13.7981 13.6967 13.8761 13.7129 13.9555 13.7128C14.0349 13.7128 14.1129 13.6965 14.1816 13.6656C14.3314 13.5985 14.4557 13.5018 14.5418 13.3854C14.6278 13.269 14.6726 13.137 14.6716 13.0028L14.6745 12.8372Z" fill="black"/>
<path d="M13.5044 13.3616L12.3098 13.8936C12.3095 13.955 12.3301 14.0155 12.3696 14.0688C12.409 14.1221 12.4659 14.1664 12.5345 14.1973C12.6031 14.2281 12.6809 14.2444 12.7602 14.2444C12.8394 14.2445 12.9173 14.2283 12.986 14.1976C13.1437 14.127 13.2747 14.0254 13.3657 13.903C13.4567 13.7807 13.5045 13.6419 13.5044 13.5007V13.3616Z" fill="#E0E0E0"/>
<path d="M14.8686 16.036C14.5215 16.0679 14.1847 16.1485 13.8748 16.2739C13.1524 16.5629 12.6003 17.0558 12.3323 17.651C12.2161 17.9066 12.1606 18.1765 12.1687 18.4475C12.2457 18.1914 12.357 17.9423 12.5009 17.7042C12.8226 17.1707 13.3301 16.7175 13.966 16.3955C14.25 16.2518 14.5525 16.1314 14.8686 16.036Z" fill="#407BFF"/>
<path d="M13.9532 20.0154C13.7627 20.0129 13.5739 19.9872 13.3937 19.9394C13.1934 19.8879 13.0084 19.8057 12.8498 19.6977C12.6913 19.5898 12.5623 19.4582 12.4705 19.3108C12.3856 19.1786 12.3284 19.0367 12.301 18.8906C12.2805 19.0435 12.3063 19.1981 12.3764 19.342C12.4554 19.5096 12.5874 19.6591 12.7604 19.7768C12.9333 19.8944 13.1417 19.9765 13.3662 20.0154C13.5592 20.0508 13.7602 20.0508 13.9532 20.0154Z" fill="#407BFF"/>
<path d="M15.4722 17.5712C15.4914 17.7738 15.4874 17.9772 15.4605 18.1792C15.3984 18.6356 15.2056 19.0755 14.896 19.4667C14.7585 19.6405 14.6014 19.8045 14.4266 19.9569C14.6517 19.8401 14.8504 19.6953 15.0146 19.5282C15.3947 19.1434 15.6013 18.6724 15.6026 18.1876C15.6031 17.978 15.5591 17.7697 15.4722 17.5712Z" fill="#407BFF"/>
<path d="M12.3999 16.7322C12.163 16.9089 11.9695 17.1175 11.8286 17.3478C11.4967 17.8822 11.4413 18.4949 11.6738 19.0601C11.7728 19.3033 11.9271 19.5308 12.1295 19.7319C12.0008 19.5052 11.9023 19.2688 11.8355 19.0266C11.6888 18.4842 11.7397 17.9208 11.9825 17.3995C12.0911 17.1663 12.231 16.9426 12.3999 16.7322Z" fill="#407BFF"/>
<path d="M16.1435 16.8218C16.1185 16.6143 16.0224 16.4157 15.8652 16.2465C15.6868 16.0468 15.4371 15.8917 15.1468 15.8003C14.8564 15.709 14.538 15.6852 14.2306 15.732C13.9661 15.7691 13.7189 15.8599 13.5142 15.995C13.7443 15.9075 13.9937 15.8543 14.2492 15.8384C14.5311 15.8184 14.8152 15.851 15.0776 15.9335C15.34 16.016 15.5731 16.146 15.7574 16.3126C15.9263 16.462 16.0573 16.6348 16.1435 16.8218Z" fill="#407BFF"/>
<path d="M20.3468 14.44C20.6572 14.4156 20.9681 14.4829 21.2173 14.6286C21.4664 14.7744 21.6354 14.9877 21.6903 15.2259L22.1451 17.2019L24.9969 18.7485L24.3599 19.3496L21.6472 18.2446C21.4874 18.1796 21.3461 18.0904 21.2315 17.9823C21.1168 17.8742 21.0313 17.7495 20.9798 17.6153L20.1057 15.3285L20.3468 14.44Z" fill="#FFA8A7"/>
<path d="M21.4052 16.5635C21.6572 16.4594 21.859 16.2949 21.9804 16.0946L21.7246 15.1886C21.6594 14.9586 21.4873 14.7552 21.2412 14.6171C20.995 14.4791 20.692 14.4161 20.3899 14.44L20.3468 14.4438L20.1057 15.3338L20.482 16.644C20.7922 16.7041 21.1199 16.6755 21.4052 16.5635Z" fill="#455A64"/>
<path d="M21.4052 16.5635C21.1199 16.6755 20.7922 16.7041 20.482 16.644L20.58 16.967C20.9338 17.0286 21.8403 17.0081 22.0765 16.4274L21.9785 16.093C21.8579 16.2937 21.6567 16.4588 21.4052 16.5635Z" fill="#455A64"/>
<path opacity="0.2" d="M21.4052 16.5635C21.6572 16.4594 21.859 16.2949 21.9804 16.0946L21.7246 15.1886C21.6594 14.9586 21.4873 14.7552 21.2412 14.6171C20.995 14.4791 20.692 14.4161 20.3899 14.44L20.3468 14.4438L20.1057 15.3338L20.482 16.644C20.7922 16.7041 21.1199 16.6755 21.4052 16.5635Z" fill="white"/>
<path opacity="0.5" d="M21.4052 16.5635C21.1199 16.6755 20.7922 16.7041 20.482 16.644L20.58 16.967C20.9338 17.0286 21.8403 17.0081 22.0765 16.4274L21.9785 16.093C21.8579 16.2937 21.6567 16.4588 21.4052 16.5635Z" fill="white"/>
<path d="M20.9779 15.2905C20.9779 15.2905 20.8642 14.6179 20.3468 14.4423C20.3468 14.4423 19.108 14.7304 18.081 15.0328C17.6748 15.1477 17.277 15.2796 16.8893 15.428C16.6561 15.5846 15.9867 16.0505 15.6722 16.1759C15.5185 16.2354 15.3527 16.274 15.1822 16.2899C14.9666 16.3167 14.7597 16.3753 14.5726 16.4624C13.6298 16.885 12.8684 17.9064 12.8713 18.7477C12.8713 19.2987 13.2045 19.6324 13.6975 19.6787H13.72C13.7978 19.6851 13.8764 19.6851 13.9542 19.6787C14.8117 19.6726 16.1867 19.6673 16.7266 19.5472C19.2492 18.9727 21.2327 17.556 20.9779 15.2905Z" fill="#455A64"/>
<path d="M18.5739 15.0146L18.9434 14.4948L20.4301 15.2715L19.8421 15.884C19.7186 15.9309 19.584 15.9574 19.4466 15.9617C19.3093 15.966 19.1723 15.9481 19.0443 15.9091C18.9179 15.8639 18.8048 15.799 18.7121 15.7185C18.6194 15.6379 18.549 15.5435 18.5053 15.441C18.4793 15.37 18.4719 15.2956 18.4837 15.2224C18.4955 15.1491 18.5262 15.0784 18.5739 15.0146Z" fill="#FFA8A7"/>
<path opacity="0.2" d="M19.0826 14.567C19.0826 15.1932 19.7245 15.4866 20.1165 15.5975L20.4301 15.2715L19.0826 14.567Z" fill="black"/>
<path d="M18.4113 13.9422C18.3564 13.6922 18.3005 13.4353 18.3632 13.186C18.426 12.9367 18.6337 12.6935 18.9512 12.6206C19.0157 12.514 19.108 12.419 19.2221 12.3414C19.3363 12.2638 19.47 12.2054 19.6147 12.1699C19.8984 12.1099 20.1919 12.0822 20.4859 12.0878C20.8103 12.0728 21.1359 12.0868 21.4561 12.1296C21.7788 12.1743 22.0721 12.3033 22.2872 12.4952C22.3974 12.6129 22.4756 12.7468 22.517 12.8887C22.5585 13.0305 22.5623 13.1775 22.5282 13.3205C22.4579 13.6065 22.3214 13.8802 22.1255 14.1284C21.5022 14.1626 20.8671 14.2181 20.2439 14.2523C19.9264 14.2781 19.6064 14.2804 19.2884 14.2591C18.9638 14.2185 18.6602 14.1088 18.4113 13.9422Z" fill="#263238"/>
<path d="M22.2274 12.7832C22.3871 13.527 22.2814 14.2905 21.9216 14.991C21.8383 15.1529 21.7256 15.3209 21.5345 15.4068C21.3434 15.4926 21.0769 15.479 20.8485 15.4516C20.4708 15.4182 20.1025 15.3379 19.7578 15.2137C19.4108 15.0868 19.1404 14.8608 19.0032 14.5829C18.8796 14.6022 18.7515 14.5935 18.6342 14.5578C18.5169 14.522 18.4153 14.4608 18.3417 14.3815C18.197 14.2169 18.1219 14.0214 18.1271 13.8222C18.1271 13.6952 18.1574 13.5455 18.3044 13.49C18.4514 13.4346 18.6043 13.4961 18.7229 13.5706C18.9173 13.6932 19.0594 13.8585 19.1306 14.0448C19.2384 13.7355 19.406 13.4368 19.5138 13.1328C19.5569 13.0112 19.6118 12.879 19.746 12.8114C19.9126 12.7285 20.1302 12.7756 20.3232 12.8114C20.9507 12.9278 21.6061 12.9181 22.2274 12.7832Z" fill="#FFA8A7"/>
<path d="M21.0671 13.7203L21.5326 14.3275L20.9779 14.4088L21.0671 13.7203Z" fill="#F28F8F"/>
<path d="M20.4428 14.6179L20.8642 14.7767C20.8282 14.8139 20.7775 14.841 20.7198 14.8538C20.6621 14.8666 20.6006 14.8643 20.5447 14.8474C20.4964 14.8239 20.46 14.7884 20.4414 14.7466C20.4229 14.7048 20.4234 14.6594 20.4428 14.6179Z" fill="#F28F8F"/>
<path opacity="0.3" d="M20.4428 14.6179L20.8642 14.7767C20.8282 14.8139 20.7775 14.841 20.7198 14.8538C20.6621 14.8666 20.6006 14.8643 20.5447 14.8474C20.4964 14.8239 20.46 14.7884 20.4414 14.7466C20.4229 14.7048 20.4234 14.6594 20.4428 14.6179Z" fill="black"/>
<path d="M20.6907 14.858C20.6418 14.8657 20.591 14.862 20.5447 14.8474C20.5059 14.8306 20.4745 14.8052 20.4544 14.7745C20.4344 14.7437 20.4266 14.7091 20.432 14.6749C20.4925 14.675 20.5511 14.6907 20.5986 14.7197C20.6513 14.7548 20.6843 14.8044 20.6907 14.858Z" fill="#F28F8F"/>
<path d="M20.2635 13.7446C20.2603 13.769 20.2666 13.7936 20.2814 13.8152C20.2963 13.8368 20.3191 13.8546 20.347 13.8661C20.3748 13.8777 20.4065 13.8826 20.438 13.8802C20.4694 13.8778 20.4993 13.8683 20.5237 13.8527C20.5481 13.8372 20.5661 13.8164 20.5753 13.7929C20.5844 13.7694 20.5844 13.7444 20.5752 13.7209C20.5661 13.6975 20.5481 13.6767 20.5237 13.6611C20.4992 13.6456 20.4694 13.636 20.4379 13.6336C20.3958 13.6305 20.3538 13.6404 20.3211 13.6612C20.2884 13.682 20.2677 13.712 20.2635 13.7446Z" fill="#263238"/>
<path d="M21.6002 13.8084C21.597 13.8326 21.6032 13.857 21.618 13.8785C21.6327 13.9 21.6553 13.9176 21.6829 13.9291C21.7106 13.9406 21.742 13.9456 21.7732 13.9433C21.8044 13.9409 21.8341 13.9315 21.8584 13.9161C21.8827 13.9008 21.9006 13.8802 21.9099 13.8569C21.9191 13.8337 21.9192 13.8088 21.9103 13.7855C21.9013 13.7622 21.8836 13.7415 21.8595 13.7259C21.8354 13.7104 21.8058 13.7008 21.7746 13.6982C21.7538 13.6966 21.7328 13.6981 21.7128 13.7027C21.6927 13.7073 21.6741 13.715 21.6579 13.7252C21.6417 13.7355 21.6282 13.7481 21.6183 13.7624C21.6084 13.7766 21.6023 13.7923 21.6002 13.8084Z" fill="#263238"/>
<path d="M21.8177 13.3312L22.1451 13.547C22.1647 13.5144 22.171 13.478 22.1631 13.4425C22.1552 13.407 22.1335 13.3743 22.101 13.3487C22.0605 13.3256 22.0126 13.3117 21.9626 13.3086C21.9125 13.3056 21.8624 13.3134 21.8177 13.3312Z" fill="#263238"/>
<path d="M20.5143 13.3145L20.139 13.4756C20.128 13.4407 20.131 13.404 20.1476 13.3704C20.1643 13.3369 20.1938 13.3081 20.2321 13.2879C20.2777 13.2715 20.3282 13.2654 20.3781 13.2701C20.4279 13.2748 20.4751 13.2902 20.5143 13.3145Z" fill="#263238"/>
<path d="M22.5253 13.0333C21.162 13.2025 19.7726 13.2025 18.4093 13.0333C18.473 11.7413 19.2227 11.3179 20.5163 11.3179C21.8099 11.3179 22.54 11.856 22.5253 13.0333Z" fill="#455A64"/>
<path d="M22.5253 13.0333C22.5253 12.5385 22.4018 12.1585 22.1598 11.8827L21.6178 11.7649C21.3628 11.7093 21.095 11.6984 20.8338 11.7329L20.3174 11.7998C20.1406 11.8219 19.978 11.8881 19.8542 11.9883C19.7304 12.0886 19.6521 12.2175 19.6314 12.3554L19.5128 13.1351C20.5187 13.1913 21.5295 13.1571 22.5253 13.0333Z" fill="#455A64"/>
<path opacity="0.29" d="M22.5253 13.0333C22.5253 12.5385 22.4018 12.1585 22.1598 11.8827L21.6178 11.7649C21.3628 11.7093 21.095 11.6984 20.8338 11.7329L20.3174 11.7998C20.1406 11.8219 19.978 11.8881 19.8542 11.9883C19.7304 12.0886 19.6521 12.2175 19.6314 12.3554L19.5128 13.1351C20.5187 13.1913 21.5295 13.1571 22.5253 13.0333Z" fill="white"/>
<path d="M22.687 11.9457H22.4479C22.3705 11.9457 22.294 11.9457 22.2176 11.9525C21.5165 11.992 20.852 12.2107 20.3281 12.5742L19.5226 13.1351C20.5252 13.1907 21.5328 13.1565 22.5253 13.0332L23.0496 12.54C23.1053 12.4866 23.1405 12.4221 23.151 12.3539C23.1616 12.2857 23.1471 12.2165 23.1092 12.1545C23.0713 12.0924 23.0116 12.0398 22.9369 12.0029C22.8622 11.9659 22.7756 11.9461 22.687 11.9457Z" fill="#455A64"/>
<path opacity="0.2" d="M22.687 11.9457H22.4479C22.3705 11.9457 22.294 11.9457 22.2176 11.9525C21.5165 11.992 20.852 12.2107 20.3281 12.5742L19.5226 13.1351C20.5252 13.1907 21.5328 13.1565 22.5253 13.0332L23.0496 12.54C23.1053 12.4866 23.1405 12.4221 23.151 12.3539C23.1616 12.2857 23.1471 12.2165 23.1092 12.1545C23.0713 12.0924 23.0116 12.0398 22.9369 12.0029C22.8622 11.9659 22.7756 11.9461 22.687 11.9457Z" fill="black"/>
<path d="M26.8295 18.8526L23.176 20.4988L19.4991 18.8526L23.1515 17.2057L26.8295 18.8526Z" fill="#407BFF"/>
<g opacity="0.3">
<path d="M26.8295 18.8526L23.176 20.4988L19.4991 18.8526L23.1515 17.2057L26.8295 18.8526Z" fill="white"/>
</g>
<path d="M26.8295 18.8526L26.8187 21.7345L23.1652 23.3807L23.176 20.4988L26.8295 18.8526Z" fill="#407BFF"/>
<g opacity="0.1">
<path d="M26.8295 18.8526L26.8187 21.7345L23.1652 23.3807L23.176 20.4988L26.8295 18.8526Z" fill="white"/>
</g>
<path d="M23.176 20.4988L23.1652 23.3807L19.4883 21.7345L19.4991 18.8526L23.176 20.4988Z" fill="#407BFF"/>
<path d="M23.812 18.6413L25.0488 18.0554L24.4177 17.7726L23.176 18.3472L23.812 18.6413Z" fill="#E0E0E0"/>
<path d="M23.812 18.6413L23.176 18.3472L21.9148 17.7635L21.2856 18.047L22.539 18.6413L23.176 18.943L24.8577 19.741L25.5319 19.437L23.812 18.6413Z" fill="white"/>
<path d="M22.539 18.6413L20.8123 19.4401L21.4885 19.7433L23.176 18.943L22.539 18.6413Z" fill="#E0E0E0"/>
<path d="M25.5319 19.437L24.8577 19.741L24.8636 19.7433L24.8734 22.6108L25.5555 22.3037L25.5457 19.4423L25.5319 19.437Z" fill="#E0E0E0"/>
<path d="M21.4885 19.7433L20.8123 19.4401L20.8064 19.4423L20.7956 22.3205L21.4777 22.6252L21.4885 19.7433Z" fill="white"/>
<path opacity="0.2" d="M21.4885 19.7433L20.8123 19.4401L20.8064 19.4423L20.7956 22.3205L21.4777 22.6252L21.4885 19.7433Z" fill="black"/>
<path d="M23.1741 19.5123L22.4097 19.8748L23.1741 20.2175L23.9365 19.874L23.1741 19.5123Z" fill="white"/>
<path d="M15.9417 19.4127C15.9417 19.4127 16.2268 16.1941 16.2866 15.9927C16.515 15.2274 17.9458 15.2821 18.082 16.0603C18.1378 16.378 17.4842 19.4629 17.4842 19.4629L19.8519 21.4054L20.3311 21.7467L20.7584 21.6798L21.7325 21.7512C21.7584 21.7532 21.7827 21.7617 21.8018 21.7754C21.8209 21.7892 21.8338 21.8073 21.8383 21.8272C21.8446 21.8508 21.8389 21.8753 21.8225 21.8956C21.8061 21.916 21.7801 21.9307 21.7501 21.9367L21.1063 22.0583L21.5708 22.3045C21.6359 22.3391 21.7097 22.3627 21.7874 22.3737L22.5155 22.4808C22.5477 22.4854 22.5765 22.499 22.5966 22.5191C22.6167 22.5391 22.6265 22.5642 22.6243 22.5895C22.6228 22.6095 22.6138 22.6288 22.5985 22.645C22.5832 22.6612 22.5622 22.6736 22.538 22.6807L22.146 22.7939C21.892 22.8679 21.6205 22.8984 21.3498 22.8835C21.0792 22.8685 20.816 22.8084 20.578 22.7073L19.7352 22.344C19.6117 22.2925 19.4951 22.2313 19.3873 22.1616L16.366 20.2236C16.2138 20.1266 16.0952 20.0016 16.0211 19.8599C15.947 19.7183 15.9197 19.5646 15.9417 19.4127Z" fill="#FFA8A7"/>
<path d="M18.0438 18.1792L18.3466 16.4312C18.3654 16.3121 18.3537 16.1913 18.3123 16.0757C18.2709 15.96 18.2005 15.8519 18.1052 15.7573C18.0098 15.6628 17.8914 15.5837 17.7567 15.5247C17.622 15.4657 17.4736 15.4278 17.32 15.4132C17.1664 15.3986 17.0106 15.4077 16.8615 15.4398C16.7124 15.4719 16.573 15.5265 16.4511 15.6004C16.3292 15.6743 16.2272 15.7662 16.1511 15.8706C16.075 15.9751 16.0261 16.0902 16.0073 16.2093L15.7545 17.993C16.0979 18.1469 16.4793 18.2428 16.8738 18.2744C17.2683 18.3061 17.667 18.2729 18.0438 18.1769V18.1792Z" fill="#455A64"/>
<path opacity="0.2" d="M18.0438 18.1792L18.3466 16.4312C18.3654 16.3121 18.3537 16.1913 18.3123 16.0757C18.2709 15.96 18.2005 15.8519 18.1052 15.7573C18.0098 15.6628 17.8914 15.5837 17.7567 15.5247C17.622 15.4657 17.4736 15.4278 17.32 15.4132C17.1664 15.3986 17.0106 15.4077 16.8615 15.4398C16.7124 15.4719 16.573 15.5265 16.4511 15.6004C16.3292 15.6743 16.2272 15.7662 16.1511 15.8706C16.075 15.9751 16.0261 16.0902 16.0073 16.2093L15.7545 17.993C16.0979 18.1469 16.4793 18.2428 16.8738 18.2744C17.2683 18.3061 17.667 18.2729 18.0438 18.1769V18.1792Z" fill="white"/>
<path d="M16.8276 18.2727C16.4481 18.2366 16.0816 18.1423 15.7496 17.9953L15.6918 18.4065C16.71 19.0145 17.9585 18.639 17.9585 18.639L18.0389 18.1792C17.6483 18.2771 17.2353 18.309 16.8276 18.2727Z" fill="#455A64"/>
<path opacity="0.5" d="M16.8276 18.2727C16.4481 18.2366 16.0816 18.1423 15.7496 17.9953L15.6918 18.4065C16.71 19.0145 17.9585 18.639 17.9585 18.639L18.0389 18.1792C17.6483 18.2771 17.2353 18.309 16.8276 18.2727Z" fill="white"/>
<path d="M32.144 20.7131C31.1768 21.2344 30.086 21.5947 29.2795 22.2931C27.7712 23.5973 27.736 25.6964 28.9208 27.1883C30.1056 28.6802 32.3096 29.5762 34.5538 29.7814C36.9058 29.9972 39.3784 29.4926 41.2257 28.3374C43.073 27.1822 44.248 25.3848 44.247 23.5494C44.246 21.714 43.0318 19.8801 41.0463 18.8754C39.2343 17.9634 36.6314 17.6982 34.8135 18.7462C33.8953 19.2782 33.2818 20.0587 32.3635 20.5907C32.2969 20.6318 32.2224 20.672 32.144 20.7131Z" fill="#407BFF"/>
<path opacity="0.2" d="M32.144 20.7131C31.1768 21.2344 30.086 21.5947 29.2795 22.2931C27.7712 23.5973 27.736 25.6964 28.9208 27.1883C30.1056 28.6802 32.3096 29.5762 34.5538 29.7814C36.9058 29.9972 39.3784 29.4926 41.2257 28.3374C43.073 27.1822 44.248 25.3848 44.247 23.5494C44.246 21.714 43.0318 19.8801 41.0463 18.8754C39.2343 17.9634 36.6314 17.6982 34.8135 18.7462C33.8953 19.2782 33.2818 20.0587 32.3635 20.5907C32.2969 20.6318 32.2224 20.672 32.144 20.7131Z" fill="black"/>
<path opacity="0.1" d="M32.144 20.7131C31.1768 21.2344 30.086 21.5947 29.2795 22.2931C27.7712 23.5973 27.736 25.6964 28.9208 27.1883C30.1056 28.6802 32.3096 29.5762 34.5538 29.7814C36.9058 29.9972 39.3784 29.4926 41.2257 28.3374C43.073 27.1822 44.248 25.3848 44.247 23.5494C44.246 21.714 43.0318 19.8801 41.0463 18.8754C39.2343 17.9634 36.6314 17.6982 34.8135 18.7462C33.8953 19.2782 33.2818 20.0587 32.3635 20.5907C32.2969 20.6318 32.2224 20.672 32.144 20.7131Z" fill="white"/>
<path opacity="0.1" d="M32.5419 28.3564C32.5419 28.3434 32.5468 28.3313 32.5487 28.3191C32.6295 27.9129 32.8716 27.5362 33.2414 27.2417C33.6111 26.9472 34.0901 26.7495 34.6116 26.676C35.5466 26.5379 36.4426 26.2721 37.2576 25.8909C37.8349 25.6204 38.3807 25.2882 39.0285 25.1416C39.659 25.0012 40.3322 25.0315 40.9375 25.2274C40.3927 24.7844 39.4597 24.589 38.7139 24.7897C39.2294 24.1764 39.6841 23.5167 39.8625 22.7977C40.0408 22.0788 39.9134 21.2891 39.3548 20.6994C39.117 20.4472 38.8099 20.2391 38.4558 20.0901C38.1017 19.9411 37.7093 19.8549 37.307 19.8377C36.9047 19.8206 36.5025 19.8729 36.1295 19.9908C35.7564 20.1088 35.4218 20.2896 35.1497 20.52C34.596 20.9897 34.2843 21.6509 33.9207 22.2209C33.6591 22.6305 33.3896 23.05 32.9584 23.3609C32.3096 23.8321 31.3747 24.0016 30.7044 24.4522C29.941 24.9637 29.6117 25.7807 29.6087 26.5628C29.6205 27.0904 29.7193 27.6148 29.9027 28.123C30.692 28.7076 31.6337 29.1541 32.6644 29.4325C32.515 29.0863 32.473 28.7176 32.5419 28.3564Z" fill="black"/>
<path d="M42.9877 23.2963C42.957 22.027 42.3472 20.8073 41.2665 19.8537C40.1859 18.9002 38.7044 18.2746 37.0852 18.088C36.8605 18.1053 36.6375 18.1343 36.4178 18.1747C38.1207 18.2447 39.7263 18.8125 40.9112 19.7636C42.0962 20.7147 42.7727 21.9786 42.8044 23.3009C42.8485 25.0116 41.7686 26.7558 39.9174 27.9657C38.467 28.9142 36.5403 29.5435 34.4215 29.7692C34.4666 29.7745 34.5127 29.7791 34.5577 29.7829C34.7479 29.8004 34.939 29.8125 35.131 29.8209C37.0126 29.5374 38.7169 28.9363 40.031 28.0729C41.9283 26.8349 43.0318 25.0496 42.9877 23.2963Z" fill="white"/>
<path d="M31.6873 29.6142L31.9304 29.9873C32.2724 29.7411 32.3351 29.5427 32.3351 29.5427C32.2244 29.2387 32.095 28.9294 32.0303 28.7789C31.998 28.9887 31.8138 29.1688 31.7363 29.3732C31.7079 29.4518 31.6914 29.5327 31.6873 29.6142Z" fill="#37474F"/>
<path d="M31.6991 29.9964L31.9304 29.9873L31.6873 29.6141C31.6805 29.7403 31.6942 29.868 31.6991 29.9964Z" fill="#263238"/>
<path d="M31.8755 28.3389C31.7917 28.2448 31.6954 28.1577 31.5883 28.079C31.647 28.242 31.6453 28.4145 31.5834 28.5768C31.5119 28.7926 31.3816 28.9955 31.3159 29.2129C31.2365 29.4774 31.2551 29.7616 31.1101 30.0094C31.0384 30.1296 30.9315 30.2352 30.798 30.3178C30.6644 30.4004 30.5079 30.4577 30.3408 30.4851C30.2176 30.5117 30.0858 30.4994 29.9743 30.4509C29.9274 30.4251 29.893 30.388 29.8763 30.3453C29.8036 30.4631 29.7153 30.5747 29.6127 30.6782C29.499 30.7922 29.3569 30.9183 29.3882 31.0582C29.4067 31.1166 29.4472 31.1694 29.5044 31.21C29.5616 31.2506 29.633 31.2771 29.7097 31.2862C29.8632 31.3029 30.0196 31.2928 30.1673 31.2565C30.4922 31.2021 30.8023 31.1041 31.0836 30.967C31.3673 30.8265 31.5744 30.6102 31.6658 30.359C31.6991 30.2379 31.711 30.1139 31.701 29.9904C31.701 29.8627 31.6824 29.7343 31.6893 29.6104C31.6931 29.5289 31.7092 29.448 31.7373 29.3695C31.8157 29.165 31.9999 28.9849 32.0313 28.7751C32.0313 28.7637 32.0362 28.7531 32.0372 28.7417C32.0394 28.5976 31.9828 28.4566 31.8755 28.3389Z" fill="#455A64"/>
<path opacity="0.1" d="M31.8755 28.3389C31.7917 28.2448 31.6954 28.1577 31.5883 28.079C31.647 28.242 31.6453 28.4145 31.5834 28.5768C31.5119 28.7926 31.3816 28.9955 31.3159 29.2129C31.2365 29.4774 31.2551 29.7616 31.1101 30.0094C31.0384 30.1296 30.9315 30.2352 30.798 30.3178C30.6644 30.4004 30.5079 30.4577 30.3408 30.4851C30.2176 30.5117 30.0858 30.4994 29.9743 30.4509C29.9274 30.4251 29.893 30.388 29.8763 30.3453C29.8036 30.4631 29.7153 30.5747 29.6127 30.6782C29.499 30.7922 29.3569 30.9183 29.3882 31.0582C29.4067 31.1166 29.4472 31.1694 29.5044 31.21C29.5616 31.2506 29.633 31.2771 29.7097 31.2862C29.8632 31.3029 30.0196 31.2928 30.1673 31.2565C30.4922 31.2021 30.8023 31.1041 31.0836 30.967C31.3673 30.8265 31.5744 30.6102 31.6658 30.359C31.6991 30.2379 31.711 30.1139 31.701 29.9904C31.701 29.8627 31.6824 29.7343 31.6893 29.6104C31.6931 29.5289 31.7092 29.448 31.7373 29.3695C31.8157 29.165 31.9999 28.9849 32.0313 28.7751C32.0313 28.7637 32.0362 28.7531 32.0372 28.7417C32.0394 28.5976 31.9828 28.4566 31.8755 28.3389Z" fill="black"/>
<path d="M30.3408 30.4851C30.5079 30.4576 30.6644 30.4003 30.798 30.3178C30.9315 30.2352 31.0384 30.1296 31.1101 30.0093C31.2552 29.7616 31.2365 29.4773 31.3159 29.2129C31.3816 28.9955 31.5119 28.7926 31.5834 28.5767C31.6453 28.4145 31.647 28.2419 31.5883 28.0789C31.5609 28.0577 31.5335 28.0364 31.5051 28.0159C31.0915 28.1815 30.623 28.3199 30.2457 28.5311C30.2539 28.9054 30.2231 29.2795 30.1536 29.6499C30.1024 29.8906 30.0084 30.1246 29.8743 30.3453C29.891 30.3879 29.9255 30.4251 29.9723 30.4509C30.0278 30.4751 30.0889 30.4906 30.1522 30.4965C30.2154 30.5023 30.2795 30.4985 30.3408 30.4851Z" fill="#AB6160"/>
<path d="M28.9365 29.4987C28.8688 29.808 28.5631 30.438 28.5631 30.438C28.5631 30.438 29.9949 30.4829 30.0272 30.4319L30.4476 29.9273L28.9365 29.4987Z" fill="#C48281"/>
<path d="M33.222 22.1357L29.5715 23.712C29.2404 23.855 28.9755 24.0751 28.8143 24.3411C28.6531 24.6072 28.6036 24.9057 28.6728 25.1947L29.3814 28.1587L28.8002 29.5913C29.302 30.1127 30.4535 30.1393 30.4535 30.1393C31.0964 29.1399 31.5678 28.7158 31.9323 27.8783C32.2969 27.0408 32.5409 26.4632 32.5409 26.4632L35.5789 25.8202C36.2728 25.6739 36.8942 25.3696 37.3629 24.9467C37.8316 24.5237 38.1261 24.0015 38.2082 23.4475C38.2602 23.0918 38.2621 22.8494 38.2621 22.8494L33.222 22.1357Z" fill="#455A64"/>
<path opacity="0.2" d="M32.977 23.0683C32.9775 23.3845 33.1223 23.6903 33.3857 23.9317L31.0836 25.0466C30.705 25.2301 30.4246 25.5135 30.2938 25.8446L29.3814 28.1588L30.2046 25.5816C30.2993 25.2852 30.5399 25.0293 30.8749 24.8687L32.9799 23.864C32.7369 23.3928 32.977 23.0683 32.977 23.0683Z" fill="black"/>
<path d="M29.3402 31.8744L29.3735 32.2909C29.8136 32.1693 29.9713 32.0059 29.9713 32.0059C30.0233 31.692 30.0615 31.3682 30.0791 31.2101C29.9419 31.3933 29.6813 31.5027 29.5058 31.6661C29.4396 31.7299 29.3839 31.7998 29.3402 31.8744Z" fill="#37474F"/>
<path d="M29.157 32.2285L29.3735 32.2909L29.3402 31.8744C29.2697 31.9876 29.2167 32.11 29.157 32.2285Z" fill="#263238"/>
<path d="M30.1585 30.758C30.1292 30.6461 30.0852 30.5369 30.0272 30.4319C29.9983 30.5996 29.9093 30.7576 29.7704 30.8879C29.595 31.0643 29.3716 31.2109 29.202 31.3903C28.9943 31.6099 28.8669 31.8767 28.6091 32.0599C28.4821 32.1487 28.3302 32.2133 28.1653 32.2486C28.0005 32.284 27.8273 32.2891 27.6595 32.2635C27.5331 32.2501 27.4186 32.1985 27.341 32.1199C27.3101 32.0819 27.2963 32.037 27.3018 31.9922C27.1754 32.079 27.0378 32.1554 26.8912 32.2202C26.7285 32.2909 26.5335 32.3631 26.4904 32.5037C26.4788 32.5625 26.4897 32.6226 26.5218 32.6767C26.5538 32.7307 26.6056 32.7763 26.6707 32.8077C26.8031 32.8699 26.9518 32.9084 27.1058 32.9202C27.4323 32.9693 27.7672 32.9736 28.0956 32.9331C28.4266 32.891 28.726 32.7557 28.9365 32.5531C29.0289 32.452 29.1031 32.3415 29.157 32.2248C29.2167 32.1062 29.2697 31.9839 29.3402 31.8706C29.384 31.7964 29.4396 31.7266 29.5058 31.6631C29.6813 31.499 29.9419 31.3895 30.0791 31.2071C30.086 31.198 30.0948 31.1889 30.1017 31.1783C30.1774 31.0463 30.1973 30.8992 30.1585 30.758Z" fill="#455A64"/>
<path d="M27.6595 32.2643C27.8273 32.2898 28.0005 32.2847 28.1653 32.2493C28.3302 32.214 28.4821 32.1494 28.6091 32.0606C28.8669 31.8774 28.9943 31.6107 29.202 31.391C29.3716 31.2117 29.594 31.065 29.7704 30.8887C29.9093 30.7583 29.9983 30.6003 30.0272 30.4327L29.9831 30.3491C29.5186 30.3757 29.0168 30.3582 28.5631 30.4387C28.3812 30.7853 28.1633 31.1198 27.9114 31.4389C27.7427 31.6451 27.5375 31.8318 27.3018 31.9937C27.2963 32.0385 27.3101 32.0834 27.341 32.1214C27.4188 32.1997 27.5332 32.251 27.6595 32.2643Z" fill="#C48281"/>
<path d="M36.9695 17.9504C37.5645 16.8779 37.5996 15.6682 37.0675 14.576C36.897 14.231 36.6559 13.892 36.261 13.6815C35.7553 13.417 35.1016 13.4208 34.4921 13.4345C34.1687 13.4421 33.8384 13.4497 33.5346 13.5364C33.3832 13.5762 33.2466 13.644 33.1365 13.7339C33.0264 13.8238 32.9461 13.9331 32.9025 14.0524C32.5037 13.9954 32.1019 14.2394 31.9941 14.5426C31.8863 14.8458 32.0274 15.1757 32.2753 15.425C32.5233 15.6742 32.8633 15.8528 33.2122 16.0162C33.0025 16.1014 32.8476 16.2974 32.7751 16.4722C32.7026 16.6478 32.7198 16.8382 32.8231 17.0042C32.6353 17.0057 32.4526 17.0518 32.2996 17.1364C32.1466 17.2209 32.0307 17.3398 31.9676 17.477C31.9167 17.6143 31.9089 17.7591 31.9448 17.8992C31.9808 18.0394 32.0595 18.1708 32.1744 18.2826C32.4084 18.5054 32.7309 18.662 33.0917 18.7279C33.4506 18.7929 33.8215 18.8084 34.1873 18.7735C34.5656 19.0578 35.2584 19.0517 35.7337 18.8754C36.209 18.699 36.7588 18.3244 36.9695 17.9504Z" fill="#263238"/>
<path d="M33.5836 17.2368H33.4905C32.8682 17.2421 32.0803 17.5712 31.6952 18.4133L30.1997 20.6599L31.9069 21.2466L32.8408 19.1262L33.5836 17.2368Z" fill="#C48281"/>
<path d="M32.3841 18.7279C32.2655 18.9932 32.2577 19.2789 32.2391 19.5639C32.2204 19.8489 32.1783 20.1826 32.0127 20.4326C31.8302 20.3346 31.6116 20.285 31.3898 20.2913C31.1679 20.2976 30.9546 20.3594 30.7818 20.4676C30.6576 20.5489 30.5625 20.6535 30.5054 20.7716L31.9068 21.2534L32.8408 19.133L33.3004 17.9641C33.0902 18.0382 32.901 18.1438 32.7437 18.2749C32.5865 18.406 32.4642 18.56 32.3841 18.7279Z" fill="#AB6160"/>
<path d="M31.9225 20.8423C31.8579 20.7171 31.7529 20.6069 31.6178 20.5222C31.4826 20.4374 31.3216 20.3809 31.1503 20.3581C30.8083 20.3148 30.4212 20.4539 30.1997 20.6621C30.0135 20.8362 30.0429 21.0725 30.1605 21.28C30.2588 21.441 30.4259 21.5707 30.6335 21.6469C30.8411 21.7231 31.0764 21.7411 31.2992 21.698C31.7402 21.6015 32.0891 21.1729 31.9225 20.8423Z" fill="#C48281"/>
<path d="M33.7404 17.1958C33.0819 17.2771 32.6732 18.5691 32.4596 19.0601C32.2381 19.567 32.539 19.9348 32.8741 20.2411C32.9347 20.2967 32.9797 20.3616 33.0062 20.4314C33.0326 20.5013 33.0401 20.5747 33.028 20.6469L32.34 22.6435C34.2314 23.7325 37.4027 23.2051 38.2631 22.8494C38.2731 22.152 38.0833 21.4615 37.7075 20.8278C37.4541 20.4186 37.3114 19.9735 37.288 19.5199L37.2557 18.7872L37.484 17.5226L35.8416 17.2186L34.3941 17.1684C34.1757 17.1679 33.9575 17.1771 33.7404 17.1958Z" fill="#407BFF"/>
<path opacity="0.4" d="M33.7404 17.1958C33.0819 17.2771 32.6732 18.5691 32.4596 19.0601C32.2381 19.567 32.539 19.9348 32.8741 20.2411C32.9347 20.2967 32.9797 20.3616 33.0062 20.4314C33.0326 20.5013 33.0401 20.5747 33.028 20.6469L32.34 22.6435C34.2314 23.7325 37.4027 23.2051 38.2631 22.8494C38.2731 22.152 38.0833 21.4615 37.7075 20.8278C37.4541 20.4186 37.3114 19.9735 37.288 19.5199L37.2557 18.7872L37.484 17.5226L35.8416 17.2186L34.3941 17.1684C34.1757 17.1679 33.9575 17.1771 33.7404 17.1958Z" fill="black"/>
<path d="M33.7257 22.9642C33.7257 22.9642 33.7257 22.9642 33.7257 22.9596C33.7257 22.955 33.7257 22.955 33.7257 22.9505V22.9459V22.9421V22.9376L32.6085 21.3241V21.3195V21.315V21.3104L32.6036 21.3051V21.2998C32.5987 21.2944 32.5987 21.2944 32.5938 21.2891L32.5879 21.2846L32.583 21.2792V21.2754V21.2716V21.2678L32.5664 21.2564H32.5605H32.5556H32.5497H32.5429L32.536 21.2526H32.5282L31.066 20.5762H31.0582H31.0513H31.0435H31.0366H31.0297H31.0229H31.017H31.0101H31.0023H30.9954H30.9876H30.968C30.9607 20.5764 30.9538 20.5785 30.9484 20.5823L30.7955 20.7184H30.8004C30.7877 20.726 30.7867 20.7419 30.8053 20.7685L31.9225 22.382C31.9851 22.4567 32.0697 22.5187 32.1695 22.5629L33.4543 23.1238C33.5199 23.1526 33.5601 23.1534 33.566 23.1321C33.566 23.1321 33.566 23.1397 33.566 23.1412L33.7198 23.0052C33.7204 23.0032 33.7204 23.0011 33.7198 22.9991C33.7203 22.9974 33.7203 22.9955 33.7198 22.9938L33.7257 22.9642ZM30.8288 20.6902C30.8288 20.6902 30.8288 20.6902 30.8377 20.6902H30.8426H30.8288ZM32.2988 21.334C32.3106 21.3416 32.3233 21.3492 32.3341 21.3575C32.3263 21.3492 32.3135 21.3416 32.3018 21.334H32.2988ZM33.5719 23.104C33.5701 23.0925 33.5654 23.0814 33.5581 23.0713C33.5648 23.0805 33.5695 23.0905 33.5719 23.101C33.5719 23.101 33.5709 23.0994 33.5719 23.104Z" fill="#455A64"/>
<path opacity="0.15" d="M33.7257 22.9642C33.7257 22.9642 33.7257 22.9642 33.7257 22.9596C33.7257 22.9551 33.7257 22.9551 33.7257 22.9505V22.9459V22.9421V22.9376L32.6085 21.3241L32.438 21.4548L33.5562 23.0683C33.5629 23.0775 33.5675 23.0875 33.5699 23.0979C33.5711 23.1011 33.5713 23.1044 33.5704 23.1075C33.5695 23.1107 33.5677 23.1137 33.565 23.1162L33.7189 22.9801C33.7194 22.9781 33.7194 22.9761 33.7189 22.9741C33.7193 22.9723 33.7193 22.9705 33.7189 22.9687L33.7257 22.9642Z" fill="white"/>
<path opacity="0.2" d="M32.5899 21.3142V21.3096V21.3051L32.585 21.2998V21.2944C32.5801 21.2891 32.5801 21.2891 32.5752 21.2838L32.5693 21.2792L32.5644 21.2739V21.2701V21.2663V21.2625L32.5478 21.2511H32.5419H32.537H32.5311H32.5243L32.5174 21.2473H32.5096L31.066 20.5762H31.0582H31.0513H31.0435H31.0366H31.0298H31.0229H31.017H31.0102H31.0023H30.9955H30.9876H30.968C30.9608 20.5764 30.9538 20.5785 30.9484 20.5823L30.7955 20.7184C30.8027 20.7123 30.8155 20.7108 30.8338 20.7138C30.8585 20.7188 30.8823 20.7265 30.9043 20.7366L32.1891 21.2975C32.2149 21.3083 32.2395 21.3207 32.2626 21.3347C32.2872 21.3494 32.3108 21.3651 32.3332 21.3818C32.3549 21.3974 32.3752 21.4142 32.3939 21.432C32.4099 21.4466 32.424 21.4624 32.4361 21.4791L32.5899 21.3431V21.3142Z" fill="white"/>
<path d="M38.1142 17.9451C37.9319 17.7027 37.6928 17.5165 37.3302 17.4952C37.3302 17.4952 36.7422 17.7323 36.7422 18.8085L36.7814 21.5011C36.6961 21.5277 36.6108 21.5559 36.5266 21.5832C35.8098 21.8223 35.0606 21.9979 34.2931 22.1069C33.893 21.8604 33.3949 21.7293 32.8839 21.736L33.0731 22.0096C32.7144 22.1882 31.9029 21.8667 31.9029 21.8667C31.8431 22.2589 32.1714 22.6662 32.6066 22.8722C33.0417 23.0781 37.191 22.7757 38.071 22.3341C38.6502 22.0438 38.513 19.2675 38.513 19.2675C38.5529 18.8057 38.414 18.3452 38.1142 17.9451Z" fill="#C48281"/>
<path d="M31.0258 21.052C30.9981 21.1579 30.9824 21.2655 30.9788 21.3735C31.011 21.6308 31.1515 21.8728 31.3786 22.062C31.4257 22.1036 31.4848 22.1359 31.5511 22.1563C31.5836 22.1661 31.6189 22.1691 31.6534 22.1648C31.6878 22.1605 31.7202 22.1492 31.7471 22.132C31.7958 22.0867 31.8207 22.0289 31.8167 21.9701C31.8277 21.883 31.8214 21.795 31.7981 21.7094C31.7751 21.6228 31.712 21.5457 31.6207 21.4928C31.5502 21.4604 31.4748 21.4349 31.3963 21.4168C31.3209 21.3912 31.2539 21.3527 31.2003 21.3043L31.0258 21.052Z" fill="#C48281"/>
<path d="M34.3892 16.6691V17.6859C34.2608 17.7802 34.1373 17.8881 34.1256 18.0226C34.1233 18.087 34.144 18.1507 34.1853 18.2066C34.2267 18.2625 34.287 18.3085 34.3598 18.3395C34.5081 18.4004 34.6813 18.4135 34.8419 18.376C35.0009 18.338 35.1466 18.2725 35.2682 18.1845C35.4407 18.0609 35.5798 17.9119 35.6774 17.7462C35.775 17.5805 35.8291 17.4014 35.8366 17.2193V16.188L34.3892 16.6691Z" fill="#C48281"/>
<path d="M35.7808 16.188C35.6436 16.7473 35.3623 17.2322 34.3892 17.404V16.6653L35.7808 16.188Z" fill="#AB6160"/>
<path d="M35.4407 15.5998C35.4265 15.6894 35.4265 15.78 35.4407 15.8696C35.4566 15.9372 35.5003 15.9991 35.5652 16.0459C35.5968 16.0681 35.6349 16.084 35.6763 16.0921C35.7177 16.1002 35.7609 16.1002 35.8023 16.0923C35.7749 16.0041 35.7924 15.9112 35.8512 15.8328C35.91 15.7544 36.0055 15.6966 36.1179 15.6715C36.2302 15.6464 36.3507 15.656 36.4543 15.6981C36.5578 15.7402 36.6364 15.8117 36.6736 15.8977C36.6967 15.9597 36.7019 16.0248 36.6888 16.0885C36.6758 16.1522 36.6448 16.2129 36.5981 16.2663C36.5035 16.3727 36.3784 16.4606 36.2326 16.5232C36.1486 16.5479 36.0561 16.549 35.9711 16.5262C35.8862 16.5035 35.8143 16.4583 35.768 16.3985C35.3496 16.8462 34.5979 17.1958 33.8757 17.1715C33.6779 17.1696 33.485 17.1237 33.32 17.0392C33.0397 16.8872 33.0064 16.6387 32.9594 16.3955C32.8916 16.0888 32.8781 15.7763 32.9192 15.4668C32.9848 15.0397 33.2063 14.6141 33.6169 14.3268C33.908 15.2403 35.0193 15.5451 35.4407 15.5998Z" fill="#C48281"/>
<path d="M33.9355 15.542L33.467 16.0292L33.9325 16.1371L33.9355 15.542Z" fill="#AB6160"/>
<path d="M34.3657 16.3537L33.9864 16.4601C34.0133 16.4942 34.0537 16.5207 34.1015 16.5355C34.1494 16.5503 34.2022 16.5526 34.252 16.5422C34.2959 16.5256 34.3311 16.4978 34.3517 16.4635C34.3724 16.4292 34.3773 16.3905 34.3657 16.3537Z" fill="#AB6160"/>
<path opacity="0.3" d="M34.3657 16.3537L33.9864 16.4601C34.0133 16.4942 34.0537 16.5207 34.1015 16.5355C34.1494 16.5503 34.2022 16.5526 34.252 16.5422C34.2959 16.5256 34.3311 16.4978 34.3517 16.4635C34.3724 16.4292 34.3773 16.3905 34.3657 16.3537Z" fill="black"/>
<path d="M34.1256 16.5414C34.1668 16.5509 34.2107 16.5509 34.252 16.5414C34.2865 16.5294 34.3158 16.5099 34.3364 16.4852C34.3569 16.4605 34.3677 16.4317 34.3676 16.4024C34.3121 16.397 34.2561 16.4084 34.211 16.4341C34.166 16.4598 34.1354 16.498 34.1256 16.5407V16.5414Z" fill="#AB6160"/>
<path d="M34.6195 15.6188C34.6195 15.6399 34.6114 15.6605 34.5963 15.678C34.5812 15.6955 34.5597 15.7091 34.5346 15.7172C34.5094 15.7252 34.4818 15.7273 34.4552 15.7231C34.4285 15.7189 34.4041 15.7087 34.3849 15.6938C34.3658 15.6788 34.3528 15.6598 34.3476 15.6391C34.3424 15.6184 34.3453 15.597 34.3558 15.5775C34.3664 15.5581 34.3841 15.5416 34.4068 15.53C34.4295 15.5184 34.4561 15.5122 34.4833 15.5124C34.5012 15.5124 34.519 15.5151 34.5356 15.5205C34.5522 15.5259 34.5673 15.5337 34.5799 15.5436C34.5926 15.5535 34.6026 15.5652 34.6094 15.5781C34.6162 15.591 34.6196 15.6049 34.6195 15.6188Z" fill="#263238"/>
<path d="M33.4699 15.58C33.4694 15.6082 33.4546 15.635 33.4288 15.6548C33.4029 15.6746 33.3681 15.6856 33.3318 15.6856C33.2954 15.6856 33.2605 15.6744 33.2347 15.6545C33.209 15.6345 33.1946 15.6075 33.1946 15.5792C33.1946 15.551 33.209 15.524 33.2347 15.504C33.2605 15.484 33.2954 15.4728 33.3318 15.4728C33.3499 15.4728 33.3679 15.4756 33.3846 15.481C33.4014 15.4864 33.4166 15.4943 33.4295 15.5042C33.4423 15.5142 33.4525 15.526 33.4594 15.539C33.4664 15.552 33.4699 15.5659 33.4699 15.58Z" fill="#263238"/>
<path d="M33.3386 15.1574L33.0338 15.3193C33.0209 15.2901 33.0199 15.2585 33.0307 15.2287C33.0416 15.199 33.0639 15.1725 33.0946 15.1529C33.1318 15.1359 33.1743 15.1274 33.2174 15.1282C33.2606 15.129 33.3025 15.1391 33.3386 15.1574Z" fill="#263238"/>
<path d="M34.5117 15.1483L34.8145 15.3125C34.828 15.2834 34.8296 15.2518 34.8193 15.2219C34.809 15.192 34.7871 15.1653 34.7567 15.1453C34.7195 15.128 34.6769 15.1192 34.6336 15.1197C34.5903 15.1203 34.5481 15.1302 34.5117 15.1483Z" fill="#263238"/>
</svg>
