<svg xmlns="http://www.w3.org/2000/svg" viewBox="0 0 500 500"><g id="freepik--Earth--inject-2"><circle cx="141.89" cy="128.77" r="62.05" style="fill:#407BFF"></circle><circle cx="141.89" cy="128.77" r="62.05" style="fill:#fff;opacity:0.2"></circle><path d="M159.59,148.57h0a1.56,1.56,0,0,1-1.3-.49l-1.83-2a1.52,1.52,0,0,0-1.05-.5l-2.42-.13a1.52,1.52,0,0,1-.51-.12L149.3,144a1.55,1.55,0,0,0-1.06-.05l-2.79.88a1.5,1.5,0,0,1-.47.08l-3.11,0a1.57,1.57,0,0,0-1.11.46l-2.65,2.71a1.53,1.53,0,0,1-.83.44l-1.51.26a1.54,1.54,0,0,1-1.32-.39l-.84-.8-1-2.4a.45.45,0,0,0-.52-.27l-2,.43a.45.45,0,0,1-.51-.63h0l.65-2.08,0-2.37-.7-.24-3.83,3.67h0a.81.81,0,0,1-1.35-.48l-.74-5.07a1.27,1.27,0,0,1,1-1.44l1.76-.32a1.27,1.27,0,0,0,.89-.65h0a1.28,1.28,0,0,1,1.66-.55l2.9,1.33a1.44,1.44,0,0,0,.42.11l1,.09a1.27,1.27,0,0,0,1.36-1.56l-.39-1.61a1.3,1.3,0,0,1,.13-.91l2.27-4.12.06-.14,1.44-3.63a1.1,1.1,0,0,1,.23-.37l2.58-2.92,1.16-2.86,6.48-3.13-1.58-1.18-.21-1A2.56,2.56,0,0,1,148,110.6l1.93-1.25a2.57,2.57,0,0,0,.69-3.63h0l-2.15-3.36a2.51,2.51,0,0,0-1.45-1.08l-1.87-.54a3.66,3.66,0,0,1-.46-.18l-3.36-1.72a2.55,2.55,0,0,0-3.37,1l-1.37,2.33-.09.17-1.27,2.58a2.55,2.55,0,0,1-3.36,1.2l-.29-.13a2,2,0,0,1-.32-.18l-2.36-1.52a2.55,2.55,0,0,1-.63-3.72l.88-1.13a1.93,1.93,0,0,1,.31-.33l2.81-2.53,1.48-1.44a2.36,2.36,0,0,1,.54-.4l.93-.51a2.57,2.57,0,0,0,1.23-2.88l-.23-.9a2.56,2.56,0,0,0-2.36-1.91l-.78,0a2.78,2.78,0,0,1-.69-.12L131,87.9a2.56,2.56,0,0,0-2.46.48l-1.65,1.4a2.57,2.57,0,0,1-1.72.61L120,90.25a2.24,2.24,0,0,1-.52-.06L114.3,89a2.39,2.39,0,0,0-1,0l-7.76,1.17a2.48,2.48,0,0,1-1.15-.09L101,88.93a2.62,2.62,0,0,0-1.36-.05l-1.31.31a2.57,2.57,0,0,0-1.79,1.54L91.5,103.35a2.32,2.32,0,0,0-.17.78l-.54,7.8v4.24h0a.58.58,0,0,0,1.09.35l2.46-4.66a2.58,2.58,0,0,1,.41-.57L95,111a2.56,2.56,0,0,1,4.17.69l3.24,7,1.88,1.46-1.16,9.08a1.24,1.24,0,0,0,.08.63l3.08,7.7a1.2,1.2,0,0,0,.38.51l7.59,6.17,3.33,4.14,6,.51,2.54.39,3,.27,2.59,1.25,2.55,1.07.5-.11a1.55,1.55,0,0,1,1.87,1.43l0,.72a1.49,1.49,0,0,1-.06.51l-.91,3.09a1.51,1.51,0,0,0,.2,1.29l1.93,2.89.16.2,3.34,3.53a1.51,1.51,0,0,0,.73.43l1.91.51a1.52,1.52,0,0,1,1.13,1.25l.4,2.57.43,3.54,0,.16,1,4.31a.88.88,0,0,0,0,.15l.47,1.36a1.49,1.49,0,0,0,.62.78l.59.39a1.58,1.58,0,0,0,1,.24l2-.18a1.54,1.54,0,0,0,1.3-2.09h0a1.45,1.45,0,0,1-.1-.41l-.06-.71a1.44,1.44,0,0,1,.16-.84l.87-1.7a1.57,1.57,0,0,1,.61-.64l1-.57a1.54,1.54,0,0,0,.5-.45L157,172l.1-.13,1.41-1.62a1.09,1.09,0,0,0,.13-.17l1.46-2.24a1.43,1.43,0,0,0,.21-.49l.5-2.19a1.53,1.53,0,0,1,.5-.82l3-2.62a1.62,1.62,0,0,0,.48-.75l1.86-6.68a2.33,2.33,0,0,1,.11-.28l0-.08a1.48,1.48,0,0,0,.13-.35l.49-2.16a1.53,1.53,0,0,0-.9-1.76l-.09,0A14.11,14.11,0,0,0,159.59,148.57ZM91.42,113.36v0Zm18,27.25.1,0Z" style="fill:#407BFF"></path><path d="M176.22,77.08l-2,.52a1.63,1.63,0,0,1-1.36.52l-6.18-.68a1.59,1.59,0,0,0-.72.08l-4.5,1.63a1.44,1.44,0,0,0-.42.23l-1.75,1.33a1.6,1.6,0,0,0,.17,2.66l1,.6.18.12,5.23,4a1.61,1.61,0,0,1,.63,1.27l0,4.74a1.61,1.61,0,0,0,.53,1.19l5.66,5.15a1.6,1.6,0,0,0,2.56-.6l.13-.32a1.55,1.55,0,0,1,.61-.75l5.87-3.88a.15.15,0,0,1,.07,0l5.57-2.42a.4.4,0,0,0,.25-.42.42.42,0,0,1,.77-.28s2.93,3,2.34,3.94c0,.06-3.53,1.71-3.53,1.71a.43.43,0,0,0,.11.8s4.53.13,5.68,1c1.47,1.12,3.15,6.69,3.15,6.69a.42.42,0,0,1-.11.5l-.25.22-.08.05-.19.1a.43.43,0,0,0-.16.61l2,3a.37.37,0,0,1,.05.11l1.23,3.92h0l-2.27,2.6a.43.43,0,0,0-.1.36l1.11,5.55a.38.38,0,0,1-.07.31s-4,1.62-3.19,5.73c.43,2.21,6.76,3.56,9.5,4,.1-1.4.15-2.81.15-4.24A62,62,0,0,0,176.22,77.08Z" style="fill:#407BFF"></path><path d="M159.59,148.57h0a1.56,1.56,0,0,1-1.3-.49l-1.83-2a1.52,1.52,0,0,0-1.05-.5l-2.42-.13a1.52,1.52,0,0,1-.51-.12L149.3,144a1.55,1.55,0,0,0-1.06-.05l-2.79.88a1.5,1.5,0,0,1-.47.08l-3.11,0a1.57,1.57,0,0,0-1.11.46l-2.65,2.71a1.53,1.53,0,0,1-.83.44l-1.51.26a1.54,1.54,0,0,1-1.32-.39l-.84-.8-1-2.4a.45.45,0,0,0-.52-.27l-2,.43a.45.45,0,0,1-.51-.63h0l.65-2.08,0-2.37-.7-.24-3.83,3.67h0a.81.81,0,0,1-1.35-.48l-.74-5.07a1.27,1.27,0,0,1,1-1.44l1.76-.32a1.27,1.27,0,0,0,.89-.65h0a1.28,1.28,0,0,1,1.66-.55l2.9,1.33a1.44,1.44,0,0,0,.42.11l1,.09a1.27,1.27,0,0,0,1.36-1.56l-.39-1.61a1.3,1.3,0,0,1,.13-.91l2.27-4.12.06-.14,1.44-3.63a1.1,1.1,0,0,1,.23-.37l2.58-2.92,1.16-2.86,6.48-3.13-1.58-1.18-.21-1A2.56,2.56,0,0,1,148,110.6l1.93-1.25a2.57,2.57,0,0,0,.69-3.63h0l-2.15-3.36a2.51,2.51,0,0,0-1.45-1.08l-1.87-.54a3.66,3.66,0,0,1-.46-.18l-3.36-1.72a2.55,2.55,0,0,0-3.37,1l-1.37,2.33-.09.17-1.27,2.58a2.55,2.55,0,0,1-3.36,1.2l-.29-.13a2,2,0,0,1-.32-.18l-2.36-1.52a2.55,2.55,0,0,1-.63-3.72l.88-1.13a1.93,1.93,0,0,1,.31-.33l2.81-2.53,1.48-1.44a2.36,2.36,0,0,1,.54-.4l.93-.51a2.57,2.57,0,0,0,1.23-2.88l-.23-.9a2.56,2.56,0,0,0-2.36-1.91l-.78,0a2.78,2.78,0,0,1-.69-.12L131,87.9a2.56,2.56,0,0,0-2.46.48l-1.65,1.4a2.57,2.57,0,0,1-1.72.61L120,90.25a2.24,2.24,0,0,1-.52-.06L114.3,89a2.39,2.39,0,0,0-1,0l-7.76,1.17a2.48,2.48,0,0,1-1.15-.09L101,88.93a2.62,2.62,0,0,0-1.36-.05l-1.31.31a2.57,2.57,0,0,0-1.79,1.54L91.5,103.35a2.32,2.32,0,0,0-.17.78l-.54,7.8v4.24h0a.58.58,0,0,0,1.09.35l2.46-4.66a2.58,2.58,0,0,1,.41-.57L95,111a2.56,2.56,0,0,1,4.17.69l3.24,7,1.88,1.46-1.16,9.08a1.24,1.24,0,0,0,.08.63l3.08,7.7a1.2,1.2,0,0,0,.38.51l7.59,6.17,3.33,4.14,6,.51,2.54.39,3,.27,2.59,1.25,2.55,1.07.5-.11a1.55,1.55,0,0,1,1.87,1.43l0,.72a1.49,1.49,0,0,1-.06.51l-.91,3.09a1.51,1.51,0,0,0,.2,1.29l1.93,2.89.16.2,3.34,3.53a1.51,1.51,0,0,0,.73.43l1.91.51a1.52,1.52,0,0,1,1.13,1.25l.4,2.57.43,3.54,0,.16,1,4.31a.88.88,0,0,0,0,.15l.47,1.36a1.49,1.49,0,0,0,.62.78l.59.39a1.58,1.58,0,0,0,1,.24l2-.18a1.54,1.54,0,0,0,1.3-2.09h0a1.45,1.45,0,0,1-.1-.41l-.06-.71a1.44,1.44,0,0,1,.16-.84l.87-1.7a1.57,1.57,0,0,1,.61-.64l1-.57a1.54,1.54,0,0,0,.5-.45L157,172l.1-.13,1.41-1.62a1.09,1.09,0,0,0,.13-.17l1.46-2.24a1.43,1.43,0,0,0,.21-.49l.5-2.19a1.53,1.53,0,0,1,.5-.82l3-2.62a1.62,1.62,0,0,0,.48-.75l1.86-6.68a2.33,2.33,0,0,1,.11-.28l0-.08a1.48,1.48,0,0,0,.13-.35l.49-2.16a1.53,1.53,0,0,0-.9-1.76l-.09,0A14.11,14.11,0,0,0,159.59,148.57ZM91.42,113.36v0Zm18,27.25.1,0Z" style="fill:#fff;opacity:0.5"></path><path d="M176.22,77.08l-2,.52a1.63,1.63,0,0,1-1.36.52l-6.18-.68a1.59,1.59,0,0,0-.72.08l-4.5,1.63a1.44,1.44,0,0,0-.42.23l-1.75,1.33a1.6,1.6,0,0,0,.17,2.66l1,.6.18.12,5.23,4a1.61,1.61,0,0,1,.63,1.27l0,4.74a1.61,1.61,0,0,0,.53,1.19l5.66,5.15a1.6,1.6,0,0,0,2.56-.6l.13-.32a1.55,1.55,0,0,1,.61-.75l5.87-3.88a.15.15,0,0,1,.07,0l5.57-2.42a.4.4,0,0,0,.25-.42.42.42,0,0,1,.77-.28s2.93,3,2.34,3.94c0,.06-3.53,1.71-3.53,1.71a.43.43,0,0,0,.11.8s4.53.13,5.68,1c1.47,1.12,3.15,6.69,3.15,6.69a.42.42,0,0,1-.11.5l-.25.22-.08.05-.19.1a.43.43,0,0,0-.16.61l2,3a.37.37,0,0,1,.05.11l1.23,3.92h0l-2.27,2.6a.43.43,0,0,0-.1.36l1.11,5.55a.38.38,0,0,1-.07.31s-4,1.62-3.19,5.73c.43,2.21,6.76,3.56,9.5,4,.1-1.4.15-2.81.15-4.24A62,62,0,0,0,176.22,77.08Z" style="fill:#fff;opacity:0.5"></path></g></svg>
