<svg xmlns="http://www.w3.org/2000/svg" viewBox="0 0 500 500"><g id="freepik--Money--inject-2"><path d="M189.15,170.65c-2.37,11.47-18.59,29.27-43.51,12.26-6.08-4.15-8.57-9.06-8.83-14.1-.81-15.14,18.28-31.5,19.45-32.49l.06,0s-.8-7.16-6.33-8a5.62,5.62,0,0,1-1.44-.37c-3-1.32,1.44-4.77,1.44-4.77,3.56-2.77,7.12,2.7,9.49,2.14s5.15-4.51,6.73-2.93-.4,5.93,3.16,5.93,7.82-1.58,9,0,0,7,0,7-8.65-1.81-11,.92c0,0,20.43,19.39,21.84,31.42A9.37,9.37,0,0,1,189.15,170.65Z" style="fill:#407BFF"></path><path d="M169.58,167.46l.5,3.68-3.3-.13-.41-3.64c-3.85-.35-7.6-1.51-9.66-3l1.57-2.93A18.86,18.86,0,0,0,166,164l-.64-5.76c-4.08-.88-8.4-2-8.54-5.57-.1-2.48,2.27-4.46,7.4-4.62l-.28-2.52,2.65.1.34,2.47a21.91,21.91,0,0,1,7,1.66l-.93,2.37a21.17,21.17,0,0,0-5.74-1.51l.69,5.06c4.06.86,8.6,2,9.41,5.86C178,164.58,175.65,167.2,169.58,167.46ZM165,155l-.5-4.43c-2.38.18-3.32,1-3.24,2.09S162.91,154.53,165,155Zm7.65,6.59c-.24-1.4-2-2.11-4.24-2.67l.71,5.12C171.85,163.86,172.86,162.89,172.65,161.63Z" style="fill:#fff"></path><path d="M178.42,135.35s-8.65-1.81-11,.92c-3.17-.63-9.1-1.77-11.08,0,0,0-.8-7.16-6.33-8a5.62,5.62,0,0,1-1.44-.37,4.22,4.22,0,0,1,1.83-1.61c4-1.78,6.33,4.75,9.1,3.76s4.75-4.15,6.53-2S175.6,127.74,178.42,135.35Z" style="opacity:0.2;isolation:isolate"></path><path d="M189.15,170.65c-2.37,11.47-18.59,29.27-43.51,12.26-6.08-4.15-8.57-9.06-8.83-14.1,1.49,1.6,3.26,2.39,7.05,2.33,6.52-.1,20.07-6.81,25.86-2.66s15.69,3.62,19.52-.79A9.37,9.37,0,0,1,189.15,170.65Z" style="opacity:0.2;isolation:isolate"></path><path d="M155.55,136.94s-2.59-1.5,2.35-2.89,13,1.3,11.22,3.92A15.58,15.58,0,0,0,155.55,136.94Z" style="fill:#263238"></path><path d="M163.48,135s1,7.71,3.62,6.52-1.81-5.2-1.81-5.2,6.16,3.8,6.75,1.15S164.72,133.46,163.48,135Zm3.17,5.24c-.54.39-1.43-3.06-1.43-3.06C165.37,137.27,167.2,139.79,166.65,140.19Zm3.89-3.17c-.38.6-3.44-1.38-3.44-1.38S170.92,136.43,170.54,137Z" style="fill:#263238"></path><path d="M166,136s5.51,3.4,8.43,3.59a1.1,1.1,0,0,1,0,.94s-6.6-2-8-3.64c0,0,3.19,5.13,5.68,3.64a1.62,1.62,0,0,1,.59.79s-.91.74-2.85,0-4.53-5-4.53-5Z" style="fill:#263238"></path></g></svg>