<svg width="25" height="25" viewBox="0 0 25 25" fill="none" xmlns="http://www.w3.org/2000/svg">
<path d="M24.9201 17.9019C23.7923 22.1242 16.0733 28.6768 4.21406 22.415C1.32063 20.8873 0.135656 19.0799 0.0119239 17.2245C-0.373549 11.6512 8.71124 5.62875 9.26804 5.26431H9.2966C9.2966 5.26431 8.91588 2.62857 6.28419 2.31935C6.04898 2.29762 5.81853 2.25182 5.59891 2.18314C4.17123 1.69722 6.28419 0.427207 6.28419 0.427207C7.97837 -0.592486 9.67255 1.42113 10.8004 1.21498C11.9283 1.00884 13.2513 -0.445239 14.0032 0.136391C14.7551 0.718021 13.8128 2.31935 15.507 2.31935C17.2012 2.31935 19.2285 1.73772 19.79 2.31935C20.3516 2.90098 19.79 4.89619 19.79 4.89619C19.79 4.89619 15.6736 4.22989 14.5552 5.23486C14.5552 5.23486 24.2777 12.3727 24.9487 16.8012C25.0154 17.1669 25.0058 17.5385 24.9201 17.9019Z" fill="#407BFF"/>
<path d="M15.6069 16.7276L15.8449 18.0823L14.2744 18.0344L14.0793 16.6945C12.2471 16.5656 10.4625 16.1386 9.48218 15.5901L10.2293 14.5115C11.3508 15.0286 12.6046 15.3502 13.9032 15.4539L13.5986 13.3335C11.657 13.0096 9.60115 12.5973 9.53453 11.2831C9.48694 10.3702 10.6148 9.64129 13.0561 9.58239L12.9229 8.65472L14.184 8.69154L14.3458 9.6008C15.4922 9.66112 16.6177 9.86759 17.677 10.2119L17.2345 11.0843C16.3622 10.8007 15.4426 10.6136 14.5028 10.5285L14.8312 12.3911C16.7633 12.7077 18.9239 13.1274 19.3094 14.5483C19.6139 15.6674 18.4956 16.6319 15.6069 16.7276ZM13.4273 12.1408L13.1894 10.5101C12.0568 10.5763 11.6094 10.8782 11.6475 11.2794C11.6856 11.6807 12.4327 11.9678 13.4273 12.1408ZM17.0679 14.5667C16.9537 14.0514 16.1161 13.79 15.0501 13.5839L15.388 15.4686C16.6872 15.4024 17.1678 15.0453 17.0679 14.5815V14.5667Z" fill="white"/>
<path opacity="0.2" d="M19.8138 4.90724C19.8138 4.90724 15.6973 4.24094 14.579 5.24591C13.0704 5.01399 10.2484 4.59434 9.30611 5.24591C9.30611 5.24591 8.9254 2.61017 6.29371 2.30095C6.05849 2.27922 5.82805 2.23342 5.60843 2.16474C5.81704 1.90522 6.11997 1.69906 6.47931 1.57207C8.38288 0.916815 9.49171 3.32064 10.8099 2.9562C12.1282 2.59176 13.0704 1.4285 13.9175 2.21996C14.7646 3.01142 18.4718 2.10584 19.8138 4.90724Z" fill="black"/>
<path opacity="0.2" d="M24.9205 17.9019C23.7927 22.1242 16.0737 28.6768 4.21443 22.4151C1.321 20.8874 0.136031 19.0799 0.0122986 17.2246C0.721379 17.8136 1.56371 18.1044 3.36734 18.0823C6.47016 18.0455 12.9185 15.5754 15.6739 17.1031C18.4293 18.6308 23.1407 18.4357 24.9634 16.8123C25.0238 17.1749 25.0094 17.5427 24.9205 17.9019Z" fill="black"/>
<path d="M8.93017 5.49254C8.93017 5.49254 7.6976 4.94036 10.0485 4.42868C12.3994 3.91699 16.2351 4.90723 15.388 5.87171C14.4188 5.43471 13.3341 5.17354 12.2155 5.10786C11.0968 5.04219 9.97354 5.17371 8.93017 5.49254Z" fill="#263238"/>
<path d="M12.704 4.77836C12.704 4.77836 13.1799 7.61657 14.4267 7.17851C15.6736 6.74045 13.5653 5.26428 13.5653 5.26428C13.5653 5.26428 16.4968 6.66314 16.7776 5.68762C17.0584 4.7121 13.2941 4.21146 12.704 4.77836ZM14.2126 6.70732C13.9556 6.85088 13.532 5.58086 13.532 5.58086C13.6034 5.61399 14.4743 6.54166 14.2126 6.68891V6.70732ZM16.0638 5.54037C15.8829 5.76125 14.4267 5.03237 14.4267 5.03237C14.4267 5.03237 16.2446 5.30478 16.0638 5.5146V5.54037Z" fill="#263238"/>
<path d="M13.9032 5.14648C13.9032 5.14648 16.5254 6.39809 17.915 6.46803C17.948 6.52213 17.9652 6.58122 17.9652 6.64105C17.9652 6.70088 17.948 6.75997 17.915 6.81407C17.915 6.81407 14.7741 6.07783 14.1079 5.47411C14.1079 5.47411 15.626 7.36257 16.8109 6.81407C16.9413 6.88608 17.0394 6.98774 17.0917 7.10489C17.0917 7.10489 16.6586 7.3773 15.7354 7.10489C14.8122 6.83248 13.5796 5.26429 13.5796 5.26429L13.9032 5.14648Z" fill="#263238"/>
</svg>
