<svg width="15" height="25" viewBox="0 0 15 25" fill="none" xmlns="http://www.w3.org/2000/svg">
<path d="M7.50061 24.0789C11.6424 24.0789 15 22.6018 15 20.7796C15 18.9574 11.6424 17.4802 7.50061 17.4802C3.35881 17.4802 0.0012207 18.9574 0.0012207 20.7796C0.0012207 22.6018 3.35881 24.0789 7.50061 24.0789Z" fill="#37474F"/>
<path d="M15 20.7795C15 22.6019 11.6431 24.0827 7.50062 24.0827C3.3581 24.0827 0 22.6019 0 20.7795V21.7016C0 23.523 3.35687 25 7.49815 25C11.6394 25 14.9975 23.523 14.9975 21.7016V20.7795H15Z" fill="#253239"/>
<path d="M7.50062 23.6853C3.65487 23.6853 0.525818 22.382 0.525818 20.7795C0.525818 19.177 3.65487 17.8737 7.50062 17.8737C11.3464 17.8737 14.4766 19.177 14.4766 20.7795C14.4766 22.382 11.3476 23.6853 7.50062 23.6853ZM7.50062 17.9738C3.7263 17.9738 0.655118 19.2318 0.655118 20.7795C0.655118 22.3273 3.7263 23.5853 7.50062 23.5853C11.2749 23.5853 14.3461 22.3263 14.3461 20.7795C14.3461 19.2327 11.2762 17.9738 7.50062 17.9738Z" fill="#407BFF"/>
<path d="M7.50062 6.20613C3.65487 6.20613 0.525818 4.90186 0.525818 3.29937C0.525818 1.69688 3.65487 0.393555 7.50062 0.393555C11.3464 0.393555 14.4766 1.69688 14.4766 3.29937C14.4766 4.90186 11.3476 6.20613 7.50062 6.20613ZM7.50062 0.493593C3.7263 0.493593 0.655118 1.75256 0.655118 3.29937C0.655118 4.84618 3.7263 6.10609 7.50062 6.10609C11.2749 6.10609 14.3461 4.84429 14.3461 3.29937C14.3461 1.75445 11.2762 0.493593 7.50062 0.493593Z" fill="#407BFF"/>
<path d="M14.3461 20.7809V20.7795H14.4766L14.3461 20.7809Z" fill="#407BFF"/>
<path d="M0.525818 20.7809V20.7795H0.65635L0.525818 20.7809Z" fill="#407BFF"/>
<path d="M14.4766 20.7795H14.3461C14.3461 19.2318 11.2761 17.9738 7.50059 17.9738C3.72504 17.9738 0.655095 19.2318 0.655095 20.7795H0.531952V17.7189C0.528505 16.8831 0.820739 16.0621 1.37757 15.3434C1.93441 14.6247 2.73502 14.035 3.69425 13.6372L5.59927 12.8511C5.76895 12.7805 5.91062 12.6761 6.00934 12.549C6.10806 12.4218 6.16017 12.2766 6.16017 12.1286C6.16017 11.9807 6.10806 11.8355 6.00934 11.7083C5.91062 11.5811 5.76895 11.4768 5.59927 11.4062L3.69425 10.62C2.73479 10.2232 1.93354 9.63463 1.37564 8.91676C0.817747 8.19889 0.52406 7.37858 0.525795 6.54303V3.42865H0.663715V3.47301C0.88414 4.94998 3.88389 6.10702 7.49444 6.10702C11.105 6.10702 14.106 4.94998 14.3264 3.47301L14.3325 3.42865H14.4705V6.54303C14.4736 7.37884 14.181 8.19967 13.624 8.91823C13.067 9.63679 12.2662 10.2262 11.3069 10.6238L9.40068 11.41C9.23134 11.4808 9.09002 11.5852 8.99155 11.7123C8.89309 11.8395 8.84113 11.9846 8.84113 12.1324C8.84113 12.2802 8.89309 12.4253 8.99155 12.5525C9.09002 12.6796 9.23134 12.784 9.40068 12.8548L11.3069 13.641C13.239 14.5121 14.4508 16.0749 14.4705 17.7227L14.4766 20.7795ZM7.50059 17.8737C10.887 17.8737 13.7168 18.8835 14.3461 20.218V17.7189C14.3276 16.107 13.1405 14.5763 11.2491 13.725L9.34527 12.9398C9.15508 12.8604 8.99631 12.7433 8.88569 12.6006C8.77507 12.4579 8.71669 12.2951 8.71669 12.1291C8.71669 11.9631 8.77507 11.8003 8.88569 11.6576C8.99631 11.5149 9.15508 11.3978 9.34527 11.3184L11.2515 10.5323C12.1894 10.1436 12.9724 9.56739 13.5172 8.86499C14.0621 8.16259 14.3485 7.36019 14.3461 6.54303V3.86278C13.7181 5.20574 10.8698 6.20989 7.50059 6.20989C4.13141 6.20989 1.28435 5.20574 0.655095 3.86278V6.54303C0.652006 7.3609 0.938252 8.16412 1.48338 8.86724C2.02851 9.57035 2.81214 10.1471 3.7509 10.536L5.65715 11.3222C5.84734 11.4015 6.00611 11.5187 6.11673 11.6614C6.22735 11.804 6.28573 11.9669 6.28573 12.1329C6.28573 12.2988 6.22735 12.4617 6.11673 12.6044C6.00611 12.7471 5.84734 12.8642 5.65715 12.9436L3.7509 13.7297C2.81205 14.1186 2.02835 14.6953 1.48321 15.3984C0.938063 16.1016 0.651873 16.9048 0.655095 17.7227V20.218C1.28435 18.8835 4.1154 17.8737 7.50059 17.8737Z" fill="#407BFF"/>
<path d="M8.088 15.5304C7.90935 15.452 7.70708 15.4108 7.50122 15.4108C7.29537 15.4108 7.09309 15.452 6.91445 15.5304C5.36285 16.2108 1.26959 18.1125 1.26959 19.2648C1.26959 20.6871 4.05877 21.8403 7.50061 21.8403C10.9424 21.8403 13.7329 20.6871 13.7329 19.2648C13.7329 18.1125 9.63959 16.2108 8.088 15.5304Z" fill="#407BFF"/>
<path opacity="0.3" d="M8.088 15.5304C7.90935 15.452 7.70708 15.4108 7.50122 15.4108C7.29537 15.4108 7.09309 15.452 6.91445 15.5304C5.36285 16.2108 1.26959 18.1125 1.26959 19.2648C1.26959 20.6871 4.05877 21.8403 7.50061 21.8403C10.9424 21.8403 13.7329 20.6871 13.7329 19.2648C13.7329 18.1125 9.63959 16.2108 8.088 15.5304Z" fill="white"/>
<path d="M7.50061 21.8403C4.05877 21.8403 1.26959 20.687 1.26959 19.2648V20.57C1.26959 21.9922 4.06 23.1455 7.50061 23.1455C10.9412 23.1455 13.7329 21.9922 13.7329 20.57V19.2648C13.7329 20.687 10.9424 21.8403 7.50061 21.8403Z" fill="#407BFF"/>
<path d="M1.2696 3.47772V6.30898C1.26749 7.0546 1.52875 7.78675 2.02566 8.42777C2.52257 9.0688 3.23661 9.5948 4.09203 9.94998L5.81603 10.6587C5.84189 10.6701 5.86775 10.6814 5.89115 10.6937C5.95272 10.7239 6.01429 10.7531 6.07832 10.7805C6.43082 10.9495 6.72136 11.1845 6.92258 11.4634C7.1238 11.7423 7.22907 12.0558 7.22848 12.3745V13.6014C7.22815 13.6583 7.25725 13.7129 7.3094 13.7535C7.36156 13.794 7.43253 13.817 7.50678 13.8175C7.58114 13.817 7.65224 13.794 7.70459 13.7535C7.75694 13.713 7.78631 13.6583 7.78631 13.6014V12.3745C7.7857 12.0559 7.89083 11.7425 8.09182 11.4636C8.29281 11.1848 8.58305 10.9497 8.93523 10.7805C8.99927 10.7531 9.05837 10.7239 9.12364 10.6937C9.14704 10.6814 9.1729 10.6701 9.19876 10.6587L10.9166 9.94998C11.772 9.5948 12.4861 9.0688 12.983 8.42777C13.4799 7.78675 13.7411 7.0546 13.739 6.30898V3.47772H1.2696Z" fill="#407BFF"/>
<path d="M7.78013 14.4809C7.77989 14.4386 7.76329 14.3973 7.73243 14.3622C7.70156 14.3271 7.65782 14.2997 7.60672 14.2837C7.55562 14.2676 7.49946 14.2635 7.44531 14.2719C7.39117 14.2802 7.34148 14.3007 7.30251 14.3307C7.26354 14.3607 7.23704 14.3989 7.22635 14.4404C7.21566 14.482 7.22127 14.525 7.24246 14.5641C7.26366 14.6032 7.29949 14.6366 7.34543 14.6601C7.39137 14.6836 7.44537 14.6961 7.5006 14.6961C7.57475 14.6956 7.64566 14.6727 7.69798 14.6325C7.7503 14.5922 7.77981 14.5378 7.78013 14.4809Z" fill="#407BFF"/>
<path opacity="0.3" d="M1.2696 3.47772V6.30898C1.26749 7.0546 1.52875 7.78675 2.02566 8.42777C2.52257 9.0688 3.23661 9.5948 4.09203 9.94998L5.81603 10.6587C5.84189 10.6701 5.86775 10.6814 5.89115 10.6937C5.95272 10.7239 6.01429 10.7531 6.07832 10.7805C6.43082 10.9495 6.72136 11.1845 6.92258 11.4634C7.1238 11.7423 7.22907 12.0558 7.22848 12.3745V13.6014C7.22815 13.6583 7.25725 13.7129 7.3094 13.7535C7.36156 13.794 7.43253 13.817 7.50678 13.8175C7.58114 13.817 7.65224 13.794 7.70459 13.7535C7.75694 13.713 7.78631 13.6583 7.78631 13.6014V12.3745C7.7857 12.0559 7.89083 11.7425 8.09182 11.4636C8.29281 11.1848 8.58305 10.9497 8.93523 10.7805C8.99927 10.7531 9.05837 10.7239 9.12364 10.6937C9.14704 10.6814 9.1729 10.6701 9.19876 10.6587L10.9166 9.94998C11.772 9.5948 12.4861 9.0688 12.983 8.42777C13.4799 7.78675 13.7411 7.0546 13.739 6.30898V3.47772H1.2696Z" fill="white"/>
<g opacity="0.3">
<path d="M7.78013 14.4809C7.77989 14.4386 7.76329 14.3973 7.73243 14.3622C7.70156 14.3271 7.65782 14.2997 7.60672 14.2837C7.55562 14.2676 7.49946 14.2635 7.44531 14.2719C7.39117 14.2802 7.34148 14.3007 7.30251 14.3307C7.26354 14.3607 7.23704 14.3989 7.22635 14.4404C7.21566 14.482 7.22127 14.525 7.24246 14.5641C7.26366 14.6032 7.29949 14.6366 7.34543 14.6601C7.39137 14.6836 7.44537 14.6961 7.5006 14.6961C7.57475 14.6956 7.64566 14.6727 7.69798 14.6325C7.7503 14.5922 7.77981 14.5378 7.78013 14.4809Z" fill="white"/>
</g>
<path d="M7.50062 6.05322C10.9426 6.05322 13.7329 4.90013 13.7329 3.47772C13.7329 2.05531 10.9426 0.902222 7.50062 0.902222C4.05864 0.902222 1.26837 2.05531 1.26837 3.47772C1.26837 4.90013 4.05864 6.05322 7.50062 6.05322Z" fill="#407BFF"/>
<g style="mix-blend-mode:overlay" opacity="0.5">
<path d="M6.98835 12.8954L5.77663 13.6816C4.5452 14.4762 3.78664 16.0287 3.78664 17.7189V23.104C3.41027 23.0054 3.04394 22.8855 2.69067 22.7454V17.7189C2.69067 16.0287 3.56622 14.4762 4.97004 13.6816L6.3554 12.8954C6.93294 12.5679 6.93294 11.6884 6.3554 11.3628L4.97004 10.5766C3.57114 9.78199 2.69067 8.22857 2.69067 6.54303V3.47772H3.78664V6.54303C3.78664 8.23329 4.55136 9.78671 5.77663 10.5813L6.98835 11.3675C7.492 11.6884 7.492 12.5679 6.98835 12.8954Z" fill="white"/>
</g>
<path d="M7.50061 6.59872C11.6424 6.59872 15 5.12154 15 3.29936C15 1.47717 11.6424 0 7.50061 0C3.35881 0 0.0012207 1.47717 0.0012207 3.29936C0.0012207 5.12154 3.35881 6.59872 7.50061 6.59872Z" fill="#37474F"/>
<path d="M15 3.29938C15 5.12176 11.6431 6.60251 7.50062 6.60251C3.3581 6.60251 0 5.12176 0 3.29938V4.22142C0 6.04381 3.35687 7.52456 7.49815 7.52456C11.6394 7.52456 14.9975 6.04758 14.9975 4.22142V3.29938H15Z" fill="#253239"/>
</svg>
