<svg xmlns="http://www.w3.org/2000/svg" viewBox="0 0 500 500"><g id="freepik--sand-clock--inject-74"><ellipse cx="123.91" cy="315.85" rx="60.9" ry="34.96" style="fill:#37474f"></ellipse><path d="M184.81,315.85c0,19.31-27.26,35-60.9,35S63,335.16,63,315.85h0v9.77c0,19.3,27.26,34.95,60.89,34.95s60.9-15.65,60.9-34.95v-9.77Z" style="fill:#253239"></path><path d="M123.91,346.64c-31.23,0-56.64-13.81-56.64-30.79s25.41-30.79,56.64-30.79,56.65,13.81,56.65,30.79S155.15,346.64,123.91,346.64Zm0-60.52c-30.65,0-55.59,13.33-55.59,29.73s24.94,29.73,55.59,29.73,55.59-13.34,55.59-29.73S154.57,286.12,123.91,286.12Z" style="fill:#407BFF"></path><path d="M123.91,161.43c-31.23,0-56.64-13.82-56.64-30.8s25.41-30.79,56.64-30.79,56.65,13.81,56.65,30.79S155.15,161.43,123.91,161.43Zm0-60.53c-30.65,0-55.59,13.34-55.59,29.73s24.94,29.74,55.59,29.74S179.5,147,179.5,130.63,154.57,100.9,123.91,100.9Z" style="fill:#407BFF"></path><polygon points="179.5 315.86 179.5 315.85 180.56 315.85 179.5 315.86" style="fill:#407BFF"></polygon><polygon points="67.27 315.86 67.27 315.85 68.33 315.85 67.27 315.86" style="fill:#407BFF"></polygon><path d="M180.56,315.85H179.5c0-16.4-24.93-29.73-55.59-29.73s-55.59,13.33-55.59,29.73h-1V283.42A49,49,0,0,1,93,240.17l15.47-8.33a8.71,8.71,0,0,0,0-15.31L93,208.2A49,49,0,0,1,67.27,165V132h1.12l0,.47c1.79,15.65,26.15,27.91,55.47,27.91s53.69-12.26,55.48-27.91l.05-.47h1.12v33a49,49,0,0,1-25.69,43.24l-15.48,8.33a8.72,8.72,0,0,0,0,15.31l15.48,8.33c15.69,9.23,25.53,25.79,25.69,43.25Zm-56.65-30.79c27.5,0,50.48,10.7,55.59,24.84V283.42c-.15-17.08-9.79-33.3-25.15-42.32l-15.46-8.32a9.78,9.78,0,0,1,0-17.18l15.48-8.33A47.93,47.93,0,0,0,179.5,165v-28.4c-5.1,14.23-28.23,24.87-55.59,24.87s-50.48-10.64-55.59-24.87V165a47.94,47.94,0,0,0,25.14,42.31l15.48,8.33a9.78,9.78,0,0,1,0,17.18l-15.48,8.33a47.93,47.93,0,0,0-25.14,42.31V309.9C73.43,295.76,96.42,285.06,123.91,285.06Z" style="fill:#407BFF"></path><path d="M128.68,260.23a9.59,9.59,0,0,0-9.53,0c-12.6,7.21-45.84,27.36-45.84,39.57,0,15.07,22.65,27.29,50.6,27.29s50.61-12.22,50.61-27.29C174.52,287.59,141.28,267.44,128.68,260.23Z" style="fill:#407BFF"></path><path d="M128.68,260.23a9.59,9.59,0,0,0-9.53,0c-12.6,7.21-45.84,27.36-45.84,39.57,0,15.07,22.65,27.29,50.6,27.29s50.61-12.22,50.61-27.29C174.52,287.59,141.28,267.44,128.68,260.23Z" style="fill:#fff;opacity:0.30000000000000004"></path><path d="M123.91,327.09c-27.95,0-50.6-12.22-50.6-27.29v13.83h0c0,15.07,22.66,27.29,50.6,27.29s50.61-12.22,50.61-27.29h0V299.8C174.52,314.87,151.86,327.09,123.91,327.09Z" style="fill:#407BFF"></path><path d="M73.31,132.52v30a43.77,43.77,0,0,0,22.92,38.58l14,7.51c.21.12.42.24.61.37.5.32,1,.63,1.52.92a19.89,19.89,0,0,1,9.34,16.89v13a2.28,2.28,0,0,0,2.26,2.29h0a2.29,2.29,0,0,0,2.27-2.29v-13a19.9,19.9,0,0,1,9.33-16.89c.52-.29,1-.6,1.53-.92.19-.13.4-.25.61-.37l13.95-7.51a43.77,43.77,0,0,0,22.92-38.58v-30Z" style="fill:#407BFF"></path><path d="M126.18,249.11a2.27,2.27,0,1,0-2.27,2.28A2.29,2.29,0,0,0,126.18,249.11Z" style="fill:#407BFF"></path><path d="M73.31,132.52v30a43.77,43.77,0,0,0,22.92,38.58l14,7.51c.21.12.42.24.61.37.5.32,1,.63,1.52.92a19.89,19.89,0,0,1,9.34,16.89v13a2.28,2.28,0,0,0,2.26,2.29h0a2.29,2.29,0,0,0,2.27-2.29v-13a19.9,19.9,0,0,1,9.33-16.89c.52-.29,1-.6,1.53-.92.19-.13.4-.25.61-.37l13.95-7.51a43.77,43.77,0,0,0,22.92-38.58v-30Z" style="fill:#fff;opacity:0.30000000000000004"></path><g style="opacity:0.30000000000000004"><path d="M126.18,249.11a2.27,2.27,0,1,0-2.27,2.28A2.29,2.29,0,0,0,126.18,249.11Z" style="fill:#fff"></path></g><ellipse cx="123.91" cy="132.52" rx="50.61" ry="27.29" style="fill:#407BFF"></ellipse><g style="opacity:0.5;mix-blend-mode:overlay"><path d="M119.75,232.31l-9.84,8.33c-10,8.42-16.16,24.87-16.16,42.78v57.06a65.42,65.42,0,0,1-8.9-3.8V283.42c0-17.91,7.11-34.36,18.51-42.78l11.25-8.33c4.69-3.47,4.69-12.79,0-16.24l-11.25-8.33C92,199.32,84.85,182.86,84.85,165V132.52h8.9V165c0,17.91,6.21,34.37,16.16,42.79l9.84,8.33C123.84,219.52,123.84,228.84,119.75,232.31Z" style="fill:#fff"></path></g><ellipse cx="123.91" cy="130.63" rx="60.9" ry="34.96" style="fill:#37474f"></ellipse><path d="M184.81,130.63c0,19.31-27.26,35-60.9,35S63,149.94,63,130.63h0v9.77c0,19.31,27.26,35,60.89,35s60.9-15.65,60.9-35v-9.77Z" style="fill:#253239"></path></g></svg>