<svg xmlns="http://www.w3.org/2000/svg" viewBox="0 0 500 500"><g id="freepik--Box--inject-2"><path d="M165,272.46s7.66-2.19,8.91-2.82,7.34-7.19,7.34-8.12-2.19-.47-3.9.46-7,6.72-7,6.72Z" style="fill:#fff;stroke:#263238;stroke-linecap:round;stroke-linejoin:round"></path><path d="M160.15,274.33s10.16-4.53,11.26-5.31,5.62-5.47,5.94-7-3.13-1.09-4.07-.62-6.56,6.09-7.19,6.72-7,5.94-7,5.94S157,275.11,160.15,274.33Z" style="fill:#fff;stroke:#263238;stroke-linecap:round;stroke-linejoin:round"></path><path d="M123.43,276.73s10-10.4,11.89-11.52,24.15-1.11,24.15-1.11,10.77-3,12.63-3.35,1.49,3.35-1.11,4.84-10.41,8.54-13.38,10.4-21.92,4.46-21.92,4.46l-9.29,11.14-9.66-5.94Z" style="fill:#fff;stroke:#263238;stroke-linecap:round;stroke-linejoin:round"></path><path d="M159.47,264.1s4.75-.55,4.28.85-2.19,4.38-5.47,4.54l-13.44.62" style="fill:#fff;stroke:#263238;stroke-linecap:round;stroke-linejoin:round"></path><path d="M116.74,285.65s-8.41-.65-10.07.35S84,310.67,84,310.67l7.58,36.4c-.34,1.47,34.17-34.57,39.09-45.4,2.12-4.68-3-10.34-3-10.34Z" style="fill:#407BFF;stroke:#263238;stroke-linecap:round;stroke-linejoin:round"></path><polygon points="119.25 276.11 135.95 287.73 128.87 296.19 112.85 285.3 119.25 276.11" style="fill:#407BFF;stroke:#263238;stroke-linecap:round;stroke-linejoin:round"></polygon><rect x="114" y="219.5" width="88" height="43.5" transform="translate(-11.7 8.08) rotate(-2.83)" style="fill:#fff;stroke:#263238;stroke-linecap:round;stroke-linejoin:round"></rect><rect x="115.86" y="223.61" width="17.15" height="8.76" transform="translate(-11.08 6.41) rotate(-2.82)" style="fill:#407BFF;stroke:#263238;stroke-linecap:round;stroke-linejoin:round"></rect><rect x="183.96" y="217.77" width="18" height="43.5" transform="translate(-11.57 9.8) rotate(-2.83)" style="fill:#dbdbdb;stroke:#263238;stroke-linecap:round;stroke-linejoin:round"></rect><path d="M200.87,217.36s7,4.85,9.78,9.83" style="fill:none;stroke:#263238;stroke-linecap:round;stroke-linejoin:round"></path><polygon points="208.16 223.87 207.89 234.65 216.18 244.6 227.79 234.38 219.5 224.15 208.16 223.87" style="fill:#407BFF;stroke:#263238;stroke-linecap:round;stroke-linejoin:round"></polygon><line x1="158" y1="199" x2="158" y2="208.5" style="fill:none;stroke:#263238;stroke-linecap:round;stroke-linejoin:round"></line><line x1="158" y1="282.5" x2="158" y2="292" style="fill:none;stroke:#263238;stroke-linecap:round;stroke-linejoin:round"></line><line x1="101.5" y1="213.5" x2="108" y2="218.5" style="fill:none;stroke:#263238;stroke-linecap:round;stroke-linejoin:round"></line><line x1="108.5" y1="247" x2="98" y2="247.5" style="fill:none;stroke:#263238;stroke-linecap:round;stroke-linejoin:round"></line><line x1="115" y1="272" x2="108.5" y2="278.5" style="fill:none;stroke:#263238;stroke-linecap:round;stroke-linejoin:round"></line><line x1="206.5" y1="265" x2="214.5" y2="272.5" style="fill:none;stroke:#263238;stroke-linecap:round;stroke-linejoin:round"></line><line x1="204.5" y1="213" x2="211" y2="205.5" style="fill:none;stroke:#263238;stroke-linecap:round;stroke-linejoin:round"></line></g><g id="freepik--Device--inject-2"><rect x="130.69" y="412.97" width="99.54" height="8.03" style="fill:#fff;stroke:#263238;stroke-linecap:round;stroke-miterlimit:10"></rect><rect x="132.32" y="410.27" width="6.89" height="2.58" style="fill:#fff;stroke:#263238;stroke-linecap:round;stroke-miterlimit:10"></rect><rect x="141.21" y="410.27" width="6.89" height="2.58" style="fill:#fff;stroke:#263238;stroke-linecap:round;stroke-miterlimit:10"></rect><rect x="150.11" y="410.27" width="6.89" height="2.58" style="fill:#fff;stroke:#263238;stroke-linecap:round;stroke-miterlimit:10"></rect><rect x="159" y="410.27" width="6.89" height="2.58" style="fill:#fff;stroke:#263238;stroke-linecap:round;stroke-miterlimit:10"></rect><rect x="167.9" y="410.27" width="6.89" height="2.58" style="fill:#fff;stroke:#263238;stroke-linecap:round;stroke-miterlimit:10"></rect><rect x="176.79" y="410.27" width="6.89" height="2.58" style="fill:#fff;stroke:#263238;stroke-linecap:round;stroke-miterlimit:10"></rect><rect x="185.69" y="410.27" width="6.89" height="2.58" style="fill:#fff;stroke:#263238;stroke-linecap:round;stroke-miterlimit:10"></rect><rect x="194.58" y="410.27" width="6.89" height="2.58" style="fill:#fff;stroke:#263238;stroke-linecap:round;stroke-miterlimit:10"></rect><rect x="203.48" y="410.27" width="6.89" height="2.58" style="fill:#fff;stroke:#263238;stroke-linecap:round;stroke-miterlimit:10"></rect><rect x="212.37" y="410.27" width="6.89" height="2.58" style="fill:#fff;stroke:#263238;stroke-linecap:round;stroke-miterlimit:10"></rect><rect x="221.27" y="410.27" width="6.89" height="2.58" style="fill:#fff;stroke:#263238;stroke-linecap:round;stroke-miterlimit:10"></rect><path d="M109,421H65.57a9,9,0,0,1-8.82-10.64l19.4-102.47,4.73.9L61.48,411.25a4.15,4.15,0,0,0,4.09,4.93H109Z" style="fill:#263238"></path><polygon points="77.98 302.46 71.02 304.6 76.37 332.96 84.94 331.36 77.98 302.46" style="fill:#263238"></polygon><path d="M94,391.44h0L61.66,228.09l2.48,1.54A23.54,23.54,0,0,1,74.81,245L99.75,371A23.51,23.51,0,0,1,94,391.44Z" style="fill:#fff;stroke:#263238;stroke-linecap:round;stroke-miterlimit:10"></path><line x1="450.66" y1="421" x2="464" y2="421" style="fill:none;stroke:#263238;stroke-linecap:round;stroke-miterlimit:10"></line><line x1="22.18" y1="421" x2="440.39" y2="421" style="fill:none;stroke:#263238;stroke-linecap:round;stroke-miterlimit:10"></line></g></svg>